<svg width="60" height="60" viewBox="0 0 60 60" fill="none" xmlns="http://www.w3.org/2000/svg">
<g clip-path="url(#clip0)">
<path d="M56.4274 38.4435C54.0322 50.7416 43.1912 60.0217 30.1879 60C15.3787 59.9758 3.4994 48.0374 3.54407 33.2282C3.58753 18.9199 14.8922 7.26277 29.0616 6.6507L28.2588 3.54446C28.0849 3.04829 28.0632 2.56177 28.1574 2.11509C28.3215 1.34728 28.8286 0.700196 29.4962 0.33078C30.2278 -0.0736466 31.1513 -0.143667 32.0254 0.325951L44.8004 9.79074C45.8471 10.6262 46.7235 11.7477 46.7199 13.0141C46.7151 14.2708 45.8821 15.3368 44.8004 16.2121L32.0254 25.6756C31.1682 26.1368 30.264 26.0789 29.5396 25.695C28.8612 25.3364 28.3408 24.6917 28.167 23.9227C28.1658 23.9215 28.1658 23.9215 28.1658 23.9215C28.062 23.4664 28.0801 22.9678 28.2588 22.4583L29.0845 19.2942C21.8543 19.8773 16.1682 25.9304 16.1682 33.3115C16.1682 41.1453 22.5714 47.4833 30.4306 47.3746C36.3738 47.2938 41.4551 43.4716 43.4241 38.1754C43.7658 37.2555 44.6338 36.6386 45.6153 36.6386H50.8233C51.0563 35.1501 51.1553 33.6386 51.1203 32.1465C51.0962 31.1469 51.8881 30.3175 52.8877 30.2934C53.8873 30.2692 54.7167 31.0612 54.7408 32.0608C54.7771 33.5807 54.6901 35.1187 54.4825 36.6386H54.934C55.8877 36.6386 56.6097 37.5078 56.4274 38.4435Z" fill="#FFB89B"/>
<path d="M16.1672 33.3115C16.1672 25.9303 21.8533 19.8777 29.0841 19.2935L29.7021 16.9262C29.8161 16.4893 29.4743 16.0662 29.0232 16.0856C17.8353 16.5674 12.8652 25.9849 12.8652 33.1755C12.8652 41.009 18.5493 47.483 26.4077 47.3751C27.0187 47.3666 27.62 47.3166 28.2104 47.2316C21.4004 46.2512 16.1672 40.3927 16.1672 33.3115Z" fill="#FFA07A"/>
<path d="M54.9334 36.6386H54.4817C54.689 35.1185 54.7764 33.5813 54.7402 32.0608C54.7164 31.0611 53.8866 30.2696 52.8869 30.2935C51.887 30.3173 51.0958 31.1471 51.1196 32.147C51.1551 33.6388 51.0551 35.15 50.8225 36.6386H50.9113C51.8647 36.6386 52.5866 37.5075 52.4043 38.4432C50.1358 50.0905 40.2928 59.0287 28.2109 59.9246C28.8631 59.9729 29.5218 59.9989 30.1866 60C43.1909 60.0215 54.0311 50.7418 56.4265 38.4432C56.6087 37.5075 55.8867 36.6386 54.9334 36.6386Z" fill="#FF8756"/>
<path d="M46.0012 33.4729C45.9967 33.4731 45.9921 33.4735 45.9875 33.4737C44.989 33.5297 44.134 32.7657 44.078 31.7671C43.9517 29.5177 43.2135 27.3541 41.943 25.5103C41.3754 24.6868 41.5831 23.5591 42.4067 22.9917C43.2302 22.4243 44.3578 22.6319 44.9252 23.4554C46.5731 25.8468 47.5305 28.6509 47.6939 31.5643C47.7499 32.5581 46.993 33.4097 46.0012 33.4729Z" fill="#99E6FC"/>
<path d="M51.6578 25.9143C50.9836 25.8414 50.3783 25.3911 50.1408 24.7081C49.8751 23.944 49.5686 23.1838 49.2295 22.4487C48.8105 21.5406 49.2071 20.4647 50.1153 20.0458C51.0235 19.627 52.0992 20.0235 52.5182 20.9317C52.9065 21.7734 53.2575 22.6438 53.5618 23.5187C53.8903 24.4634 53.3906 25.4954 52.446 25.8238C52.1843 25.9147 51.9161 25.9422 51.6578 25.9143Z" fill="#C8EFFE"/>
<path d="M47.6944 31.5653C47.531 28.6517 46.5735 25.8478 44.9257 23.4563C44.3583 22.6329 43.2306 22.4253 42.4072 22.9926C42.0749 23.2215 41.845 23.542 41.7236 23.8965C42.3283 23.8678 42.9337 24.1408 43.3023 24.6759C44.9502 27.0673 45.9076 29.8714 46.071 32.7848C46.0846 33.0264 46.0493 33.2593 45.9752 33.4747C45.9794 33.4745 45.9836 33.4749 45.9879 33.4747C45.9924 33.4745 45.9969 33.4743 46.0016 33.4739C46.9932 33.4109 47.7502 32.5593 47.6944 31.5653Z" fill="#62DBFB"/>
<path d="M53.5616 23.5187C53.2573 22.6438 52.9063 21.7734 52.518 20.9317C52.0991 20.0236 51.0233 19.627 50.1151 20.0458C49.7161 20.2299 49.416 20.5409 49.2402 20.9087C49.8804 20.9515 50.4778 21.3338 50.7656 21.9573C51.1538 22.799 51.5049 23.6695 51.8091 24.5443C51.9721 25.0131 51.9308 25.5031 51.7328 25.9182C51.9678 25.9338 52.2093 25.9059 52.4458 25.8237C53.3905 25.4954 53.8901 24.4633 53.5616 23.5187Z" fill="#99E6FC"/>
<path d="M44.8008 9.79024L32.0252 0.326539C31.1514 -0.143682 30.2293 -0.0716099 29.4981 0.332334C29.3092 0.442314 29.0959 0.556398 28.7558 0.928833L28.7564 0.929316C28.4648 1.26336 28.2527 1.66851 28.1572 2.11519C28.1633 2.12968 28.1657 2.13692 28.1657 2.13692C28.1657 2.13692 28.8188 1.55624 30.2325 2.07897C30.2826 2.09756 30.3283 2.11266 30.3716 2.12581L40.7182 9.79024C41.7644 10.6259 42.6411 11.7483 42.6368 13.0141C42.6324 14.2713 41.799 15.3366 40.7182 16.2122L30.2327 23.9795C30.2326 23.9795 30.2326 23.9795 30.2325 23.9796C28.8598 24.489 28.2031 23.9542 28.1669 23.9228C28.2798 24.422 28.5392 24.8682 28.8926 25.2184C29.151 25.4256 28.9526 25.3451 29.5413 25.6937C30.2654 26.0767 31.1686 26.1368 32.0251 25.6759L44.8006 16.2122C45.8814 15.3366 46.7149 14.2714 46.7192 13.0141C46.7235 11.7483 45.847 10.6259 44.8008 9.79024Z" fill="#FFA07A"/>
</g>
<defs>
<clipPath id="clip0">
<rect width="60" height="60" fill="white"/>
</clipPath>
</defs>
</svg>
