<svg width="60" height="60" viewBox="0 0 60 60" fill="none" xmlns="http://www.w3.org/2000/svg">
<g clip-path="url(#clip0)">
<path d="M12.4938 53.5752L12.0469 53.6924C16.9635 57.6381 23.2055 59.9999 30.0001 59.9999C36.7948 59.9999 43.0368 57.6381 47.9534 53.6924L47.5064 53.5752H12.4938Z" fill="#D88A55"/>
<path d="M30 2.57812C14.1434 2.57812 1.28906 15.4324 1.28906 31.2891C1.28906 38.028 3.61184 44.224 7.49918 49.1222L8.0502 49.2394H51.9497L52.5007 49.1222C56.3882 44.224 58.7109 38.028 58.7109 31.2891C58.7109 15.4324 45.8566 2.57812 30 2.57812Z" fill="#FFE5C2"/>
<path d="M25.6641 40.0078H34.3359V45.4683H25.6641V40.0078Z" fill="#838383"/>
<path d="M25.6641 40.0078H29.1797V45.4683H25.6641V40.0078Z" fill="#5A5A5A"/>
<path d="M40.3125 49.2394V46.5234C40.3125 45.8762 39.7879 45.3516 39.1406 45.3516H20.8594C20.2121 45.3516 19.6875 45.8762 19.6875 46.5234V49.2394H40.3125Z" fill="#9C9C9C"/>
<path d="M26.7188 45.3516H20.8594C20.2121 45.3516 19.6875 45.8762 19.6875 46.5234V49.2394H25.5469V46.5234C25.5469 45.8762 26.0715 45.3516 26.7188 45.3516Z" fill="#838383"/>
<path d="M12.0466 53.6924H47.9532C49.634 52.3436 51.1609 50.8104 52.5008 49.1221H7.49902C8.83895 50.8104 10.3657 52.3436 12.0466 53.6924Z" fill="#FFBD86"/>
<path d="M15.3564 51.0643C14.6162 50.4524 13.9073 49.8039 13.232 49.1221H7.49902C8.83895 50.8104 10.3657 52.3436 12.0466 53.6924H47.9532C48.8684 52.9579 49.7361 52.1671 50.5546 51.328H16.0977C15.8277 51.328 15.5646 51.2364 15.3564 51.0643Z" fill="#F6A96C"/>
<path d="M50.7422 12H9.25781C8.61059 12 8.08594 12.5246 8.08594 13.1719V29.8012C9.30223 28.9407 10.7849 28.4331 12.3848 28.4331C16.4999 28.4331 19.8478 31.7809 19.8478 35.8961C19.8478 37.4653 19.3598 38.9222 18.5292 40.1251H50.7422C51.3894 40.1251 51.9141 39.6005 51.9141 38.9532V13.172C51.9141 12.5246 51.3894 12 50.7422 12Z" fill="#9C9C9C"/>
<path d="M49.5703 13.7578H10.4297C10.1061 13.7578 9.84375 14.0202 9.84375 14.3438V28.8791C10.6372 28.5908 11.4929 28.4331 12.3848 28.4331C16.4999 28.4331 19.8478 31.7809 19.8478 35.8961C19.8478 35.9388 19.8454 35.981 19.8445 36.0236H24.8564L24.9736 35.9064V22.5518C24.9736 21.1103 26.1463 19.9376 27.5878 19.9376H45.0686C46.51 19.9376 47.6828 21.1103 47.6828 22.5518V35.9062L47.8 36.0234H49.5703C49.8939 36.0234 50.1562 35.7611 50.1562 35.4375V14.3438C50.1562 14.0202 49.8939 13.7578 49.5703 13.7578Z" fill="#D8ECFE"/>
<path d="M12.3848 28.3164C12.7153 28.3164 13.0402 28.3398 13.3594 28.3809V24.9941H9.84375V28.7542C10.6383 28.4716 11.4933 28.3164 12.3848 28.3164Z" fill="#B3DAFE"/>
<path d="M24.9736 22.5525C24.9736 21.111 26.1463 19.9383 27.5878 19.9383H30.1758V18.094C30.1758 17.4739 30.6411 16.9621 31.2581 16.9035L31.4525 16.8851L31.3448 16.7222C30.9638 16.146 30.7173 15.4786 30.6321 14.7921L30.6195 14.6894H29.6354C28.6853 14.6894 27.9122 13.9163 27.9122 12.9661V11.6194C27.9122 11.1771 28.0809 10.756 28.3874 10.4336L28.4196 10.3997V8.62305H6.09152C5.38078 8.62305 4.80469 9.19914 4.80469 9.90988V23.7075C4.80469 24.4183 5.38078 24.9944 6.09152 24.9944H18.0763C18.405 24.9944 18.7185 25.1324 18.9405 25.3748L22.2785 29.0196C22.5164 29.2793 22.9493 29.1111 22.9493 28.7589V25.5803C22.9493 25.2568 23.2117 24.9944 23.5352 24.9944H24.9736V22.5525Z" fill="#0182FC"/>
<path d="M9.49219 23.7075V9.90988C9.49219 9.19914 10.0683 8.62305 10.779 8.62305H6.09152C5.38078 8.62305 4.80469 9.19914 4.80469 9.90988V23.7075C4.80469 24.4183 5.38078 24.9944 6.09152 24.9944H10.779C10.0683 24.9944 9.49219 24.4183 9.49219 23.7075Z" fill="#0172FB"/>
<path d="M32.4384 20.2766C32.4384 20.0913 32.5883 19.9407 32.7731 19.9388L32.7764 19.8213H27.5869C26.0784 19.8213 24.8555 21.0441 24.8555 22.5527V36.0243H32.3211L32.4383 35.977V20.2766H32.4384Z" fill="white"/>
<path d="M45.0675 19.8213H39.8779L39.8812 19.9388C40.0661 19.9407 40.216 20.0913 40.216 20.2766V35.9769L40.3332 36.0242H47.799V22.5526C47.7989 21.0441 46.576 19.8213 45.0675 19.8213Z" fill="white"/>
<path d="M30.0352 19.8213H27.5869C26.0784 19.8213 24.8555 21.0441 24.8555 22.5527V36.0243H27.3038V22.5526C27.3038 21.0441 28.5266 19.8213 30.0352 19.8213Z" fill="#F8F6F6"/>
<path d="M29.6338 9.8959H30.5944V9.24023C30.5944 8.77875 30.9697 8.4034 31.4311 8.4034H34.4652C36.0941 8.4034 37.5581 7.49672 38.2857 6.03727C38.4203 5.76738 38.7101 5.59301 39.0241 5.59301H39.6855C40.9942 5.59301 42.0588 6.65766 42.0588 7.96629V9.89602H43.0194C43.5561 9.89602 44.0361 10.1428 44.3524 10.5288V7.15277C44.3524 3.20238 41.15 0 37.1996 0H35.4536C31.5032 0 28.3008 3.20238 28.3008 7.15277V10.5287C28.6171 10.1428 29.0971 9.8959 29.6338 9.8959Z" fill="#883F2E"/>
<path d="M29.6338 9.8959H30.5944V9.24023C30.5944 8.77875 30.9697 8.4034 31.4311 8.4034H33.1656V7.15277C33.1656 3.73828 35.5589 0.884414 38.7589 0.1725C38.2568 0.0608203 37.7355 0 37.1996 0H35.4536C31.5032 0 28.3008 3.20238 28.3008 7.15277V10.5287C28.6171 10.1428 29.0971 9.8959 29.6338 9.8959Z" fill="#6D3326"/>
<path d="M44.3651 23.5146L40.8417 17.3135C40.0149 18.1998 38.8379 18.7554 37.5332 18.7554H35.122C33.8173 18.7554 32.6404 18.1996 31.8135 17.3135L28.2901 23.5146C28.1404 23.731 28.1987 24.0283 28.4193 24.1721L30.8553 25.7606L28.5947 27.2669C28.3927 27.4016 28.3319 27.671 28.4563 27.8792L32.4389 34.5438V20.2762C32.4389 20.0898 32.5906 19.9381 32.777 19.9381H39.8786C40.065 19.9381 40.2167 20.0898 40.2167 20.2762V34.5438L44.1993 27.8792C44.3237 27.6709 44.2629 27.4014 44.061 27.2669L41.8004 25.7606L44.2364 24.1721C44.4564 24.0283 44.5149 23.731 44.3651 23.5146Z" fill="#EAF6FF"/>
<path d="M39.8781 19.8213H32.7766C32.5252 19.8213 32.3213 20.0251 32.3213 20.2766V36.0243H40.3333V20.2764C40.3333 20.0251 40.1295 19.8213 39.8781 19.8213Z" fill="#8AC9FE"/>
<path d="M35.5664 28.3604H37.0898V36.0242H35.5664V28.3604Z" fill="#838383"/>
<path d="M41.2841 16.7803H41.2702C40.8254 17.4295 40.2165 17.9575 39.5033 18.3037H41.0741V23.3428C41.0741 25.3338 39.4542 26.9537 37.4632 26.9537H35.1929C33.2018 26.9537 31.582 25.3338 31.582 23.3428V18.3037H33.1528C32.4396 17.9575 31.8307 17.4295 31.386 16.7803H31.372C30.6478 16.7803 30.0586 17.3695 30.0586 18.0937V23.3428C30.0586 26.1739 32.3619 28.4771 35.1929 28.4771H37.4632C40.2943 28.4771 42.5975 26.1739 42.5975 23.3428V18.0937C42.5975 17.3696 42.0083 16.7803 41.2841 16.7803Z" fill="#9C9C9C"/>
<path d="M30.595 14.2294V9.7793H29.6344C28.6179 9.7793 27.7939 10.6032 27.7939 11.6197V12.9664C27.7939 13.9829 28.6179 14.8069 29.6344 14.8069H30.6331C30.6089 14.6176 30.595 14.4251 30.595 14.2294Z" fill="#F6A96C"/>
<path d="M43.0202 9.7793H42.0596V14.2294C42.0596 14.4251 42.0457 14.6176 42.0215 14.8069H43.0202C44.0366 14.8069 44.8606 13.9829 44.8606 12.9664V11.6197C44.8606 10.6032 44.0365 9.7793 43.0202 9.7793Z" fill="#FFBD86"/>
<path d="M38.7195 19.5479V18.5967C38.3411 18.6996 37.9434 18.7556 37.5328 18.7556H35.1217C34.7111 18.7556 34.3136 18.6996 33.935 18.5967V19.5479C33.935 19.6987 33.8127 19.8211 33.6619 19.8211H33.1406L36.095 24.5852C36.2019 24.7575 36.4525 24.7575 36.5593 24.5852L39.5138 19.8211H38.9925C38.8418 19.8211 38.7195 19.6987 38.7195 19.5479Z" fill="#FFBD86"/>
<path d="M36.1003 19.8211C36.2511 19.8211 36.3735 19.6987 36.3735 19.5479V18.7556H35.1217C34.7111 18.7556 34.3136 18.6996 33.935 18.5967V19.5479C33.935 19.6987 33.8127 19.8211 33.6619 19.8211H33.1406L36.095 24.5852C36.2019 24.7575 36.4525 24.7575 36.5593 24.5852L37.5464 22.9934L35.5791 19.8209H36.1003V19.8211Z" fill="#F6A96C"/>
<path d="M39.6859 5.47559H39.0245C38.6707 5.47559 38.3391 5.66812 38.1812 5.98477C37.5012 7.34871 36.0933 8.28609 34.4655 8.28609H31.4314C30.9046 8.28609 30.4775 8.71324 30.4775 9.24V14.2288C30.4775 16.7936 32.5567 18.8726 35.1213 18.8726H37.5325C40.0972 18.8726 42.1763 16.7934 42.1763 14.2288V7.96605C42.1764 6.59062 41.0613 5.47559 39.6859 5.47559Z" fill="#FED2A4"/>
<path d="M32.9285 14.2288V9.24004C32.9285 8.71316 33.3557 8.28613 33.8824 8.28613H31.4314C30.9046 8.28613 30.4775 8.71328 30.4775 9.24004V14.2288C30.4775 16.7935 32.5567 18.8726 35.1213 18.8726H37.5325C37.5391 18.8726 37.5457 18.8721 37.5524 18.8721C34.9969 18.8614 32.9285 16.7868 32.9285 14.2288Z" fill="#FFBD86"/>
<path d="M33.3486 12.1084C32.8632 12.1084 32.4697 11.715 32.4697 11.2295V10.3008C32.4697 9.81527 32.8632 9.42188 33.3486 9.42188C33.834 9.42188 34.2275 9.81527 34.2275 10.3008V11.2295C34.2275 11.715 33.834 12.1084 33.3486 12.1084Z" fill="#D88A55"/>
<path d="M39.2227 12.1084C38.7373 12.1084 38.3438 11.715 38.3438 11.2295V10.3008C38.3438 9.81527 38.7373 9.42188 39.2227 9.42188C39.708 9.42188 40.1016 9.81527 40.1016 10.3008V11.2295C40.1016 11.715 39.708 12.1084 39.2227 12.1084Z" fill="#D88A55"/>
<path d="M36.4838 17.2539C35.5366 17.2539 34.6456 16.8848 33.9752 16.2141C33.632 15.8709 33.632 15.3144 33.9752 14.9712C34.3184 14.6281 34.875 14.628 35.2181 14.9714C35.5567 15.3098 36.0061 15.4962 36.4837 15.4962C36.9614 15.4962 37.4108 15.3098 37.7493 14.9714C38.0926 14.628 38.6491 14.6281 38.9922 14.9712C39.3355 15.3145 39.3355 15.871 38.9922 16.2141C38.3219 16.8848 37.4311 17.2539 36.4838 17.2539Z" fill="#D88A55"/>
<path d="M36.9251 14.0756H36.3259C35.6761 14.0756 35.1475 13.5469 35.1475 12.8971V11.499C35.1475 11.0135 35.541 10.6201 36.0264 10.6201C36.5118 10.6201 36.9053 11.0135 36.9053 11.499V12.3177H36.9251C37.4105 12.3177 37.804 12.7111 37.804 13.1966C37.804 13.6821 37.4105 14.0756 36.9251 14.0756Z" fill="#D88A55"/>
<path d="M12.3848 43.4767C16.5712 43.4767 19.965 40.083 19.965 35.8966C19.965 31.7102 16.5712 28.3164 12.3848 28.3164C8.19844 28.3164 4.80469 31.7102 4.80469 35.8966C4.80469 40.083 8.19844 43.4767 12.3848 43.4767Z" fill="#22B27F"/>
<path d="M8.51168 35.8966C8.51168 32.3497 10.9481 29.3727 14.2383 28.5456C13.645 28.3964 13.0243 28.3164 12.3848 28.3164C8.19844 28.3165 4.80469 31.7103 4.80469 35.8966C4.80469 40.083 8.19844 43.4767 12.3848 43.4767C13.0243 43.4767 13.6451 43.3967 14.2383 43.2475C10.948 42.4205 8.51168 39.4435 8.51168 35.8966Z" fill="#09A76D"/>
<path d="M15.9021 34.5252H13.9871C13.8596 34.5252 13.7562 34.4219 13.7562 34.2944V32.3793C13.7562 32.2518 13.6528 32.1484 13.5252 32.1484H11.2446C11.1171 32.1484 11.0136 32.2518 11.0136 32.3793V34.2944C11.0136 34.4219 10.9103 34.5252 10.7827 34.5252H8.8677C8.7402 34.5252 8.63672 34.6286 8.63672 34.7562V37.0369C8.63672 37.1644 8.74008 37.2679 8.8677 37.2679H10.7828C10.9103 37.2679 11.0137 37.3712 11.0137 37.4989V39.4138C11.0137 39.5413 11.1171 39.6448 11.2447 39.6448H13.5254C13.6529 39.6448 13.7564 39.5414 13.7564 39.4138V37.4989C13.7564 37.3714 13.8598 37.2679 13.9874 37.2679H15.9023C16.0298 37.2679 16.1333 37.1645 16.1333 37.0369V34.7562C16.1331 34.6286 16.0296 34.5252 15.9021 34.5252Z" fill="white"/>
<path d="M12.4516 38.4377C12.3241 38.4377 12.2207 38.3343 12.2207 38.2068V36.2918C12.2207 36.1643 12.1173 36.0609 11.9897 36.0609H10.0748C9.94734 36.0609 9.84387 35.9575 9.84387 35.8299V34.5254H8.8677C8.7402 34.5254 8.63672 34.6288 8.63672 34.7564V37.0371C8.63672 37.1646 8.74008 37.268 8.8677 37.268H10.7827C10.9102 37.268 11.0136 37.3714 11.0136 37.4989V39.414C11.0136 39.5415 11.117 39.6448 11.2445 39.6448H13.5252C13.6527 39.6448 13.7562 39.5415 13.7562 39.414V38.4377H12.4516Z" fill="#F8F6F6"/>
<path d="M17.3438 14.2207H9.60938C9.12398 14.2207 8.73047 13.8273 8.73047 13.3418C8.73047 12.8563 9.12398 12.4629 9.60938 12.4629H17.3438C17.8291 12.4629 18.2227 12.8563 18.2227 13.3418C18.2227 13.8273 17.8291 14.2207 17.3438 14.2207Z" fill="white"/>
<path d="M22.0312 17.71H9.60938C9.12398 17.71 8.73047 17.3166 8.73047 16.8311C8.73047 16.3455 9.12398 15.9521 9.60938 15.9521H22.0312C22.5166 15.9521 22.9102 16.3455 22.9102 16.8311C22.9102 17.3166 22.5166 17.71 22.0312 17.71Z" fill="white"/>
<path d="M22.0312 21.2002H9.60938C9.12398 21.2002 8.73047 20.8068 8.73047 20.3213C8.73047 19.8358 9.12398 19.4424 9.60938 19.4424H22.0312C22.5166 19.4424 22.9102 19.8358 22.9102 20.3213C22.9102 20.8068 22.5166 21.2002 22.0312 21.2002Z" fill="white"/>
</g>
<defs>
<clipPath id="clip0">
<rect width="60" height="60" fill="white"/>
</clipPath>
</defs>
</svg>
