<svg width="60" height="60" viewBox="0 0 60 60" fill="none" xmlns="http://www.w3.org/2000/svg">
<g clip-path="url(#clip0)">
<path d="M4.72802 30.6908L6.58208 32.5449L17.9853 44.4732L27.0782 51.6519L33.2692 48.6735C37.4938 52.5745 43.2923 46.7691 39.3932 42.5495L24.9724 25.0429L4.71665 7.87305C-1.57594 14.1781 -1.57228 24.3905 4.72802 30.6908Z" fill="#FFCFBC"/>
<path d="M29.4957 9.79898L27.5574 7.86073C21.2499 1.55244 11.0176 1.55732 4.7168 7.87251L39.3932 42.5489C43.618 46.4468 49.4161 40.6522 45.5173 36.4249C48.7117 39.5536 53.9056 36.449 52.7508 32.2025L48.4228 14.8006L29.4957 9.79898Z" fill="#FFB89B"/>
<path d="M32.3667 6.92803C30.9978 8.29694 26.6899 12.6048 25.2549 14.0398L27.8418 16.6267C30.6382 19.4249 35.1734 19.4187 37.9673 16.6267L42.532 21.1914L50.3374 16.1408L55.909 7.81438C50.4775 1.62196 40.6112 -0.68989 32.3667 6.92803Z" fill="#FFA07A"/>
<path d="M42.5312 21.1915L51.6407 30.301C52.1881 30.8484 52.5573 31.5062 52.7503 32.2027L55.1953 29.7576C62.1164 22.2633 60.8414 13.4385 55.9083 7.81445L42.5312 21.1915Z" fill="#FF8756"/>
<path d="M19.614 44.1094C19.5507 44.1661 19.4883 44.2246 19.4276 44.2856C19.3738 44.3457 19.3184 44.405 19.2607 44.4628L19.614 44.1094Z" fill="#FFD8C1"/>
<path d="M19.2607 44.4624C19.3185 44.4046 19.3739 44.3454 19.4276 44.2852C19.3708 44.3424 19.315 44.4013 19.2607 44.4624Z" fill="#FFD8C1"/>
<path d="M17.7294 45.9941C17.6716 46.0519 17.6162 46.1111 17.5625 46.1713C17.6194 46.1141 17.6751 46.0552 17.7294 45.9941Z" fill="#FFD8C1"/>
<path d="M19.2292 45.9083C19.2292 45.9083 19.3703 44.3427 19.4271 44.2855C20.9489 42.5852 20.8935 39.9719 19.2602 38.3386C17.5691 36.6475 14.8272 36.6475 13.1362 38.3386L13.7485 37.7262C15.4396 36.0351 15.4396 33.2934 13.7485 31.6023C12.0575 29.9112 9.31569 29.9112 7.62448 31.6023L5.8894 33.3374C4.19832 35.0285 4.19832 37.7702 5.8894 39.4614C7.58049 41.1526 10.3222 41.1525 12.0133 39.4614L11.4009 40.0738C9.70987 41.7649 9.70987 44.5068 11.4009 46.1979C13.108 47.9174 15.8828 47.8609 17.5621 46.1709C17.6161 46.1107 19.2292 45.9083 19.2292 45.9083Z" fill="#FFB89B"/>
<path d="M27.2211 48.7491L25.5881 50.3821C27.2792 48.691 27.2792 45.9492 25.5881 44.2582C23.9428 42.6008 21.3057 42.5939 19.6134 44.1089L19.2599 44.4623L17.729 45.9932C17.6747 46.0543 17.6189 46.1132 17.5621 46.1704C16.0403 47.8707 16.0957 50.4839 17.729 52.1173C19.4201 53.8084 22.1618 53.8084 23.8529 52.1173L25.4859 50.4843C23.7948 52.1754 23.7948 54.9171 25.4859 56.6083C27.177 58.2994 29.9188 58.2994 31.61 56.6083L33.3452 54.8731C35.0363 53.1821 35.0363 50.4403 33.3452 48.7491C31.654 47.058 28.9122 47.058 27.2211 48.7491Z" fill="#FFA07A"/>
</g>
<defs>
<clipPath id="clip0">
<rect width="60" height="60" fill="white"/>
</clipPath>
</defs>
</svg>
