<svg width="75" height="75" viewBox="0 0 75 75" fill="none" xmlns="http://www.w3.org/2000/svg">
<g clip-path="url(#clip0)">
<path d="M37.5001 17.8291C26.6535 17.8291 17.8291 26.6535 17.8291 37.5001C17.8291 48.3466 26.6535 57.1708 37.5001 57.1708C48.3467 57.1708 57.171 48.3465 57.171 37.4999C57.171 26.6533 48.3467 17.8291 37.5001 17.8291Z" fill="#8C70C2"/>
<path d="M37.4999 21.5176C28.687 21.5176 21.5173 28.6875 21.5173 37.5002C21.5173 46.3128 28.687 53.4828 37.4999 53.4828C46.3129 53.4828 53.4825 46.3128 53.4825 37.5002C53.4825 28.6875 46.3127 21.5176 37.4999 21.5176Z" fill="#A38DCE"/>
<path d="M33.8116 5.53501C33.8116 3.498 35.463 1.84668 37.5 1.84668C39.537 1.84668 41.1883 3.498 41.1883 5.53501C41.1883 7.07998 39.0665 11.2322 38.0415 13.1478C37.8099 13.5807 37.1902 13.5807 36.9584 13.1478C35.9335 11.2321 33.8116 7.07983 33.8116 5.53501Z" fill="#FDC572"/>
<path d="M12.289 17.5052C10.8486 16.0649 10.8486 13.7295 12.289 12.2892C13.7293 10.849 16.0647 10.8488 17.505 12.2892C18.5975 13.3817 20.0332 17.8181 20.6629 19.8975C20.8051 20.3674 20.3668 20.8057 19.8971 20.6633C17.8179 20.0334 13.3816 18.5977 12.289 17.5052Z" fill="#FDC572"/>
<path d="M5.53478 41.1887C3.49777 41.1887 1.84645 39.5374 1.84645 37.5003C1.84645 35.4633 3.49777 33.812 5.53478 33.812C7.07975 33.812 11.232 35.9338 13.1476 36.9588C13.5804 37.1904 13.5804 37.8102 13.1476 38.0419C11.232 39.0669 7.0799 41.1887 5.53478 41.1887Z" fill="#FDC572"/>
<path d="M17.505 62.7107C16.0646 64.1511 13.7292 64.1511 12.289 62.7107C10.8486 61.2704 10.8486 58.935 12.289 57.4947C13.3814 56.4022 17.8179 54.9666 19.8972 54.3368C20.3671 54.1946 20.8054 54.6329 20.663 55.1026C20.0335 57.182 18.5976 61.6183 17.505 62.7107Z" fill="#FDC572"/>
<path d="M41.1883 69.4653C41.1883 71.5023 39.537 73.1536 37.5 73.1536C35.463 73.1536 33.8116 71.5023 33.8116 69.4653C33.8116 67.9203 35.9335 63.7681 36.9584 61.8525C37.19 61.4196 37.8098 61.4196 38.0415 61.8525C39.0663 63.7679 41.1883 67.9202 41.1883 69.4653Z" fill="#FDC572"/>
<path d="M62.7109 57.4949C64.1513 58.9353 64.1513 61.2707 62.7109 62.7109C61.2705 64.1513 58.9351 64.1513 57.4949 62.7109C56.4024 61.6185 54.9667 57.182 54.337 55.1027C54.1947 54.6328 54.633 54.1945 55.1028 54.3369C57.182 54.9667 61.6184 56.4024 62.7109 57.4949Z" fill="#FDC572"/>
<path d="M69.4652 33.812C71.5022 33.812 73.1535 35.4633 73.1535 37.5003C73.1535 39.5374 71.5022 41.1887 69.4652 41.1887C67.9202 41.1887 63.768 39.0669 61.8524 38.0419C61.4195 37.8103 61.4195 37.1905 61.8524 36.9588C63.768 35.9337 67.9202 33.812 69.4652 33.812Z" fill="#FDC572"/>
<path d="M57.4948 12.2893C58.9352 10.8489 61.2706 10.8489 62.7108 12.2893C64.151 13.7297 64.1512 16.0651 62.7108 17.5053C61.6183 18.5978 57.1819 20.0335 55.1025 20.6632C54.6326 20.8054 54.1943 20.3672 54.3367 19.8974C54.9666 17.818 56.4023 13.3818 57.4948 12.2893Z" fill="#FDC572"/>
<path d="M25.7374 10.2554C24.7939 10.2554 24.2433 9.07375 24.8607 8.35452C25.5231 7.58284 26.8587 8.05276 26.8886 9.07112C26.9074 9.70715 26.3742 10.2554 25.7374 10.2554Z" fill="#D1C6E7"/>
<path d="M28.5612 17.0717C28.1089 17.0717 27.6797 16.8037 27.496 16.3597L26.555 14.0881C26.3114 13.4999 26.5906 12.8258 27.1787 12.5822C27.7667 12.3386 28.441 12.6177 28.6846 13.2059L29.6256 15.4776C29.9342 16.2225 29.3708 17.0717 28.5612 17.0717Z" fill="#D1C6E7"/>
<path d="M23.8561 5.71336C23.4038 5.71336 22.9746 5.44544 22.7909 5.00145L21.3795 1.59393C21.1359 1.00579 21.4151 0.331674 22.0033 0.0880701C22.5913 -0.155533 23.2655 0.123519 23.5091 0.711801L24.9205 4.11932C25.2291 4.86419 24.6658 5.71336 23.8561 5.71336Z" fill="#D1C6E7"/>
<path d="M9.10465 26.8897C8.59943 26.8897 8.14474 26.5499 8.00046 26.0666C7.85881 25.5922 8.0444 25.0648 8.45426 24.7859C9.31999 24.1971 10.4945 25.0275 10.2134 26.0436C10.077 26.5373 9.61808 26.8897 9.10465 26.8897Z" fill="#D1C6E7"/>
<path d="M15.9185 29.7137C15.7714 29.7137 15.622 29.6854 15.4778 29.6256L13.2061 28.6846C12.618 28.441 12.3388 27.7669 12.5824 27.1787C12.8259 26.5908 13.5003 26.311 14.0883 26.555L16.36 27.496C16.845 27.6969 17.1388 28.2183 17.058 28.7373C16.9715 29.2919 16.4802 29.7137 15.9185 29.7137Z" fill="#D1C6E7"/>
<path d="M4.55983 25.0088C4.41276 25.0088 4.26335 24.9805 4.11921 24.9208L0.711689 23.5092C0.123554 23.2656 -0.155645 22.5915 0.0879586 22.0034C0.331562 21.4154 1.00598 21.1358 1.59382 21.3797L5.00134 22.7912C5.58947 23.0348 5.86867 23.7089 5.62507 24.297C5.44138 24.7409 5.01218 25.0088 4.55983 25.0088Z" fill="#D1C6E7"/>
<path d="M9.10467 50.4153C8.63241 50.4153 8.19984 50.1174 8.02933 49.6772C7.84271 49.1949 8.00956 48.6257 8.43246 48.3253C9.23973 47.7519 10.3967 48.4427 10.2442 49.4315C10.1586 49.9877 9.66952 50.4153 9.10467 50.4153Z" fill="#D1C6E7"/>
<path d="M13.6477 48.5328C13.1953 48.5328 12.7661 48.2649 12.5824 47.8211C12.3388 47.2329 12.618 46.5588 13.2061 46.3152L15.4778 45.3742C16.0658 45.1306 16.7401 45.4097 16.9837 45.9979C17.2273 46.5861 16.9481 47.2602 16.36 47.5038L14.0883 48.4448C13.944 48.5046 13.7947 48.5328 13.6477 48.5328Z" fill="#D1C6E7"/>
<path d="M1.15313 53.7085C0.59122 53.7085 0.0999114 53.2869 0.0136321 52.732C-0.0672273 52.213 0.22662 51.6917 0.71163 51.4907L4.11915 50.0792C4.70728 49.8358 5.38141 50.1146 5.62501 50.7029C5.86861 51.2912 5.58941 51.9652 5.00128 52.2088L1.59376 53.6203C1.44962 53.6802 1.30006 53.7085 1.15313 53.7085Z" fill="#D1C6E7"/>
<path d="M25.7374 67.0492C25.6636 67.0492 25.5869 67.0416 25.513 67.0263C25.4392 67.0108 25.367 66.9894 25.2964 66.9603C25.2272 66.9311 25.1612 66.8955 25.0982 66.8542C25.0352 66.8129 24.9767 66.7651 24.923 66.7112C24.8692 66.6573 24.8216 66.599 24.78 66.5359C24.7386 66.4728 24.7031 66.4068 24.674 66.3377C24.6448 66.267 24.6233 66.1947 24.6079 66.1212C24.5925 66.0474 24.5849 65.9719 24.5849 65.8966C24.5849 65.5925 24.7078 65.2959 24.923 65.0806C24.9767 65.0283 25.0352 64.9792 25.0982 64.9376C25.1612 64.896 25.2272 64.8607 25.2964 64.8316C25.3671 64.8025 25.4393 64.7809 25.513 64.7655C25.888 64.6902 26.286 64.8131 26.5535 65.0806C26.7671 65.2958 26.8901 65.5924 26.8901 65.8966C26.8901 65.9719 26.884 66.0472 26.8686 66.1212C26.8532 66.1949 26.8317 66.2671 26.8025 66.3377C26.7734 66.4068 26.7379 66.4729 26.6965 66.5359C26.655 66.5989 26.6058 66.6573 26.5535 66.7112C26.4997 66.765 26.4413 66.8126 26.3783 66.8542C26.3153 66.8957 26.2476 66.9311 26.1785 66.9603C26.1094 66.9893 26.0371 67.0108 25.9633 67.0263C25.8895 67.0414 25.8127 67.0492 25.7374 67.0492Z" fill="#D1C6E7"/>
<path d="M27.6193 62.5057C26.8098 62.5057 26.2463 61.6567 26.555 60.9118L27.496 58.6402C27.7396 58.0522 28.4137 57.7724 29.0018 58.0164C29.59 58.26 29.8692 58.9342 29.6256 59.5223L28.6845 61.794C28.5009 62.2378 28.0717 62.5057 27.6193 62.5057Z" fill="#D1C6E7"/>
<path d="M22.4439 75C21.6344 75 21.0709 74.151 21.3795 73.4062L22.7909 69.9986C23.0345 69.4105 23.7085 69.1307 24.2967 69.3749C24.8849 69.6185 25.1641 70.2926 24.9205 70.8808L23.5091 74.2883C23.3254 74.732 22.8961 75 22.4439 75Z" fill="#D1C6E7"/>
<path d="M49.2625 67.0491C48.2481 67.0491 47.7285 65.7609 48.4671 65.0613C48.8392 64.7088 49.4137 64.6449 49.854 64.9076C50.2836 65.1639 50.5026 65.6906 50.3794 66.1759C50.2508 66.6817 49.7859 67.0491 49.2625 67.0491Z" fill="#D1C6E7"/>
<path d="M47.3806 62.5055C46.9282 62.5055 46.499 62.2376 46.3153 61.7938L45.3743 59.5221C45.1307 58.934 45.4099 58.2598 45.998 58.0162C46.5862 57.7728 47.2603 58.0517 47.5039 58.64L48.4449 60.9116C48.7534 61.6565 48.1899 62.5055 47.3806 62.5055Z" fill="#D1C6E7"/>
<path d="M52.5559 74.9998C52.1036 74.9998 51.6744 74.7318 51.4907 74.288L50.0793 70.8805C49.8357 70.2924 50.1149 69.6182 50.7031 69.3746C51.291 69.1312 51.9655 69.4101 52.2089 69.9984L53.6203 73.4059C53.9288 74.1506 53.3653 74.9998 52.5559 74.9998Z" fill="#D1C6E7"/>
<path d="M65.8966 50.4152C65.4153 50.4152 64.9732 50.1029 64.8112 49.6504C64.6426 49.1793 64.8064 48.6337 65.2093 48.3362C65.5965 48.0504 66.1356 48.0367 66.5359 48.3038C66.9444 48.5761 67.1378 49.0966 67.0058 49.5693C66.8686 50.0615 66.4099 50.4152 65.8966 50.4152Z" fill="#D1C6E7"/>
<path d="M61.3522 48.533C61.2052 48.533 61.0557 48.5047 60.9116 48.445L58.6399 47.504C58.0518 47.2603 57.7726 46.5862 58.0162 45.9981C58.2598 45.41 58.9342 45.1303 59.5221 45.3744L61.7937 46.3154C62.2787 46.5162 62.5726 47.0377 62.4917 47.5567C62.4054 48.1114 61.914 48.533 61.3522 48.533Z" fill="#D1C6E7"/>
<path d="M73.8465 53.7082C73.6995 53.7082 73.55 53.6799 73.4059 53.6201L69.9984 52.2086C69.4102 51.965 69.131 51.2909 69.3746 50.7028C69.6183 50.1146 70.2927 49.8348 70.8805 50.079L74.288 51.4905C74.773 51.6914 75.0669 52.2129 74.986 52.7319C74.8997 53.2866 74.4083 53.7082 73.8465 53.7082Z" fill="#D1C6E7"/>
<path d="M65.8967 26.8901C65.3912 26.8901 64.9368 26.5498 64.7916 26.067C64.6491 25.5937 64.8378 25.0641 65.2466 24.7863C66.111 24.1991 67.2891 25.0273 67.0072 26.044C66.8705 26.5375 66.4097 26.8901 65.8967 26.8901Z" fill="#D1C6E7"/>
<path d="M59.0814 29.7136C58.5044 29.7136 58.0043 29.269 57.9362 28.6961C57.8751 28.1821 58.1716 27.6994 58.641 27.4954C59.1748 27.2635 59.717 27.0496 60.2548 26.8268C60.4738 26.7362 60.6926 26.6455 60.9116 26.5548C61.4998 26.3113 62.1739 26.5903 62.4175 27.1785C62.6611 27.7668 62.3819 28.4408 61.7937 28.6844L59.5221 29.6254C59.3778 29.6852 59.2284 29.7136 59.0814 29.7136Z" fill="#D1C6E7"/>
<path d="M70.4399 25.0088C69.8779 25.0088 69.3866 24.5872 69.3004 24.0323C69.2195 23.5134 69.5133 22.9919 69.9984 22.791L73.4059 21.3795C73.9939 21.1361 74.6683 21.415 74.9117 22.0032C75.1553 22.5914 74.8761 23.2655 74.288 23.5091L70.8805 24.9206C70.7363 24.9805 70.5868 25.0088 70.4399 25.0088Z" fill="#D1C6E7"/>
<path d="M49.2626 10.2554C48.7998 10.2554 48.3753 9.97044 48.1976 9.54388C48.0015 9.07352 48.1494 8.5075 48.5525 8.19491C49.3317 7.59139 50.5106 8.22303 50.4092 9.21576C50.3501 9.79774 49.8489 10.2554 49.2626 10.2554Z" fill="#D1C6E7"/>
<path d="M46.4386 17.0716C45.6292 17.0716 45.0656 16.2226 45.3743 15.4777L46.3153 13.206C46.5589 12.618 47.2333 12.3384 47.8212 12.5823C48.4093 12.8259 48.6885 13.5 48.4449 14.0882L47.5039 16.3598C47.32 16.8035 46.8908 17.0716 46.4386 17.0716Z" fill="#D1C6E7"/>
<path d="M51.1435 5.7133C50.334 5.7133 49.7705 4.86428 50.0791 4.1194L51.4905 0.711883C51.7341 0.123895 52.4081 -0.155743 52.9964 0.088153C53.5845 0.331756 53.8637 1.00588 53.6201 1.59401L52.2087 5.00153C52.025 5.44509 51.5958 5.7133 51.1435 5.7133Z" fill="#D1C6E7"/>
<path d="M30.1232 46.0291C29.1153 46.0291 28.5983 44.7715 29.3083 44.0614L44.0615 29.3082C44.5117 28.8582 45.2414 28.8582 45.6914 29.3082C46.1416 29.7585 46.1416 30.4881 45.6914 30.9383L30.9383 45.6915C30.7133 45.9165 30.4184 46.0291 30.1232 46.0291Z" fill="white"/>
<path d="M43.647 46.029C41.6557 46.029 40.0356 44.4089 40.0356 42.4176C40.0356 40.4263 41.6557 38.8062 43.647 38.8062C45.6383 38.8062 47.2584 40.4263 47.2584 42.4176C47.2584 44.4089 45.6385 46.029 43.647 46.029ZM43.647 41.1112C42.9268 41.1112 42.3408 41.6972 42.3408 42.4174C42.3408 43.1377 42.9268 43.7238 43.647 43.7238C44.3673 43.7238 44.9532 43.1378 44.9532 42.4174C44.9534 41.6972 44.3674 41.1112 43.647 41.1112Z" fill="white"/>
<path d="M31.3527 36.1936C29.3614 36.1936 27.7413 34.5734 27.7413 32.5821C27.7413 30.5908 29.3614 28.9707 31.3527 28.9707C33.344 28.9707 34.9641 30.5908 34.9641 32.5821C34.9641 34.5734 33.3441 36.1936 31.3527 36.1936ZM31.3527 31.2758C30.6324 31.2758 30.0465 31.8617 30.0465 32.582C30.0465 33.3022 30.6324 33.8882 31.3527 33.8882C32.073 33.8882 32.6589 33.3022 32.6589 32.582C32.659 31.8619 32.073 31.2758 31.3527 31.2758Z" fill="white"/>
</g>
<defs>
<clipPath id="clip0">
<rect width="75" height="75" fill="white"/>
</clipPath>
</defs>
</svg>
