<svg width="75" height="75" viewBox="0 0 75 75" fill="none" xmlns="http://www.w3.org/2000/svg">
<path d="M65.5751 27.4985H9.42484C8.82852 27.4985 8.34503 27.9784 8.34503 28.5703V70.3687C8.34503 70.9606 8.82852 71.4405 9.42484 71.4405H65.5751C66.1714 71.4405 66.6549 70.9606 66.6549 70.3687V28.5703C66.6549 27.9783 66.1714 27.4985 65.5751 27.4985Z" fill="#D1C6E7"/>
<path d="M66.6549 28.5703C66.6549 27.9784 66.1714 27.4985 65.5751 27.4985H9.42484C8.82852 27.4985 8.34503 27.9784 8.34503 28.5703V35.9386H66.6549V28.5703Z" fill="#BAA9DA"/>
<path d="M70.9742 19.9961H4.02586C3.42953 19.9961 2.94604 20.476 2.94604 21.0678V32.8571C2.94604 33.449 3.42953 33.9289 4.02586 33.9289H70.9742C71.5706 33.9289 72.054 33.449 72.054 32.8571V21.0678C72.054 20.4758 71.5706 19.9961 70.9742 19.9961Z" fill="#A38DCE"/>
<path d="M70.9742 19.8623H4.02586C3.42953 19.8623 2.94604 20.3422 2.94604 20.9341V24.9531C2.94604 24.3613 3.42953 23.8814 4.02586 23.8814H70.9742C71.5706 23.8814 72.054 24.3613 72.054 24.9531V20.9341C72.054 20.342 71.5706 19.8623 70.9742 19.8623Z" fill="#957FC2"/>
<path d="M60.1019 7.91063C58.825 5.321 55.7521 4.04535 52.432 4.41376C51.3063 3.43847 49.8175 2.94157 48.1624 3.00548C46.3259 3.07635 44.4985 3.83716 43.0171 5.14791C41.007 6.92609 38.7586 12.2686 37.4999 15.5817C36.2413 12.2688 33.9928 6.92622 31.9828 5.14791C30.5013 3.83716 28.674 3.07635 26.8375 3.00548C25.1835 2.94157 23.694 3.4386 22.568 4.41376C19.2477 4.04535 16.1749 5.32087 14.898 7.91063C13.1598 11.4359 15.3974 16.0777 19.8859 18.2577C22.8863 19.7152 30.4166 19.9308 34.6114 19.9308C35.3598 19.9308 36.0002 19.9239 36.4918 19.916C36.4896 19.9425 36.4878 19.9691 36.4878 19.9961V38.216C36.4878 38.7709 36.9409 39.2207 37.5001 39.2207C38.0593 39.2207 38.5124 38.7709 38.5124 38.216V19.9961C38.5124 19.9691 38.5104 19.9425 38.5084 19.916C38.9998 19.9239 39.6401 19.9308 40.3887 19.9308C44.5838 19.9308 52.114 19.7151 55.1142 18.2577C59.6025 16.0777 61.8401 11.4359 60.1019 7.91063ZM52.282 9.51303C52.0724 10.8561 51.334 12.1473 50.2022 13.1484C48.6769 14.4979 43.8799 15.946 40.3295 16.8525C43.1061 13.3411 47.3185 8.43284 49.6995 7.27628C50.354 6.95837 51.0214 6.7242 51.6819 6.57027C52.2428 7.37301 52.4553 8.40163 52.282 9.51303ZM23.3178 6.5704C23.9784 6.72433 24.6459 6.95837 25.3004 7.27628C27.6815 8.43284 31.8942 13.3415 34.6707 16.8529C31.1207 15.9466 26.324 14.4988 24.7977 13.1484C23.6659 12.1471 22.9275 10.8561 22.7179 9.51303C22.5445 8.40163 22.7571 7.37314 23.3178 6.5704ZM44.3642 6.64797C45.496 5.64668 46.8727 5.06619 48.2411 5.01341C48.3081 5.01086 48.3745 5.00952 48.4406 5.00952C48.8307 5.00952 49.204 5.05507 49.5552 5.14255C49.3054 5.24276 49.0565 5.35114 48.8095 5.47105C46.5219 6.58219 43.1931 10.1999 40.5997 13.3132C41.7925 10.5163 43.2131 7.6664 44.3642 6.64797ZM26.5593 5.00966C26.6253 5.00966 26.6917 5.011 26.7588 5.01354C28.1272 5.06633 29.5039 5.64682 30.6357 6.6481C31.7868 7.66654 33.2074 10.5165 34.4002 13.3135C31.8068 10.2 28.478 6.58246 26.1904 5.47132C25.9434 5.35141 25.6945 5.24303 25.4446 5.14269C25.7959 5.05521 26.1692 5.00966 26.5593 5.00966ZM16.7164 8.79402C17.4646 7.27642 19.1504 6.42611 21.1315 6.35257C20.6709 7.38976 20.5229 8.57646 20.717 9.82049C20.9981 11.6233 21.9689 13.3379 23.4505 14.6486C24.8151 15.8559 27.8371 16.9837 30.7198 17.853C26.8215 17.7146 22.5976 17.3378 20.7758 16.4529C17.29 14.7597 15.4691 11.3239 16.7164 8.79402ZM54.2239 16.4529C52.4028 17.3374 48.1777 17.7148 44.2794 17.8532C47.1622 16.9838 50.1845 15.8561 51.5491 14.6486C53.0307 13.338 54.0015 11.6233 54.2827 9.82049C54.4768 8.57605 54.3285 7.38895 53.8677 6.35149C55.8492 6.42491 57.5349 7.27615 58.2834 8.79402C59.5308 11.3239 57.7098 14.7597 54.2239 16.4529Z" fill="#7B5FB2"/>
<path d="M37.5 37.144C28.5689 37.144 21.3028 44.3559 21.3028 53.2204C21.3028 62.0848 28.5689 69.2967 37.5 69.2967C46.4311 69.2967 53.6972 62.0848 53.6972 53.2204C53.6972 44.3559 46.4311 37.144 37.5 37.144Z" fill="#EE6482"/>
<path d="M37.5 69.2967C45.6747 69.2967 52.4534 63.2543 53.5431 55.4333C53.1356 46.9887 46.1089 40.2661 37.5 40.2661C28.8911 40.2661 21.8645 46.9886 21.457 55.4332C22.5466 63.2543 29.3253 69.2967 37.5 69.2967Z" fill="#F1819A"/>
<path d="M31.021 60.6557C30.1359 60.6557 29.6815 59.5594 30.3051 58.9405L43.2629 46.0795C43.6584 45.6871 44.2992 45.6871 44.6946 46.0795C45.0899 46.4718 45.0899 47.1081 44.6946 47.5003L31.7368 60.3614C31.5392 60.5575 31.2801 60.6557 31.021 60.6557Z" fill="white"/>
<path d="M42.8991 60.6559C41.1501 60.6559 39.7272 59.2436 39.7272 57.5077C39.7272 55.7717 41.1501 54.3594 42.8991 54.3594C44.6481 54.3594 46.0711 55.7717 46.0711 57.5077C46.0711 59.2436 44.6481 60.6559 42.8991 60.6559ZM42.8991 56.3689C42.2665 56.3689 41.7518 56.8797 41.7518 57.5077C41.7518 58.1356 42.2665 58.6464 42.8991 58.6464C43.5318 58.6464 44.0464 58.1356 44.0464 57.5077C44.0464 56.8797 43.5318 56.3689 42.8991 56.3689Z" fill="white"/>
<path d="M32.1009 52.0817C30.3519 52.0817 28.929 50.6694 28.929 48.9334C28.929 47.1975 30.3519 45.7852 32.1009 45.7852C33.8499 45.7852 35.2729 47.1975 35.2729 48.9334C35.2729 50.6694 33.8499 52.0817 32.1009 52.0817ZM32.1009 47.7947C31.4683 47.7947 30.9536 48.3055 30.9536 48.9334C30.9536 49.5613 31.4683 50.0722 32.1009 50.0722C32.7335 50.0722 33.2482 49.5613 33.2482 48.9334C33.2482 48.3055 32.7335 47.7947 32.1009 47.7947Z" fill="white"/>
</svg>
