<svg width="75" height="75" viewBox="0 0 75 75" fill="none" xmlns="http://www.w3.org/2000/svg">
<path d="M69.1078 70H5.89208C5.329 70 4.87247 69.5435 4.87247 68.9804V29.2157L36.8882 5.20389C37.2507 4.93204 37.7492 4.93204 38.1117 5.20389L70.1274 29.2157V68.9804C70.1274 69.5435 69.6709 70 69.1078 70Z" fill="#8C70C2"/>
<path d="M54.4255 22.2825L38.1118 10.0472C37.7492 9.77522 37.2507 9.77535 36.8882 10.0472L20.5745 22.2825C20.3177 22.4751 20.1667 22.7773 20.1667 23.0982V62.8629C20.1667 63.426 20.6232 63.8826 21.1863 63.8826H53.8138C54.3768 63.8826 54.8334 63.426 54.8334 62.8629V23.0982C54.8334 22.7773 54.6822 22.4751 54.4255 22.2825ZM37.5 18.0002C38.6244 18.0002 39.5392 18.915 39.5392 20.0394C39.5392 21.1637 38.6244 22.0786 37.5 22.0786C36.3756 22.0786 35.4608 21.1637 35.4608 20.0394C35.4608 18.915 36.3756 18.0002 37.5 18.0002Z" fill="#FDC572"/>
<path d="M20.1667 56.8342V62.8629C20.1667 63.4259 20.6232 63.8825 21.1863 63.8825H53.8138C54.3768 63.8825 54.8334 63.4259 54.8334 62.8629V35.1675L20.1667 56.8342Z" fill="#FCB74F"/>
<path d="M20.1667 35.1675V62.8629C20.1667 63.4259 20.6232 63.8825 21.1863 63.8825H53.8138C54.3768 63.8825 54.8334 63.4259 54.8334 62.8629V56.8342L20.1667 35.1675Z" fill="#FCB74F"/>
<path d="M4.87247 29.2158V68.9806C4.87247 69.5436 5.329 70.0002 5.89208 70.0002H69.1078C69.3539 70.0002 69.5795 69.913 69.7557 69.7678L4.87247 29.2158Z" fill="#BAA9DA"/>
<path d="M4.87247 68.9803C4.87247 69.5434 5.329 69.9999 5.89208 69.9999H69.1078C69.3539 69.9999 69.5795 69.9128 69.7557 69.7676L34.6143 47.8042L4.87247 66.3928V68.9803Z" fill="#A38DCE"/>
<path d="M5.2442 69.7678C5.42034 69.913 5.64593 70.0002 5.89204 70.0002H69.1078C69.6709 70.0002 70.1274 69.5436 70.1274 68.9806V29.2158L5.2442 69.7678Z" fill="#D1C6E7"/>
<path d="M31.3822 39.3482C30.5464 39.3482 30.1174 38.3053 30.7063 37.7164L42.9416 25.4811C43.3151 25.1078 43.9202 25.1078 44.2935 25.4811C44.6668 25.8545 44.6668 26.4597 44.2935 26.8329L32.0582 39.0682C31.8715 39.2549 31.6268 39.3482 31.3822 39.3482Z" fill="white"/>
<path d="M42.598 39.3481C40.9465 39.3481 39.6029 38.0045 39.6029 36.353C39.6029 34.7015 40.9465 33.3579 42.598 33.3579C44.2495 33.3579 45.5931 34.7015 45.5931 36.353C45.5931 38.0045 44.2495 39.3481 42.598 39.3481ZM42.598 35.2697C42.0006 35.2697 41.5147 35.7556 41.5147 36.353C41.5147 36.9504 42.0006 37.4363 42.598 37.4363C43.1954 37.4363 43.6813 36.9504 43.6813 36.353C43.6813 35.7556 43.1954 35.2697 42.598 35.2697Z" fill="white"/>
<path d="M32.402 31.1914C30.7505 31.1914 29.4069 29.8478 29.4069 28.1963C29.4069 26.5448 30.7505 25.2012 32.402 25.2012C34.0535 25.2012 35.3971 26.5448 35.3971 28.1963C35.3971 29.8478 34.0535 31.1914 32.402 31.1914ZM32.402 27.1129C31.8046 27.1129 31.3186 27.5989 31.3186 28.1963C31.3186 28.7936 31.8046 29.2796 32.402 29.2796C32.9993 29.2796 33.4853 28.7936 33.4853 28.1963C33.4853 27.5989 32.9993 27.1129 32.402 27.1129Z" fill="white"/>
</svg>
