<svg width="20" height="20" viewBox="0 0 20 20" fill="none" xmlns="http://www.w3.org/2000/svg">
<path d="M10.0378 9.85507C9.27826 9.85507 8.51852 9.56592 7.94037 8.98761C6.78375 7.83115 6.78375 5.94928 7.94037 4.79266C8.50052 4.23236 9.24545 3.92383 10.0378 3.92383C10.8302 3.92383 11.575 4.23251 12.1353 4.79266C13.2919 5.94928 13.2919 7.83115 12.1353 8.98761C11.557 9.56592 10.7974 9.85507 10.0378 9.85507ZM10.0378 5.09799C9.5787 5.09799 9.11957 5.27271 8.76999 5.62228C8.07083 6.32144 8.07083 7.45898 8.76999 8.15814C9.10858 8.49673 9.55887 8.6832 10.0378 8.6832C10.5168 8.6832 10.9671 8.49673 11.3057 8.15814C12.0049 7.45898 12.0049 6.32144 11.3057 5.62228C10.9561 5.27271 10.497 5.09799 10.0378 5.09799Z" fill="#0079C8"/>
<path d="M10.0447 20L9.59106 19.4672C9.32556 19.1551 3.08594 11.7699 3.08594 6.9519C3.08594 3.11859 6.20453 0 10.0378 0C13.8712 0 16.9897 3.11859 16.9897 6.9519C16.9897 11.5329 10.7556 19.1388 10.4903 19.4603L10.0447 20ZM10.0378 1.17325C6.8515 1.17325 4.25919 3.76556 4.25919 6.9519C4.25919 8.74268 5.327 11.3342 7.34726 14.4466C8.39569 16.0617 9.45145 17.4295 10.0314 18.1534C10.6123 17.4097 11.6782 15.9969 12.7332 14.351C14.7504 11.2045 15.8165 8.64578 15.8165 6.9519C15.8165 3.76556 13.2242 1.17325 10.0378 1.17325Z" fill="#0079C8"/>
</svg>
