<svg width="22" height="22" viewBox="0 0 22 22" fill="none" xmlns="http://www.w3.org/2000/svg">
<g clip-path="url(#clip0)">
<path d="M17.3868 13.6282C16.9364 13.1592 16.3931 12.9085 15.8174 12.9085C15.2463 12.9085 14.6984 13.1545 14.2294 13.6235L12.7621 15.0861C12.6414 15.0211 12.5207 14.9608 12.4046 14.9004C12.2374 14.8168 12.0796 14.7379 11.9449 14.6543C10.5705 13.7814 9.32148 12.6438 8.12352 11.1719C7.54311 10.4382 7.15308 9.82069 6.86984 9.19385C7.25059 8.8456 7.60348 8.48343 7.94708 8.13519C8.07709 8.00518 8.2071 7.87052 8.33711 7.74051C9.31219 6.76543 9.31219 5.50246 8.33711 4.52738L7.0695 3.25977C6.92556 3.11583 6.77698 2.96725 6.63768 2.81866C6.35908 2.53078 6.06656 2.23361 5.76475 1.95502C5.31435 1.50927 4.77573 1.27246 4.20926 1.27246C3.64278 1.27246 3.09488 1.50927 2.63055 1.95502C2.62591 1.95966 2.62591 1.95966 2.62127 1.96431L1.04256 3.55694C0.448225 4.15128 0.109267 4.87562 0.0349754 5.71605C-0.0764626 7.07188 0.322857 8.33485 0.629312 9.16135C1.38152 11.1904 2.50519 13.071 4.1814 15.0861C6.21514 17.5146 8.66214 19.4322 11.4574 20.7834C12.5253 21.2895 13.9508 21.8885 15.5434 21.9907C15.6409 21.9953 15.7431 21.9999 15.836 21.9999C16.9086 21.9999 17.8093 21.6145 18.5151 20.8484C18.5198 20.8391 18.529 20.8345 18.5337 20.8252C18.7751 20.5327 19.0537 20.268 19.3463 19.9848C19.5459 19.7944 19.7502 19.5947 19.9499 19.3858C20.4096 18.9075 20.651 18.3503 20.651 17.7792C20.651 17.2035 20.4049 16.6509 19.9359 16.1866L17.3868 13.6282ZM19.0491 18.5175C19.0444 18.5175 19.0444 18.5221 19.0491 18.5175C18.868 18.7125 18.6823 18.889 18.4826 19.084C18.1808 19.3719 17.8743 19.6737 17.5865 20.0126C17.1175 20.5141 16.5649 20.7509 15.8406 20.7509C15.771 20.7509 15.6967 20.7509 15.627 20.7463C14.248 20.658 12.9664 20.1194 12.0053 19.6597C9.3772 18.3875 7.0695 16.5813 5.15184 14.2921C3.56849 12.3838 2.50983 10.6193 1.8087 8.72488C1.37688 7.56871 1.219 6.66792 1.28865 5.8182C1.33509 5.27494 1.54403 4.82455 1.92942 4.43916L3.51277 2.85581C3.74029 2.64222 3.98174 2.52614 4.21854 2.52614C4.51107 2.52614 4.74788 2.70258 4.89646 2.85117C4.9011 2.85581 4.90575 2.86045 4.91039 2.8651C5.19363 3.12976 5.46294 3.40371 5.74617 3.69624C5.89011 3.84482 6.0387 3.99341 6.18728 4.14663L7.45489 5.41424C7.94708 5.90643 7.94708 6.36146 7.45489 6.85365C7.32024 6.9883 7.19023 7.12296 7.05557 7.25297C6.66554 7.65229 6.29408 8.02375 5.89012 8.38592C5.88083 8.39521 5.87154 8.39985 5.8669 8.40914C5.46758 8.80846 5.54187 9.19849 5.62545 9.46316C5.63009 9.47709 5.63474 9.49102 5.63938 9.50495C5.96905 10.3036 6.43338 11.0558 7.13915 11.9519L7.14379 11.9566C8.42533 13.5353 9.77652 14.7657 11.267 15.7083C11.4574 15.8291 11.6524 15.9266 11.8381 16.0194C12.0053 16.103 12.1631 16.1819 12.2978 16.2655C12.3164 16.2748 12.3349 16.2887 12.3535 16.298C12.5114 16.377 12.66 16.4141 12.8132 16.4141C13.1986 16.4141 13.44 16.1727 13.519 16.0937L15.107 14.5057C15.2648 14.3479 15.5156 14.1575 15.8081 14.1575C16.096 14.1575 16.3328 14.3386 16.4767 14.4964C16.4814 14.5011 16.4814 14.5011 16.486 14.5057L19.0444 17.0642C19.5227 17.5378 19.5227 18.0253 19.0491 18.5175Z" fill="#0079C8"/>
<path d="M11.8893 5.23324C13.1058 5.43755 14.2109 6.01331 15.0931 6.89553C15.9753 7.77774 16.5464 8.88284 16.7554 10.0994C16.8065 10.4058 17.0711 10.6194 17.3729 10.6194C17.4101 10.6194 17.4426 10.6148 17.4797 10.6101C17.8233 10.5544 18.0509 10.2294 17.9951 9.88578C17.7444 8.41387 17.0479 7.07197 15.9846 6.00867C14.9213 4.94536 13.5794 4.24887 12.1075 3.99814C11.7639 3.94242 11.4435 4.16994 11.3831 4.5089C11.3228 4.84785 11.5457 5.17752 11.8893 5.23324Z" fill="#0079C8"/>
<path d="M21.9742 9.70466C21.561 7.28089 20.4187 5.07534 18.6636 3.32019C16.9084 1.56505 14.7029 0.422806 12.2791 0.0095565C11.9402 -0.0508058 11.6198 0.181357 11.5594 0.520314C11.5037 0.863915 11.7312 1.1843 12.0748 1.24466C14.2386 1.61148 16.2119 2.63764 17.7814 4.20241C19.3508 5.77183 20.3723 7.74521 20.7391 9.90897C20.7902 10.2154 21.0549 10.429 21.3567 10.429C21.3938 10.429 21.4263 10.4244 21.4635 10.4197C21.8024 10.3686 22.0346 10.0436 21.9742 9.70466Z" fill="#0079C8"/>
</g>
<defs>
<clipPath id="clip0">
<rect width="22" height="22" fill="white"/>
</clipPath>
</defs>
</svg>
