<svg width="25" height="25" viewBox="0 0 25 25" fill="none" xmlns="http://www.w3.org/2000/svg">
<path d="M7.97706 1.89773H3.7963L4.63557 1.05846L3.57705 0L0.930969 2.64618L4.01749 2.99546L7.97706 2.64618V1.89773Z" fill="#5ECBF1"/>
<path d="M6.38938 4.61914L5.33092 5.6776L6.17013 6.51682H1.98947V7.26527L5.31485 7.63586L9.03556 7.26527L6.38938 4.61914Z" fill="#5ECBF1"/>
<path d="M16.5842 4.79207C15.7575 4.79207 15.0873 5.46229 15.0873 6.28898L13.5904 1.0498C12.7637 1.0498 12.0935 1.72002 12.0935 2.54671V10.0312L11.3451 10.7797L10.5966 10.0941C9.73574 10.3157 9.0997 11.0971 9.0997 12.0271V16.2684C9.0997 17.6352 9.64942 18.8736 10.5397 19.7747C12.2114 21.4665 12.0815 23.4461 12.0935 23.5034L14.3389 24.2519L16.5842 23.5034L17.3327 16.0189L16.5842 4.79207Z" fill="#FFDDCE"/>
<path d="M22.5719 9.28271L21.075 10.7796V8.53426C21.075 7.70757 20.4048 7.03735 19.5781 7.03735L18.0812 8.53426V6.2889C18.0812 5.46221 17.411 4.79199 16.5843 4.79199V23.5033L18.8296 24.2518L21.075 23.5033C21.076 23.4983 20.9429 21.4809 22.6288 19.7746C24.2888 18.0946 24.0442 16.1465 24.0688 16.0188C24.0688 15.5159 24.0688 11.3056 24.0688 10.7796C24.0688 9.95293 23.3986 9.28271 22.5719 9.28271Z" fill="#FFBDA9"/>
<path d="M15.0874 12.2766C15.0874 11.8108 15.0874 3.49006 15.0874 2.54671C15.0874 1.72002 14.4172 1.0498 13.5905 1.0498V12.2766H15.0874Z" fill="#FFBDA9"/>
<path d="M18.0812 8.53402V12.2763H19.5781V7.03711C18.7513 7.03711 18.0812 7.70733 18.0812 8.53402Z" fill="#FFA68C"/>
<path d="M21.075 10.7791V12.276H22.5719V9.28223C21.7452 9.28223 21.075 9.95244 21.075 10.7791Z" fill="#FFA68C"/>
<path d="M12.0936 15.2694V10.0303H11.0956C10.9234 10.0303 10.7562 10.0521 10.5967 10.0931V15.2694H12.0936Z" fill="#FFBDA9"/>
<path d="M12.0936 23.5029V24.9998H16.5843L17.3328 24.2514L16.5843 23.5029H12.0936Z" fill="#FF3F5C"/>
<path d="M16.5843 23.5029H21.075V24.9998H16.5843V23.5029Z" fill="#CA2E43"/>
<path d="M4.63557 4.23425L3.7963 3.39494H7.97706V2.64648H0.930969L3.57705 5.29267L4.63557 4.23425Z" fill="#4793FF"/>
<path d="M1.98947 7.26562V8.01408H6.17013L5.33092 8.8534L6.38938 9.91186L9.03556 7.26562H1.98947Z" fill="#4793FF"/>
</svg>
