<svg width="26" height="26" viewBox="0 0 26 26" fill="none" xmlns="http://www.w3.org/2000/svg">
<rect width="26" height="26" fill="white"/>
<g clip-path="url(#clip0)">
<path d="M17.7659 3.47076L15.2934 3.4668C12.5156 3.4668 10.7205 5.30854 10.7205 8.15913V10.3226H8.23454C8.01972 10.3226 7.84576 10.4968 7.84576 10.7116V13.8462C7.84576 14.061 8.01992 14.235 8.23454 14.235H10.7205V22.1447C10.7205 22.3595 10.8945 22.5335 11.1093 22.5335H14.3528C14.5676 22.5335 14.7416 22.3593 14.7416 22.1447V14.235H17.6483C17.8631 14.235 18.037 14.061 18.037 13.8462L18.0382 10.7116C18.0382 10.6084 17.9972 10.5097 17.9244 10.4367C17.8516 10.3637 17.7524 10.3226 17.6493 10.3226H14.7416V8.4886C14.7416 7.6071 14.9516 7.15961 16.0999 7.15961L17.7655 7.15901C17.9801 7.15901 18.1541 6.98486 18.1541 6.77023V3.85954C18.1541 3.64512 17.9803 3.47116 17.7659 3.47076Z" fill="#0079C8"/>
</g>
<defs>
<clipPath id="clip0">
<rect width="19.0667" height="19.0667" fill="white" transform="translate(3.46667 3.4668)"/>
</clipPath>
</defs>
</svg>
