<svg width="26" height="26" viewBox="0 0 26 26" fill="none" xmlns="http://www.w3.org/2000/svg">
<rect width="26" height="26" fill="white"/>
<g clip-path="url(#clip0)">
<path d="M19.288 13.8173C18.9798 13.428 19.068 13.2548 19.288 12.9068C19.292 12.9028 21.8366 9.38664 22.0988 8.19418L22.1004 8.19338C22.2307 7.75882 22.1004 7.43945 21.4704 7.43945H19.3858C18.8551 7.43945 18.6104 7.71354 18.4793 8.02019C18.4793 8.02019 17.4179 10.5608 15.9164 12.2077C15.4318 12.6836 15.2078 12.8361 14.9432 12.8361C14.8129 12.8361 14.6103 12.6836 14.6103 12.249V8.19338C14.6103 7.67223 14.4618 7.43945 14.0225 7.43945H10.7446C10.4117 7.43945 10.2139 7.68255 10.2139 7.90897C10.2139 8.40311 10.9646 8.51672 11.0425 9.907V12.9235C11.0425 13.5845 10.9225 13.706 10.6564 13.706C9.94775 13.706 8.22778 11.1551 7.20851 8.23549C7.00275 7.66905 6.80175 7.44025 6.26709 7.44025H4.18167C3.58664 7.44025 3.46667 7.71433 3.46667 8.02099C3.46667 8.5628 4.17532 11.2568 6.76203 14.8159C8.48598 17.2453 10.9138 18.5617 13.1224 18.5617C14.4499 18.5617 14.6119 18.2693 14.6119 17.7664C14.6119 15.4451 14.492 15.2258 15.1569 15.2258C15.4652 15.2258 15.9959 15.3783 17.2352 16.5501C18.6517 17.9396 18.8845 18.5617 19.6773 18.5617H21.7619C22.3562 18.5617 22.6573 18.2693 22.4841 17.6926C22.0877 16.4794 19.4088 13.9841 19.288 13.8173Z" fill="#0079C8"/>
</g>
<defs>
<clipPath id="clip0">
<rect width="19.0667" height="19.0667" fill="white" transform="translate(3.46667 3.4668)"/>
</clipPath>
</defs>
</svg>
