<svg width="26" height="26" viewBox="0 0 26 26" fill="none" xmlns="http://www.w3.org/2000/svg">
<rect width="26" height="26" fill="white"/>
<g clip-path="url(#clip0)">
<path d="M13.0024 3.46484H12.9976C7.74028 3.46484 3.46503 7.74129 3.46503 12.9998C3.46503 15.0856 4.13724 17.0188 5.28025 18.5885L4.09195 22.1308L7.75697 20.9592C9.26469 21.958 11.0632 22.5348 13.0024 22.5348C18.2598 22.5348 22.535 18.2572 22.535 12.9998C22.535 7.74248 18.2598 3.46484 13.0024 3.46484ZM18.5506 16.9295C18.3206 17.579 17.4076 18.1178 16.6793 18.2751C16.1811 18.3812 15.5304 18.4658 13.3397 17.5576C10.5376 16.3967 8.73311 13.5493 8.59247 13.3646C8.45779 13.1798 7.46019 11.8568 7.46019 10.4886C7.46019 9.12029 8.15506 8.45403 8.43515 8.16798C8.66518 7.93318 9.04539 7.82591 9.4101 7.82591C9.52809 7.82591 9.63417 7.83187 9.72952 7.83664C10.0096 7.84856 10.1503 7.86525 10.335 8.30743C10.565 8.86165 11.1252 10.2299 11.192 10.3706C11.2599 10.5112 11.3278 10.7019 11.2325 10.8866C11.1431 11.0773 11.0644 11.162 10.9238 11.3241C10.7831 11.4862 10.6496 11.6101 10.509 11.7841C10.3803 11.9355 10.2349 12.0976 10.397 12.3777C10.5591 12.6518 11.1192 13.566 11.944 14.3002C13.0084 15.2477 13.8713 15.5505 14.18 15.6792C14.41 15.7745 14.6841 15.7519 14.8522 15.5731C15.0655 15.3431 15.3289 14.9617 15.5971 14.5862C15.7878 14.3169 16.0286 14.2835 16.2813 14.3788C16.5387 14.4682 17.901 15.1416 18.1811 15.2811C18.4612 15.4217 18.6459 15.4885 18.7139 15.6065C18.7806 15.7245 18.7806 16.2787 18.5506 16.9295Z" fill="#0079C8"/>
</g>
<defs>
<clipPath id="clip0">
<rect width="19.07" height="19.07" fill="white" transform="translate(3.46503 3.46484)"/>
</clipPath>
</defs>
</svg>
