<svg width="58" height="58" viewBox="0 0 58 58" fill="none" xmlns="http://www.w3.org/2000/svg">
<path d="M52.034 19.6693C52.1967 12.7722 46.7193 6.9273 39.8206 6.85232C35.2018 6.80206 31.1614 9.28841 28.9997 13.0029C26.8376 9.28841 22.7976 6.80165 18.1788 6.85232C11.28 6.9273 5.80265 12.7722 5.96539 19.6693C6.32959 35.0814 24.7628 48.4867 28.3854 50.9747C28.7558 51.2293 29.2436 51.2293 29.614 50.9747C33.2366 48.4867 51.6698 35.0814 52.034 19.6693Z" fill="#FF5555"/>
<path d="M52.0402 19.2081C52.0402 34.8114 33.2774 48.4581 29.6144 50.9737C29.2436 51.2283 28.7554 51.2295 28.3842 50.9749C27.4819 50.3553 25.6605 49.0583 23.4288 47.2221C27.1074 44.6941 45.8447 31.0553 45.8447 15.4615C45.8447 12.2941 44.6544 9.40441 42.695 7.22046C48.0641 8.56478 52.0402 13.4201 52.0402 19.2081Z" fill="#F72B2B"/>
<path d="M28.8469 41.8304C28.177 41.8304 27.6014 41.3538 27.477 40.6946L24.0731 22.6136L20.4513 31.2209C20.2404 31.7223 19.7576 32.0548 19.2141 32.0733C18.6699 32.0918 18.166 31.7923 17.9217 31.3066L16.9536 29.3822H3.39376C2.62417 29.3822 2.00001 28.758 2.00001 27.9884C2.00001 27.2184 2.62417 26.5947 3.39376 26.5947H17.8126C18.3366 26.5947 18.8162 26.8884 19.0539 27.3548L23.3011 17.2623C23.5396 16.695 24.1222 16.3514 24.7331 16.4169C25.3449 16.482 25.8414 16.9401 25.9555 17.5449L28.762 32.4544L29.9234 25.4782C30.035 24.8058 30.6163 24.3131 31.2978 24.3131H35.8465C36.3179 24.3131 36.7574 24.5512 37.0145 24.9459L39.1503 28.2241L40.0715 27.1035C40.3364 26.7813 40.7315 26.5947 41.1484 26.5947H54.6065C55.3761 26.5947 55.9998 27.2188 55.9998 27.9884C55.9998 28.758 55.3761 29.3822 54.6065 29.3822H41.8072L40.0974 31.4623C39.8156 31.8051 39.3868 31.9934 38.9439 31.9691C38.5002 31.9448 38.0952 31.7103 37.8529 31.3383L35.0918 27.1006H32.4789L30.2217 40.6653C30.1108 41.3319 29.5373 41.823 28.8617 41.83C28.8567 41.83 28.8514 41.8304 28.8469 41.8304Z" fill="#60DAFF"/>
</svg>
