<svg width="58" height="58" viewBox="0 0 58 58" fill="none" xmlns="http://www.w3.org/2000/svg">
<path d="M34.0141 32.426C32.5217 33.2186 30.8195 33.6683 29.012 33.6683C27.2045 33.6683 25.5023 33.2187 24.01 32.426C16.8028 33.9349 11.39 40.3253 11.39 47.9807V51.8481L12.3743 54.9679L29.012 55.9523L45.6497 54.9679L46.6341 51.8481V47.9807C46.6341 40.3252 41.2212 33.9347 34.0141 32.426Z" fill="#ADF0FF"/>
<path d="M15.0971 19.229C15.0971 19.229 12.0291 15.0958 11.8977 9.11728C11.8903 8.78281 12.1867 8.5225 12.5181 8.5681C13.2035 8.66239 14.3479 8.74278 15.4025 8.4584C18.6252 7.58942 21.7961 1.19579 27.3826 1.00953C32.9693 0.82326 34.0527 3.43043 34.0527 3.43043C34.0527 3.43043 36.1078 2.20871 39.1767 2.62346C43.7701 3.24417 47.8049 10.2422 43.7041 19.8556L15.0971 19.229Z" fill="#E5907B"/>
<path d="M13.5642 21.1162C13.5642 23.1892 15.2491 24.4105 16.7316 24.4105L18.3323 23.0146C18.3323 23.0056 19.7286 21.1251 19.7286 21.1162L18.3316 19.2161C17.8569 18.955 17.3116 18.8062 16.7315 18.8062C15.2491 18.8062 13.9937 19.7763 13.5642 21.1162Z" fill="#EBBAA1"/>
<path d="M16.7317 23.426C15.2493 23.426 13.9937 22.4558 13.5643 21.116C13.4616 21.4363 13.4056 21.7776 13.4056 22.1321C13.4056 23.969 14.8948 25.4582 16.7317 25.4582C17.3863 25.4582 17.9962 25.2683 18.5108 24.9418L19.3829 23.7791L18.3325 23.0144C17.8574 23.276 17.3123 23.426 16.7317 23.426Z" fill="#E8A990"/>
<path d="M44.4598 21.1162C44.4598 23.1892 42.7749 24.4105 41.2923 24.4105L39.6916 23.0146C39.6916 23.0056 38.2953 21.1251 38.2953 21.1162L39.6923 19.2161C40.1671 18.955 40.7123 18.8062 41.2924 18.8062C42.7749 18.8062 44.0303 19.7763 44.4598 21.1162Z" fill="#EBBAA1"/>
<path d="M41.2923 23.426C42.7748 23.426 44.0303 22.4558 44.4598 21.116C44.5625 21.4363 44.6185 21.7776 44.6185 22.1321C44.6185 23.969 43.1294 25.4582 41.2924 25.4582C40.6378 25.4582 40.028 25.2683 39.5133 24.9418L38.6413 23.7791L39.6916 23.0144C40.1666 23.276 40.7118 23.426 41.2923 23.426Z" fill="#E8A990"/>
<path d="M29 32.6202C34.8986 32.6202 39.6802 28.0729 39.6802 20.9556V17.8891C39.6802 16.9542 39.2996 16.0547 38.6125 15.4208C36.6183 13.5811 34.3983 10.3984 33.5066 9.06925C33.3018 8.7641 32.8674 8.73566 32.6192 9.00669C28.1206 13.9199 22.2934 15.5573 19.686 16.0667C18.8916 16.2219 18.3199 16.9189 18.3199 17.7283V20.9557C18.3197 27.9915 23.1015 32.6202 29 32.6202Z" fill="#FDD4BB"/>
<path d="M20.334 56.9998H37.69L38.5368 55.9837L37.69 54.9675H20.334L19.4872 55.9837L20.334 56.9998Z" fill="#8DEAF5"/>
<path d="M46.622 54.9677L42.5734 55.9521L38.5248 54.9677V51.8479H46.622V54.9677Z" fill="#FDD4BB"/>
<path d="M11.3779 54.9677L15.4266 55.9521L19.4752 54.9677V51.8479H11.3779V54.9677Z" fill="#FDD4BB"/>
<path d="M46.6221 54.9675H39.3835L38.5367 55.9836L39.3835 56.9997H46.0752C46.3772 56.9997 46.6221 56.7548 46.6221 56.4528V54.9675Z" fill="#F7C4A8"/>
<path d="M11.3779 54.9675H18.6404L19.4872 55.9836L18.6404 56.9997H11.9248C11.6228 56.9997 11.3779 56.7548 11.3779 56.4528V54.9675Z" fill="#F7C4A8"/>
<path d="M29 33.6681C27.179 33.6681 25.4646 33.2119 23.9645 32.4082C23.9542 32.5396 23.9474 32.6718 23.9474 32.8057C23.9474 35.5962 26.2095 37.8582 29 37.8582C31.7904 37.8582 34.0525 35.5962 34.0525 32.8057C34.0525 32.6718 34.0458 32.5395 34.0355 32.4082C32.5352 33.2119 30.8209 33.6681 29 33.6681Z" fill="#EBBAA1"/>
<path d="M29 31.6357C23.1014 31.6357 18.3198 26.8539 18.3198 20.9556V22.9879C18.3198 28.8863 23.1014 33.668 28.9999 33.668C34.8984 33.668 39.68 28.8862 39.68 22.9879V20.9556C39.6802 26.8539 34.8985 31.6357 29 31.6357Z" fill="#F7C4A8"/>
<path d="M39.3835 54.9678V47.0062C39.3835 46.5385 39.0044 46.1594 38.5367 46.1594C38.069 46.1594 37.6899 46.5385 37.6899 47.0062V54.9678L38.5367 55.9839L39.3835 54.9678Z" fill="#85E1E5"/>
<path d="M37.6901 54.9678H39.3836V57.0001H37.6901V54.9678Z" fill="#6ED6D6"/>
<path d="M20.334 54.9678V47.0062C20.334 46.5385 19.9549 46.1594 19.4872 46.1594C19.0195 46.1594 18.6404 46.5385 18.6404 47.0062V54.9678L19.4872 55.9839L20.334 54.9678Z" fill="#85E1E5"/>
<path d="M18.6404 54.9678H20.334V57.0001H18.6404V54.9678Z" fill="#6ED6D6"/>
<path d="M31.1009 25.4766H26.899C26.4303 25.4766 26.0505 25.8564 26.0505 26.325C26.0505 26.7935 26.4304 27.1734 26.899 27.1734H31.1009C31.5696 27.1734 31.9494 26.7935 31.9494 26.325C31.9494 25.8564 31.5696 25.4766 31.1009 25.4766Z" fill="#F4594E"/>
<path d="M24.8712 19.5334H22.7728C22.3041 19.5334 21.9244 19.9133 21.9244 20.3819C21.9244 20.8504 22.3042 21.2303 22.7728 21.2303H24.8712C25.3398 21.2303 25.7196 20.8504 25.7196 20.3819C25.7196 19.9133 25.3397 19.5334 24.8712 19.5334Z" fill="#565E75"/>
<path d="M35.2271 19.5334H33.1287C32.6601 19.5334 32.2803 19.9133 32.2803 20.3819C32.2803 20.8504 32.6602 21.2303 33.1287 21.2303H35.2271C35.6958 21.2303 36.0755 20.8504 36.0755 20.3819C36.0755 19.9133 35.6957 19.5334 35.2271 19.5334Z" fill="#565E75"/>
<path d="M34.5992 47.3636C34.5992 44.2762 32.0874 41.7644 28.9999 41.7644C25.9125 41.7644 23.4007 44.2762 23.4007 47.3636C23.4007 50.4511 25.9125 52.9629 28.9999 52.9629C32.0874 52.9629 34.5992 50.4511 34.5992 47.3636ZM25.0975 47.3636C25.0975 45.2119 26.8481 43.4612 28.9999 43.4612C29.7693 43.4612 30.4868 43.686 31.0918 44.0719L25.7082 49.4555C25.3223 48.8504 25.0975 48.133 25.0975 47.3636ZM32.2917 45.2717C32.6776 45.8768 32.9022 46.5942 32.9022 47.3635C32.9022 49.5154 31.1517 51.2659 28.9998 51.2659C28.2305 51.2659 27.513 51.0412 26.9079 50.6553L32.2917 45.2717Z" fill="#F4594E"/>
<path d="M20.322 54.9678V47.0062C20.322 46.5385 19.9429 46.1594 19.4752 46.1594C19.0075 46.1594 18.6284 46.5385 18.6284 47.0062V54.9678L19.4752 55.9839L20.322 54.9678Z" fill="#85E1E5"/>
<path d="M39.3715 54.9678V47.0062C39.3715 46.5385 38.9924 46.1594 38.5247 46.1594C38.057 46.1594 37.6779 46.5385 37.6779 47.0062V54.9678L38.5247 55.9839L39.3715 54.9678Z" fill="#85E1E5"/>
<path d="M18.6284 54.9678H20.322V57.0001H18.6284V54.9678Z" fill="#6ED6D6"/>
<path d="M37.678 54.9678H39.3716V57.0001H37.678V54.9678Z" fill="#6ED6D6"/>
</svg>
