<svg width="58" height="58" viewBox="0 0 58 58" fill="none" xmlns="http://www.w3.org/2000/svg">
<path d="M28.7849 54.0591C30.4284 54.0591 31.8073 52.9307 32.1908 51.4063C29.8887 49.4115 28.4323 46.4666 28.4323 43.1814C28.4323 39.846 29.9336 36.862 32.2971 34.8667V21.0421C32.2971 19.1024 30.7246 17.5303 28.7849 17.5303H5.51178C3.57256 17.5303 2 19.1024 2 21.0421V50.5473C2 52.487 3.57256 54.0591 5.51178 54.0591" fill="#5B9ED6"/>
<path d="M28.7849 17.5303H26.1832C28.1229 17.5303 29.6954 19.1024 29.6954 21.0421V33.0952C29.6954 33.6431 29.4993 34.1721 29.1454 34.5907C28.0751 35.8551 27.2367 37.3217 26.6958 38.9256C26.1392 40.2328 25.8306 41.6707 25.8306 43.181C25.8306 44.6988 26.1416 46.1436 26.7032 47.4558C26.7069 47.4669 26.7106 47.478 26.7143 47.4892C27.2301 48.997 26.1272 50.5679 24.5332 50.5679H5.51178C3.57256 50.5679 2 48.9954 2 47.0558V50.5473C2 52.487 3.57256 54.0591 5.51219 54.0591H28.7849C29.9253 54.0591 30.9384 53.5153 31.5799 52.6728C31.5836 52.6678 31.5873 52.6629 31.5914 52.6575C31.6169 52.6234 31.6425 52.5883 31.6672 52.5529C31.6738 52.5434 31.68 52.534 31.6866 52.5245C31.708 52.4932 31.7294 52.461 31.75 52.4285C31.7574 52.4165 31.7653 52.4042 31.7727 52.3922C31.7912 52.3622 31.8093 52.3317 31.8271 52.3008C31.8353 52.2868 31.8435 52.2723 31.8514 52.2583C31.8678 52.2291 31.8839 52.1994 31.8992 52.1698C31.9074 52.1541 31.9156 52.138 31.9239 52.122C31.9383 52.0931 31.9523 52.0643 31.9659 52.035C31.9737 52.0177 31.982 52.0008 31.9894 51.9839C32.0026 51.9547 32.0149 51.9254 32.0273 51.8962C32.0347 51.8785 32.0421 51.8608 32.0491 51.843C32.0611 51.813 32.0722 51.7829 32.0833 51.7528C32.0899 51.7351 32.0965 51.7174 32.1027 51.6997C32.1142 51.6671 32.1245 51.6342 32.1348 51.6012C32.1398 51.5856 32.1451 51.5699 32.1501 51.5542C32.1645 51.5052 32.1781 51.4562 32.1908 51.4063C32.0722 51.3033 31.956 51.1975 31.8419 51.0895C31.8283 51.0768 31.8147 51.0644 31.8011 51.0512C31.6915 50.9466 31.584 50.8394 31.4789 50.7303C31.4641 50.715 31.4497 50.6998 31.4353 50.6845C31.3294 50.5737 31.226 50.4608 31.125 50.3451C31.1151 50.3335 31.1048 50.322 31.095 50.3105C30.9899 50.1893 30.8869 50.0666 30.7872 49.9409C29.3131 48.0845 28.4319 45.7357 28.4319 43.1814C28.4319 39.846 29.9336 36.862 32.2967 34.8667V21.0421C32.2971 19.1024 30.7246 17.5303 28.7849 17.5303Z" fill="#4C83B3"/>
<path d="M8.84888 14.2612H25.4483V17.5304H8.84888V14.2612Z" fill="#5A67AD"/>
<path d="M21.1797 14.2612H25.4483V17.5304H21.1797V14.2612Z" fill="#48538A"/>
<path d="M5.39893 9.56152V12.9423C5.39893 13.6707 5.98972 14.2611 6.7177 14.2611H27.5791C28.3075 14.2611 28.8979 13.6707 28.8979 12.9423V6.18034C28.8979 5.45195 28.3075 4.86157 27.5791 4.86157H6.7177C5.9893 4.86157 5.39893 5.45236 5.39893 6.18034V9.56152Z" fill="#5B9ED6"/>
<path d="M22.978 4.86157V14.2611H27.579C28.3074 14.2611 28.8978 13.6707 28.8978 12.9423V6.18034C28.8978 5.45195 28.3074 4.86157 27.579 4.86157H22.978Z" fill="#4C83B3"/>
<path d="M26.2578 35.7949C26.2578 40.8257 22.1796 44.9044 17.1484 44.9044C12.1176 44.9044 8.03894 40.8257 8.03894 35.7949C8.03894 30.7637 12.1176 26.6851 17.1484 26.6851C22.1796 26.6851 26.2578 30.7637 26.2578 35.7949Z" fill="#EF2D57"/>
<path d="M22.3114 28.2905C23.3228 29.758 23.9165 31.5362 23.9165 33.4531C23.9165 38.4843 19.8378 42.5626 14.8071 42.5626C12.8897 42.5626 11.112 41.9693 9.64404 40.9575C11.287 43.3408 14.0346 44.9043 17.1484 44.9043C22.1796 44.9043 26.2578 40.8257 26.2578 35.7949C26.2578 32.6811 24.6948 29.9335 22.3114 28.2905Z" fill="#D9294F"/>
<path d="M50.1881 43.1809C50.1881 49.1889 45.318 54.059 39.31 54.059C33.3024 54.059 28.4323 49.1889 28.4323 43.1809C28.4323 37.1733 33.3024 32.3032 39.31 32.3032C45.318 32.3032 50.1881 37.1733 50.1881 43.1809Z" fill="#FCDA55"/>
<path d="M45.8853 34.5151C47.2733 36.3415 48.0977 38.6198 48.0977 41.0905C48.0977 47.0985 43.2276 51.9686 37.2195 51.9686C34.7489 51.9686 32.4706 51.1442 30.6442 49.7562C32.6312 52.3707 35.7731 54.059 39.3104 54.059C45.318 54.059 50.1881 49.1889 50.1881 43.1809C50.1881 39.644 48.4998 36.5022 45.8853 34.5151Z" fill="#D9BC4A"/>
<path d="M31.8411 50.9841C32.2576 51.3458 32.7021 51.6766 33.1705 51.9728L48.1759 36.967C47.8797 36.4986 47.5493 36.054 47.1872 35.6379C47.12 35.675 47.0562 35.7216 46.9989 35.7788L31.982 50.7958C31.9247 50.853 31.8781 50.9165 31.8411 50.9841Z" fill="#D9BC4A"/>
<path d="M46.1223 18.7898C42.2331 19.7308 39.1881 22.9245 39.1881 27.0646V32.305C39.2289 32.3046 39.2693 32.3034 39.3101 32.3034C45.3181 32.3034 50.1882 37.1735 50.1882 43.1815C50.1882 46.1458 49.0021 48.8327 47.0789 50.7946C47.2495 50.8053 47.4209 50.8119 47.5939 50.8119C52.2366 50.8119 56.0001 47.0484 56.0001 42.4061V27.0646C56.0001 22.9245 53.0062 19.4861 49.0659 18.7898C49.0659 18.7898 47.13 18.5459 46.1223 18.7898Z" fill="#F084AD"/>
<path d="M49.0658 18.7896C48.0103 18.645 47.0294 18.645 46.1222 18.7896C46.0925 18.795 46.0629 18.802 46.0332 18.8073C49.929 19.5398 52.878 22.9556 52.878 27.0644V42.406C52.878 45.935 50.7023 48.9545 47.6194 50.2003C47.4463 50.4051 47.2663 50.6033 47.0788 50.7944C47.2494 50.8051 47.4208 50.8117 47.5942 50.8117C52.2365 50.8117 56 47.0482 56 42.406V27.0644C56 22.9243 53.0061 19.4859 49.0658 18.7896Z" fill="#D47499"/>
<path d="M46.165 34.7354C48.6192 36.7298 50.1881 39.7723 50.1881 43.1811C50.1881 46.1458 49.002 48.8327 47.0788 50.7946C47.2494 50.8049 47.4208 50.8119 47.5938 50.8119C52.2365 50.8119 56 47.0484 56 42.4061V34.7354H46.165Z" fill="#EF2D57"/>
<path d="M52.878 42.4061C52.878 45.9352 50.7023 48.9543 47.6194 50.2005C47.539 50.2957 47.4571 50.3888 47.3734 50.4811C47.359 50.4967 47.3446 50.5124 47.3306 50.5281C47.2478 50.6183 47.1641 50.7077 47.0789 50.7946C47.2494 50.8053 47.4208 50.8119 47.5938 50.8119C52.2365 50.8119 56 47.0484 56 42.4061V34.7354H52.878V42.4061Z" fill="#CC264B"/>
<path d="M21.3342 34.9585H17.9847V31.609C17.9847 31.1472 17.6102 30.7727 17.1484 30.7727C16.6865 30.7727 16.3124 31.1472 16.3124 31.609V34.9585H12.963C12.5011 34.9585 12.1266 35.3326 12.1266 35.7944C12.1266 36.2563 12.5011 36.6308 12.963 36.6308H16.3124V39.9802C16.3124 40.442 16.6865 40.8165 17.1484 40.8165C17.6102 40.8165 17.9847 40.442 17.9847 39.9802V36.6308H21.3342C21.796 36.6308 22.1705 36.2563 22.1705 35.7944C22.1705 35.3326 21.796 34.9585 21.3342 34.9585Z" fill="white"/>
<path d="M11.1585 15.0761C10.6966 15.0761 10.3221 14.7016 10.3221 14.2397V4.84024C10.3221 4.3784 10.6966 4.00391 11.1585 4.00391C11.6203 4.00391 11.9948 4.3784 11.9948 4.84024V14.2397C11.9948 14.7016 11.6203 15.0761 11.1585 15.0761Z" fill="#674297"/>
<path d="M17.1612 15.0761C16.6993 15.0761 16.3248 14.7016 16.3248 14.2397V4.84024C16.3248 4.3784 16.6993 4.00391 17.1612 4.00391C17.623 4.00391 17.9971 4.3784 17.9971 4.84024V14.2397C17.9975 14.7016 17.623 15.0761 17.1612 15.0761Z" fill="#674297"/>
<path d="M23.1638 15.0761C22.702 15.0761 22.3275 14.7016 22.3275 14.2397V4.84024C22.3275 4.3784 22.702 4.00391 23.1638 4.00391C23.6256 4.00391 23.9997 4.3784 23.9997 4.84024V14.2397C24.0001 14.7016 23.6256 15.0761 23.1638 15.0761Z" fill="#674297"/>
<path d="M31.6919 51.6268C31.4781 51.6268 31.2643 51.5448 31.1007 51.3816C30.7744 51.0549 30.7744 50.5255 31.1007 50.1988L46.1177 35.1819C46.4444 34.8556 46.9738 34.8552 47.3005 35.1819C47.6272 35.5086 47.6272 36.038 47.3005 36.3647L32.2836 51.3816C32.12 51.5448 31.9062 51.6268 31.6919 51.6268Z" fill="#E69326"/>
</svg>
