<svg width="58" height="58" viewBox="0 0 58 58" fill="none" xmlns="http://www.w3.org/2000/svg">
<path d="M18.3518 40.6845H10.9037V23.2039H18.3518V26.6023H14.3021V37.2861H18.3518V40.6845Z" fill="#EBEBEC"/>
<path d="M37.2195 20.9195H20.5463C17.509 20.9195 15.038 18.4485 15.038 15.4111C15.038 12.3738 17.509 9.90276 20.5463 9.90276C20.8988 9.90276 21.2499 9.93686 21.594 10.0037C22.6088 8.60603 24.2445 7.7417 26.0485 7.7417C27.0554 7.7417 28.0345 8.01912 28.8829 8.5281C29.7312 8.01912 30.7103 7.7417 31.7173 7.7417C33.5212 7.7417 35.157 8.60603 36.1717 10.0037C36.5159 9.93686 36.8669 9.90276 37.2195 9.90276C40.2568 9.90276 42.7278 12.3738 42.7278 15.4111C42.7278 18.4485 40.2568 20.9195 37.2195 20.9195Z" fill="#EBEBEC"/>
<path d="M37.2195 20.9195H29C29 20.9195 28.8829 10.6483 28.8829 8.5281C29.7312 8.01912 30.7103 7.7417 31.7173 7.7417C33.5212 7.7417 35.1569 8.60603 36.1717 10.0037C36.5159 9.93686 36.8669 9.90276 37.2195 9.90276C40.2568 9.90276 42.7278 12.3738 42.7278 15.4111C42.7278 18.4485 40.2568 20.9195 37.2195 20.9195Z" fill="#CACACD"/>
<path d="M41.1691 48.5575H16.6526V19.3027H41.1691V48.5575Z" fill="#CACACD"/>
<path d="M41.1691 48.5575H29V19.3027H41.1691V48.5575Z" fill="#A9A8AE"/>
<path d="M41.1691 48.5578H16.6526V24.6301H41.1691V48.5578Z" fill="#FBDA35"/>
<path d="M41.1691 48.5578H29V24.6301H41.1691V48.5578Z" fill="#F7BA35"/>
<path d="M23.6157 35.2983C24.5542 35.2983 25.315 34.5376 25.315 33.5991C25.315 32.6607 24.5542 31.8999 23.6157 31.8999C22.6773 31.8999 21.9165 32.6607 21.9165 33.5991C21.9165 34.5376 22.6773 35.2983 23.6157 35.2983Z" fill="#FDE888"/>
<path d="M24.8845 43.2485C25.8229 43.2485 26.5837 42.4878 26.5837 41.5493C26.5837 40.6109 25.8229 39.8501 24.8845 39.8501C23.946 39.8501 23.1853 40.6109 23.1853 41.5493C23.1853 42.4878 23.946 43.2485 24.8845 43.2485Z" fill="#FDE888"/>
<path d="M32.301 40.6851C33.2395 40.6851 34.0002 39.9243 34.0002 38.9858C34.0002 38.0474 33.2395 37.2866 32.301 37.2866C31.3626 37.2866 30.6018 38.0474 30.6018 38.9858C30.6018 39.9243 31.3626 40.6851 32.301 40.6851Z" fill="#FBDA35"/>
<path d="M49.5062 8.49383C44.0287 3.01657 36.7462 0 29 0C21.2538 0 13.9713 3.01657 8.49383 8.49383C3.01657 13.9713 0 21.2538 0 29C0 36.7462 3.01657 44.0287 8.49383 49.5062C13.9713 54.9834 21.2538 58 29 58C36.7462 58 44.0287 54.9834 49.5062 49.5062C54.9834 44.0287 58 36.7462 58 29C58 21.2538 54.9834 13.9713 49.5062 8.49383ZM10.897 47.103C6.06145 42.2675 3.39844 35.8384 3.39844 29C3.39844 22.7311 5.63778 16.8072 9.73573 12.1387L45.8613 48.2643C41.1927 52.3622 35.2689 54.6016 29 54.6016C22.1616 54.6016 15.7325 51.9385 10.897 47.103ZM48.2643 45.8613L12.1387 9.73562C16.8073 5.63778 22.7311 3.39844 29 3.39844C35.8384 3.39844 42.2675 6.06145 47.103 10.897C51.9385 15.7325 54.6016 22.1616 54.6016 29C54.6016 35.2689 52.3622 41.1928 48.2643 45.8613Z" fill="#FF7F4B"/>
<path d="M49.5062 8.49383C44.0287 3.01657 36.7462 0 29 0V3.39844C35.8384 3.39844 42.2675 6.06145 47.103 10.897C51.9385 15.7325 54.6016 22.1616 54.6016 29C54.6016 35.2689 52.3622 41.1928 48.2643 45.8613L29 26.597V31.403L45.8613 48.2644C41.1927 52.3622 35.2689 54.6016 29 54.6016V58C36.7462 58 44.0287 54.9834 49.5062 49.5062C54.9834 44.0287 58 36.7462 58 29C58 21.2538 54.9834 13.9713 49.5062 8.49383Z" fill="#FD5219"/>
</svg>
