<svg width="32" height="32" viewBox="0 0 32 32" fill="none" xmlns="http://www.w3.org/2000/svg">
<path d="M24.6307 20.6655L21.7232 19.6537C21.5118 19.5791 21.2733 19.6391 21.1207 19.8052C19.6952 21.3608 17.8763 22.2176 15.9997 22.2176C14.1232 22.2176 12.3043 21.3607 10.8788 19.8052C10.7251 19.6391 10.4888 19.5803 10.2762 19.6537L7.36874 20.6655C4.41715 21.6919 2.43433 24.4807 2.43433 27.6053V28.4351C2.43433 28.7471 2.68756 29.0003 2.99957 29.0003H28.9999C29.312 29.0003 29.5652 28.7471 29.5652 28.4351V27.6053C29.5651 24.4796 27.5823 21.6908 24.6307 20.6655ZM28.4347 27.8698H3.56476V27.6053C3.56476 24.9612 5.24236 22.6008 7.73951 21.7326L10.3034 20.8407C11.9064 22.4606 13.9163 23.348 15.9997 23.348C18.0832 23.348 20.0931 22.4606 21.6961 20.8407L24.2599 21.7326C26.7571 22.6008 28.4347 24.9612 28.4347 27.6053V27.8698Z" fill="#335C7C"/>
<path d="M22.7791 9.92964C22.7814 9.88105 22.7825 9.83129 22.7825 9.7827C22.7825 6.04204 19.7405 3 15.9998 3C12.2592 3 9.21713 6.04204 9.21713 9.7827C9.21713 9.83129 9.21825 9.88105 9.22052 9.92964C8.54676 10.2982 8.0867 11.328 8.0867 12.6088C8.0867 14.1813 8.78081 15.3762 9.71227 15.4327C10.7398 18.8376 13.2144 21.0872 15.9998 21.0872C18.7852 21.0872 21.2598 18.8376 22.2874 15.4327C23.2189 15.3762 23.913 14.1813 23.913 12.6088C23.913 11.328 23.4529 10.2982 22.7791 9.92964ZM22.1823 14.2796C22.0285 14.1847 21.8397 14.1688 21.6713 14.2367C21.5051 14.3045 21.3807 14.448 21.3367 14.6233C20.5454 17.8134 18.4009 19.9568 15.9998 19.9568C13.5988 19.9568 11.4543 17.8134 10.663 14.6233C10.6189 14.448 10.4775 14.3181 10.3103 14.2491C10.2481 14.2231 10.1803 14.2118 10.1113 14.2118C9.99598 14.2118 9.87839 14.2446 9.78232 14.3045C9.64105 14.3045 9.21713 13.7031 9.21713 12.6088C9.21713 11.5722 9.59808 10.9787 9.75747 10.9176C9.76314 10.9188 9.76992 10.9199 9.77443 10.9199C9.9406 10.9324 10.1113 10.8769 10.2311 10.7571C10.351 10.6362 10.4109 10.4678 10.3928 10.2993L10.377 10.158C10.3634 10.0336 10.3476 9.91041 10.3476 9.78265C10.3476 6.66605 12.8832 4.13043 15.9998 4.13043C19.1165 4.13043 21.6521 6.66605 21.6521 9.7827C21.6521 9.91046 21.6363 10.0337 21.6227 10.1569L21.6068 10.2982C21.5899 10.4678 21.6487 10.6362 21.7685 10.756C21.8895 10.877 22.0579 10.9335 22.2252 10.9199C22.2297 10.9188 22.2365 10.9188 22.2422 10.9176C22.4016 10.9787 22.7825 11.5722 22.7825 12.6088C22.7825 13.7031 22.3677 14.3045 22.1823 14.2796Z" fill="#335C7C"/>
<path d="M15.9998 7.52197C14.6681 7.52197 13.7389 8.4512 13.7389 9.78289C13.7389 10.0949 13.9921 10.3481 14.3041 10.3481C14.6161 10.3481 14.8693 10.0949 14.8693 9.78289C14.8693 8.76321 15.6595 8.65246 15.9998 8.65246C16.34 8.65246 17.1302 8.76326 17.1302 9.78289C17.1302 10.7314 16.9211 11.1643 16.2699 11.5611C15.0128 12.3298 14.8026 13.346 14.8761 13.8254C14.919 14.1035 15.1564 14.2945 15.43 14.2945C15.4526 14.2945 15.4763 14.2922 15.5001 14.29C15.8019 14.255 16.0201 13.9757 15.9952 13.6717C15.9941 13.6479 15.9579 13.0771 16.86 12.5265C17.8548 11.9183 18.2606 11.1236 18.2606 9.78289C18.2607 8.4512 17.3315 7.52197 15.9998 7.52197Z" fill="#335C7C"/>
<path d="M15.4346 16.5651C15.7468 16.5651 15.9998 16.312 15.9998 15.9998C15.9998 15.6876 15.7468 15.4346 15.4346 15.4346C15.1224 15.4346 14.8693 15.6876 14.8693 15.9998C14.8693 16.312 15.1224 16.5651 15.4346 16.5651Z" fill="#335C7C"/>
</svg>
