<svg width="176" height="176" viewBox="0 0 176 176" fill="none" xmlns="http://www.w3.org/2000/svg">
<path d="M157.576 54.9718L149.426 58.8468C153.773 67.9869 155.977 77.7957 155.977 88C155.977 106.157 148.906 123.227 136.067 136.067C123.227 148.906 106.157 155.977 88 155.977C69.8427 155.977 52.7725 148.906 39.9334 136.067C27.0942 123.227 20.0234 106.157 20.0234 88C20.0234 69.8427 27.0942 52.7725 39.9334 39.9334C52.7725 27.0942 69.8427 20.0234 88 20.0234C103.127 20.0234 117.498 24.9355 129.298 33.9983L122.204 35.3118L123.847 44.1846L143.682 40.5121L144.155 20.3471L135.134 20.1356L134.974 26.9775C121.571 16.6165 105.218 11 88 11C67.4326 11 48.0963 19.0095 33.5526 33.5526C19.0095 48.0963 11 67.4326 11 88C11 108.567 19.0095 127.904 33.5526 142.447C48.0963 156.99 67.4326 165 88 165C108.567 165 127.904 156.99 142.447 142.447C156.99 127.904 165 108.567 165 88C165 76.4446 162.502 65.3322 157.576 54.9718V54.9718Z" fill="#335C7C"/>
<path d="M132.705 84.4874H133.81L133.7 83.3877C131.531 61.7341 114.265 44.4678 92.6115 42.2989L91.5119 42.1888V43.2939V50.4205H84.4884V43.2939V42.1888L83.3888 42.2989C61.7352 44.4678 44.4689 61.7341 42.3 83.3877L42.1899 84.4874H43.295H50.4212V91.5108H43.295H42.1899L42.3 92.6105C44.4692 114.264 61.7352 131.53 83.3888 133.699L84.4884 133.809V132.704V125.578H91.5119V132.704V133.809L92.6115 133.699C114.265 131.53 131.531 114.264 133.7 92.6105L133.81 91.5108H132.705H125.579V84.4874H132.705ZM88.0002 140.953C58.8022 140.953 35.046 117.197 35.046 87.9991C35.046 58.8008 58.8022 35.0449 88.0002 35.0449C117.198 35.0449 140.954 58.8008 140.954 87.9991C140.954 117.197 117.198 140.953 88.0002 140.953Z" fill="#335C7C" stroke="white" stroke-width="2"/>
<path d="M91.5117 83.4883V84.4883H92.5117H112.98V91.5117H84.4883V63.02H91.5117V83.4883Z" fill="#335C7C" stroke="white" stroke-width="2"/>
</svg>
