<svg width="32" height="32" viewBox="0 0 32 32" fill="none" xmlns="http://www.w3.org/2000/svg">
<path d="M28.8478 16.4655L29.005 16.3887L28.8478 16.4655L29.9667 18.7545C30.5482 19.9441 30.0879 21.3609 28.9182 21.9815L29.0002 22.136L28.9182 21.9815L26.6676 23.1756L26.6676 23.1756C26.3772 23.3298 26.1774 23.6048 26.1206 23.9286L25.6803 26.438C25.4516 27.7423 24.2468 28.6179 22.9354 28.4324L20.4127 28.0756L20.4126 28.0756C20.0872 28.0299 19.764 28.1346 19.5275 28.3632L19.5275 28.3633L17.6964 30.1347L17.6963 30.1347C17.2202 30.5954 16.6098 30.8251 15.9999 30.8252C15.3898 30.8252 14.7798 30.5955 14.3034 30.1347L12.4723 28.3633L12.4723 28.3632C12.236 28.1347 11.9126 28.0294 11.587 28.0756L9.06445 28.4324C8.94666 28.4491 8.82958 28.4572 8.71431 28.4572C7.54501 28.4573 6.52771 27.6256 6.31941 26.4381L5.87926 23.9286L5.87925 23.9286C5.8224 23.6048 5.62262 23.3297 5.33209 23.1756L3.08154 21.9815L2.99952 22.136L3.08154 21.9815C1.91184 21.3608 1.45152 19.9442 2.03303 18.7545L3.15193 16.4657C3.29635 16.1702 3.29634 15.8303 3.15194 15.5348L3.15194 15.5348L2.0331 13.2459C1.45158 12.0563 1.91191 10.6395 3.08159 10.0189L3.0816 10.0189L5.33217 8.82481L5.3322 8.8248C5.62262 8.67065 5.8224 8.39561 5.87925 8.07177L5.87926 8.07175L6.31941 5.56237C6.5482 4.2581 7.7531 3.3824 9.06438 3.56798L9.06439 3.56798L11.587 3.92482L11.5871 3.92483C11.9127 3.97066 12.2358 3.86585 12.4722 3.63714L12.3506 3.51137L12.4722 3.63714L14.3034 1.86557L14.1817 1.73979L14.3034 1.86556C15.2551 0.94479 16.7447 0.944833 17.6964 1.86557L17.8181 1.73979L17.6964 1.86557L19.5275 3.63697C19.7638 3.86557 20.087 3.97063 20.4127 3.92465L20.4127 3.92464L22.9354 3.56781L22.9109 3.39453L22.9354 3.5678C24.2462 3.38234 25.4516 4.25795 25.6803 5.56219L26.1205 8.07169L26.1205 8.07172C26.1773 8.39548 26.3771 8.67059 26.6676 8.82469C26.6676 8.8247 26.6677 8.8247 26.6677 8.82471L28.9182 10.0188C30.0879 10.6394 30.5482 12.0561 29.9667 13.2457L28.8478 15.5347C28.7034 15.8301 28.7034 16.1701 28.8478 16.4655ZM23.1287 27.0657L23.1287 27.0657C23.6975 27.146 24.2217 26.7652 24.3209 26.1995L24.761 23.6901C24.892 22.9431 25.3508 22.3117 26.0207 21.9562L28.2713 20.7621C28.7786 20.4929 28.9789 19.8765 28.7266 19.3604L27.6077 17.0715C27.2747 16.3903 27.2747 15.6098 27.6077 14.9285L28.7266 12.6396C28.9788 12.1236 28.7786 11.5073 28.2712 11.2381L26.0206 10.044L25.9386 10.1986L26.0206 10.044C25.3507 9.6886 24.892 9.05721 24.7609 8.31023L24.3208 5.80073C24.2216 5.235 23.697 4.8541 23.1286 4.93453L20.6059 5.29136L20.6059 5.29136C19.8551 5.39764 19.1128 5.15643 18.5677 4.62912L16.7366 2.85772L16.7366 2.8577C16.3238 2.45848 15.6757 2.45845 15.263 2.85772L13.4318 4.62911C13.4318 4.62911 13.4318 4.62911 13.4318 4.62912C12.8867 5.15638 12.1443 5.39764 11.3936 5.29136L11.3936 5.29136L8.87095 4.93453L8.87092 4.93452C8.3021 4.85418 7.77803 5.23502 7.67875 5.80071L7.67874 5.80073L7.23859 8.31017C7.10759 9.05714 6.64881 9.68848 5.97894 10.044C5.97894 10.044 5.97893 10.044 5.97893 10.044L3.72838 11.2381C3.22101 11.5073 3.02075 12.1236 3.27296 12.6396L3.43018 12.5628L3.27296 12.6396L4.39186 14.9286C4.39186 14.9286 4.39186 14.9286 4.39186 14.9286C4.72487 15.6099 4.72487 16.3903 4.39186 17.0716L3.27296 19.3606L3.43018 19.4374L3.27296 19.3606C3.02075 19.8766 3.22101 20.4929 3.72837 20.7621L5.97894 21.9562L6.06097 21.8016L5.97895 21.9562C6.64886 22.3116 7.10759 22.943 7.23865 23.6899L7.67886 26.1994L7.85123 26.1692L7.67886 26.1995C7.77815 26.7652 8.30267 27.146 8.87105 27.0656L8.84656 26.8924L8.87107 27.0656L11.3937 26.7088C11.5101 26.6923 11.6263 26.6842 11.7415 26.6842C12.3695 26.6842 12.971 26.9252 13.4319 27.3711L15.263 29.1425L15.2631 29.1425C15.6759 29.5417 16.3239 29.5417 16.7367 29.1425L18.5678 27.3711C19.1129 26.8438 19.855 26.6025 20.606 26.7089L20.6061 26.7089L23.1287 27.0657Z" fill="#335C7C" stroke="white" stroke-width="0.35"/>
<path d="M22.1973 9.80241L22.1973 9.80242C22.4669 10.072 22.4669 10.5089 22.1973 10.7785L22.1973 10.7785L10.778 22.1977L10.778 22.1977C10.6433 22.3325 10.4669 22.3999 10.2901 22.3999C10.1132 22.3999 9.93689 22.3325 9.80209 22.1977C9.53258 21.9282 9.53258 21.4912 9.80209 21.2217L9.67834 21.098L9.80209 21.2217L21.2213 9.80242C21.4908 9.53291 21.9279 9.53293 22.1973 9.80241Z" fill="#335C7C" stroke="white" stroke-width="0.35"/>
<path d="M14.1562 11.3855V11.3855C14.1562 10.4938 13.4309 9.76864 12.5393 9.76864C11.6476 9.76864 10.9224 10.4938 10.9224 11.3855C10.9224 12.2773 11.6475 13.0024 12.5393 13.0024C13.431 13.0024 14.1561 12.2773 14.1562 11.3855ZM9.54207 11.3856C9.54207 9.73309 10.8868 8.38838 12.5393 8.38838C14.1917 8.38838 15.5364 9.73309 15.5364 11.3856C15.5364 13.0381 14.1917 14.3828 12.5393 14.3828C10.8868 14.3828 9.54207 13.0381 9.54207 11.3856Z" fill="#335C7C" stroke="white" stroke-width="0.35"/>
<path d="M16.4632 20.6141C16.4632 18.9616 17.8079 17.6169 19.4604 17.6169C21.1129 17.6169 22.4576 18.9616 22.4576 20.6141C22.4576 22.2666 21.1129 23.6113 19.4604 23.6113C17.8079 23.6113 16.4632 22.2666 16.4632 20.6141ZM17.8435 20.6141C17.8435 21.5058 18.5687 22.231 19.4604 22.231C20.3521 22.231 21.0773 21.5058 21.0773 20.6141C21.0773 19.7224 20.3521 18.9972 19.4604 18.9972C18.5686 18.9972 17.8435 19.7224 17.8435 20.6141Z" fill="#335C7C" stroke="white" stroke-width="0.35"/>
</svg>
