<svg width="32" height="32" viewBox="0 0 32 32" fill="none" xmlns="http://www.w3.org/2000/svg">
<path d="M7.31506 16.7554C6.99965 16.7555 6.68306 16.8749 6.44182 17.1143L5.67868 17.8718L5.67855 17.8716L5.6722 17.8785C5.40601 18.1655 5.29542 18.4922 5.31345 18.8069C5.33125 19.1174 5.4732 19.3998 5.68246 19.6074C6.10479 20.0265 6.8263 20.1595 7.4195 19.6174L7.41963 19.6176L7.42623 19.611L8.18898 18.8539C8.18909 18.8538 8.1892 18.8537 8.18931 18.8536C8.97202 18.0799 8.40048 16.749 7.31506 16.7554ZM7.31506 16.7554C7.31477 16.7554 7.31447 16.7554 7.31417 16.7554L7.31565 16.9804V16.7554C7.31546 16.7554 7.31526 16.7554 7.31506 16.7554ZM8.26139 20.9722L8.10289 20.8125L8.86645 20.0547L8.86652 20.0546C9.09974 19.8233 9.41047 19.6958 9.73941 19.6957C9.73954 19.6957 9.73967 19.6957 9.7398 19.6957L8.26139 20.9722ZM8.26139 20.9722L8.10289 20.8125C7.87002 21.0436 7.74069 21.3522 7.74008 21.6798C7.72757 22.3467 8.30983 22.9224 8.97709 22.9112C9.36929 22.916 9.70741 22.7226 9.94499 22.4579L10.6133 21.7946C10.6134 21.7945 10.6134 21.7945 10.6135 21.7944L8.26139 20.9722ZM27.4321 5.47537L27.4325 5.47582C30.4603 8.48104 30.4603 13.3708 27.4324 16.3761L26.6199 17.1825L26.5491 17.2528L26.5536 17.3525C26.6166 18.7204 25.4358 19.9435 24.0788 19.964L23.8606 19.9673L23.8572 20.1855C23.8371 21.479 22.6929 22.6173 21.3853 22.6374L21.1671 22.6407L21.1638 22.8589C21.1441 24.1396 20.0185 25.2742 18.7235 25.31L18.512 25.3159L18.5048 25.5273C18.4687 26.592 17.9709 27.0764 17.2261 27.8013C17.1505 27.8748 17.0724 27.9509 16.9919 28.0302L16.9909 28.0313C15.6054 29.4162 13.1889 28.7702 12.6877 26.8928L12.6294 26.6743L12.4111 26.7338C10.8811 27.1508 9.28433 26.0167 9.19553 24.4448L9.18333 24.2289L8.96711 24.2325C7.51636 24.2568 6.28602 22.9383 6.41169 21.5125L6.43079 21.2957L6.2148 21.2694C4.10567 21.0121 3.21983 18.3702 4.7669 16.9037L4.94119 16.7384L4.76497 16.5753C1.56111 13.6088 1.45616 8.54825 4.56416 5.47621L4.56416 5.47621L4.56494 5.47543C7.69094 2.35515 12.8539 2.50894 15.8327 5.75468L15.9985 5.93531L16.1643 5.75467C19.1429 2.50884 24.3061 2.3552 27.4321 5.47537ZM13.3969 22.6393L13.3966 22.639C12.8599 22.1084 12.0247 22.1874 11.553 22.7349L10.8877 23.3952C10.4045 23.8574 10.4046 24.6755 10.8878 25.1376C11.3701 25.6146 12.1521 25.6142 12.6337 25.136C12.6337 25.136 12.6337 25.136 12.6337 25.136L13.3969 24.3785L13.3969 24.3785C13.8799 23.899 13.8799 23.1188 13.3969 22.6393ZM12.8471 9.04754L14.8942 7.01575L15.0461 6.86501L14.9031 6.70576C12.4476 3.97012 8.12829 3.7942 5.51056 6.40994C2.87726 9.00623 3.04979 13.2905 5.80074 15.7295L5.9208 15.8359L6.06056 15.7571C7.81521 14.7673 10.0353 16.1562 9.88049 18.156L9.86363 18.3738L10.0808 18.3971C11.2527 18.5227 12.2508 19.5829 12.3041 20.7439L12.3141 20.9633L12.5337 20.9586C13.6351 20.9347 14.7385 21.7611 15.0043 22.8394L15.0589 23.0606L15.2793 23.0034C16.1233 22.7843 17.0562 22.996 17.7229 23.6358L17.8812 23.7876L17.8937 23.7752C18.375 24.1049 19.0405 24.0572 19.4686 23.6323C19.9517 23.1528 19.9517 22.3725 19.4686 21.893L15.655 18.1079L16.5986 17.1714L20.4145 20.9589C20.8967 21.4374 21.6799 21.4376 22.1621 20.9589C22.6451 20.4794 22.6451 19.6991 22.1621 19.2197L22.1621 19.2196L18.3485 15.4345L19.2921 14.498L23.1065 18.284C23.5712 18.7627 24.3925 18.7626 24.8572 18.2839C25.3386 17.8043 25.3381 17.0252 24.8558 16.5463L24.8558 16.5463L19.4702 11.2009L19.3436 11.0752L19.1923 11.1699C17.7171 12.0935 15.7384 11.9174 14.4555 10.6439L14.4555 10.6439L12.8471 9.04754ZM26.4866 15.442L26.4867 15.4421L26.493 15.4353C27.927 13.8896 28.4795 12.188 28.3882 10.5913C28.2972 8.99883 27.5668 7.52749 26.4644 6.43305C24.2559 4.24034 20.5298 3.54279 17.3983 6.40352L17.3981 6.40338L17.3915 6.40995L14.895 8.88785L14.7341 9.04754L14.895 9.20723L15.4013 9.70975L15.4013 9.70976C16.3688 10.67 17.9416 10.6698 18.9089 9.70976L19.3819 9.24034L25.8016 15.6121C25.8318 15.6422 25.8613 15.6729 25.8899 15.7042L26.0481 15.8771L26.2144 15.712L26.4866 15.442ZM16.0456 27.0966L16.8071 26.3407C17.2904 25.8785 17.2903 25.0604 16.807 24.5982C16.3247 24.1213 15.5426 24.1219 15.0611 24.5999L14.2996 25.3558C13.8162 25.8179 13.8165 26.6361 14.2995 27.0982C14.5327 27.3288 14.8431 27.456 15.1718 27.456C15.5011 27.456 15.8122 27.3282 16.0456 27.0966Z" fill="#335C7C" stroke="white" stroke-width="0.45"/>
</svg>
