<svg width="32" height="32" viewBox="0 0 32 32" fill="none" xmlns="http://www.w3.org/2000/svg">
<path d="M11.3332 22.0669H10.3998C10.1421 22.0669 9.93315 22.2758 9.93315 22.5336C9.93315 22.7913 10.1421 23.0002 10.3998 23.0002H11.3332C11.5909 23.0002 11.7998 22.7913 11.7998 22.5336C11.7998 22.2758 11.5909 22.0669 11.3332 22.0669Z" fill="#335C7C"/>
<path d="M24.3998 22.0669H13.1998C12.9421 22.0669 12.7331 22.2758 12.7331 22.5336C12.7331 22.7913 12.9421 23.0002 13.1998 23.0002H24.3998C24.6575 23.0002 24.8665 22.7913 24.8665 22.5336C24.8665 22.2758 24.6575 22.0669 24.3998 22.0669Z" fill="#335C7C"/>
<path d="M11.3332 19.2666H10.3998C10.1421 19.2666 9.93315 19.4756 9.93315 19.7333C9.93315 19.991 10.1421 20.1999 10.3998 20.1999H11.3332C11.5909 20.1999 11.7998 19.991 11.7998 19.7333C11.7998 19.4756 11.5909 19.2666 11.3332 19.2666Z" fill="#335C7C"/>
<path d="M24.3998 19.2666H13.1998C12.9421 19.2666 12.7331 19.4756 12.7331 19.7333C12.7331 19.991 12.9421 20.1999 13.1998 20.1999H24.3998C24.6575 20.1999 24.8665 19.991 24.8665 19.7333C24.8665 19.4756 24.6575 19.2666 24.3998 19.2666Z" fill="#335C7C"/>
<path d="M11.3332 16.4668H10.3998C10.1421 16.4668 9.93315 16.6757 9.93315 16.9335C9.93315 17.1912 10.1421 17.4001 10.3998 17.4001H11.3332C11.5909 17.4001 11.7998 17.1912 11.7998 16.9335C11.7998 16.6757 11.5909 16.4668 11.3332 16.4668Z" fill="#335C7C"/>
<path d="M24.3998 16.4668H13.1998C12.9421 16.4668 12.7331 16.6757 12.7331 16.9335C12.7331 17.1912 12.9421 17.4001 13.1998 17.4001H24.3998C24.6575 17.4001 24.8665 17.1912 24.8665 16.9335C24.8665 16.6757 24.6575 16.4668 24.3998 16.4668Z" fill="#335C7C"/>
<path d="M11.3332 13.6665H10.3998C10.1421 13.6665 9.93315 13.8755 9.93315 14.1332C9.93315 14.3909 10.1421 14.5998 10.3998 14.5998H11.3332C11.5909 14.5998 11.7998 14.3909 11.7998 14.1332C11.7998 13.8755 11.5909 13.6665 11.3332 13.6665Z" fill="#335C7C"/>
<path d="M24.3998 13.6665H13.1998C12.9421 13.6665 12.7331 13.8755 12.7331 14.1332C12.7331 14.3909 12.9421 14.5998 13.1998 14.5998H24.3998C24.6575 14.5998 24.8665 14.3909 24.8665 14.1332C24.8665 13.8755 24.6575 13.6665 24.3998 13.6665Z" fill="#335C7C"/>
<path d="M11.3332 10.8667H10.3998C10.1421 10.8667 9.93315 11.0756 9.93315 11.3334C9.93315 11.5911 10.1421 11.8 10.3998 11.8H11.3332C11.5909 11.8 11.7998 11.5911 11.7998 11.3334C11.7998 11.0756 11.5909 10.8667 11.3332 10.8667Z" fill="#335C7C"/>
<path d="M24.3998 10.8667H13.1998C12.9421 10.8667 12.7331 11.0756 12.7331 11.3334C12.7331 11.5911 12.9421 11.8 13.1998 11.8H24.3998C24.6575 11.8 24.8665 11.5911 24.8665 11.3334C24.8665 11.0756 24.6575 10.8667 24.3998 10.8667Z" fill="#335C7C"/>
<path d="M27.6604 8.9706C27.6581 8.92971 27.6501 8.88934 27.6366 8.85067C27.6315 8.83573 27.6278 8.82127 27.6212 8.8068C27.5985 8.75605 27.5669 8.70973 27.5279 8.67007L20.9945 2.13673C20.9549 2.09771 20.9086 2.06609 20.8578 2.0434C20.8433 2.03687 20.8289 2.03313 20.8144 2.028C20.7754 2.01458 20.7347 2.00642 20.6935 2.00373C20.6856 2.00513 20.6767 2 20.6665 2H7.59981C7.3421 2 7.13315 2.20895 7.13315 2.46667V3.86667H4.79981C4.5421 3.86667 4.33315 4.07562 4.33315 4.33333V29.5333C4.33315 29.791 4.5421 30 4.79981 30H24.3998C24.6575 30 24.8665 29.791 24.8665 29.5333V27.2H27.1998C27.4575 27.2 27.6665 26.9911 27.6665 26.7333V9C27.6665 8.98973 27.6614 8.98087 27.6604 8.9706ZM21.1331 3.5932L26.0733 8.53333H21.1331V3.5932ZM23.9331 29.0667H5.26648V4.8H7.13315V26.7333C7.13315 26.9911 7.3421 27.2 7.59981 27.2H23.9331V29.0667ZM26.7332 26.2667H8.06648V2.93333H20.1998V9C20.1998 9.25772 20.4088 9.46667 20.6665 9.46667H26.7332V26.2667Z" fill="#335C7C"/>
<path d="M13.1998 6.20068H10.3998C10.1421 6.20068 9.93315 6.40963 9.93315 6.66735V9.46735C9.93315 9.72507 10.1421 9.93402 10.3998 9.93402H13.1998C13.4575 9.93402 13.6665 9.72507 13.6665 9.46735V6.66735C13.6665 6.40963 13.4575 6.20068 13.1998 6.20068ZM12.7332 9.00068H10.8665V7.13402H12.7332V9.00068Z" fill="#335C7C"/>
</svg>
