<svg width="32" height="32" viewBox="0 0 32 32" fill="none" xmlns="http://www.w3.org/2000/svg">
<path d="M20.1212 11.4638C20.0006 11.4638 19.885 11.4159 19.7997 11.3306L15.6783 7.20871C15.6351 7.16558 15.6011 7.11421 15.5782 7.05764C15.5553 7.00108 15.544 6.94048 15.545 6.87947C15.5461 6.81846 15.5594 6.75827 15.5841 6.7025C15.6089 6.64673 15.6446 6.59652 15.6892 6.55485L22.4797 0.218596C22.5659 0.138089 22.68 0.0942231 22.7979 0.0962592C22.9159 0.0982954 23.0284 0.146074 23.1117 0.229509L25.8668 2.98591C25.9425 3.06168 25.989 3.16175 25.9982 3.26848C26.0073 3.3752 25.9785 3.48173 25.9168 3.56929L20.4931 11.271C20.455 11.3251 20.4055 11.3703 20.348 11.4032C20.2906 11.4362 20.2267 11.4563 20.1607 11.462C20.1476 11.4633 20.1344 11.4639 20.1212 11.4638ZM16.6541 6.89815L20.0607 10.3052L24.9547 3.35831L22.7789 1.18302L16.6541 6.89815Z" fill="#335C7C"/>
<path d="M11.8702 11.4638C11.8575 11.4638 11.8438 11.4638 11.8306 11.4638C11.7646 11.458 11.7007 11.4379 11.6433 11.4049C11.5859 11.3718 11.5364 11.3266 11.4983 11.2724L6.08095 3.56883C6.01959 3.48111 5.99115 3.37456 6.00063 3.26792C6.01011 3.16129 6.05691 3.06142 6.13279 2.98591L8.88964 0.229509C8.973 0.146074 9.08552 0.0982954 9.20345 0.0962592C9.32138 0.0942231 9.43548 0.138089 9.52167 0.218596L16.3104 6.55304C16.3549 6.59474 16.3906 6.64497 16.4153 6.70076C16.4401 6.75654 16.4533 6.81674 16.4543 6.87775C16.4553 6.93876 16.4439 6.99935 16.421 7.0559C16.3981 7.11244 16.364 7.1638 16.3208 7.2069L12.1912 11.3288C12.1492 11.3713 12.0992 11.4051 12.0442 11.4282C11.9891 11.4514 11.93 11.4635 11.8702 11.4638ZM7.04492 3.35831L11.9316 10.3057L15.3455 6.89816L9.22066 1.18302L7.04492 3.35831Z" fill="#335C7C"/>
<path d="M22.7903 1.00657H9.20934C9.08875 1.00657 8.97309 0.958664 8.88782 0.873391C8.80254 0.788118 8.75464 0.672463 8.75464 0.551869C8.75464 0.431275 8.80254 0.31562 8.88782 0.230347C8.97309 0.145074 9.08875 0.097168 9.20934 0.097168H22.7903C22.9109 0.097168 23.0266 0.145074 23.1119 0.230347C23.1971 0.31562 23.245 0.431275 23.245 0.551869C23.245 0.672463 23.1971 0.788118 23.1119 0.873391C23.0266 0.958664 22.9109 1.00657 22.7903 1.00657Z" fill="#335C7C"/>
<path d="M18.2053 13.374H13.7901C13.6933 13.3741 13.5989 13.3432 13.5208 13.286C13.4427 13.2287 13.3849 13.148 13.3559 13.0557L12.4465 10.1365C12.4106 10.0213 12.422 9.89661 12.478 9.78981C12.5341 9.683 12.6303 9.60285 12.7455 9.56697C12.8606 9.53109 12.9853 9.54244 13.0921 9.5985C13.1989 9.65457 13.2791 9.75077 13.315 9.86594L14.1248 12.4646H17.8697L18.6754 9.86548C18.7128 9.75241 18.7931 9.65852 18.899 9.60402C19.0049 9.54951 19.128 9.53872 19.2417 9.57398C19.3555 9.60924 19.4509 9.68773 19.5074 9.79258C19.5639 9.89742 19.577 10.0203 19.5439 10.1347L18.6372 13.0557C18.6083 13.1477 18.5509 13.2281 18.4732 13.2853C18.3956 13.3425 18.3017 13.3736 18.2053 13.374Z" fill="#335C7C"/>
<path d="M15.9943 31.4718C15.9258 31.4718 15.8582 31.4563 15.7966 31.4264C15.7349 31.3966 15.6808 31.3532 15.6383 31.2995L11.7233 26.3619C11.6855 26.3143 11.6577 26.2596 11.6415 26.201C11.6252 26.1424 11.6209 26.0812 11.6287 26.0209L13.3393 12.8614C13.3536 12.7519 13.4071 12.6514 13.49 12.5785C13.5729 12.5056 13.6795 12.4654 13.7899 12.4653H18.2042C18.3147 12.4653 18.4214 12.5055 18.5045 12.5785C18.5875 12.6515 18.6411 12.7522 18.6552 12.8618L20.3603 26.0213C20.3681 26.0816 20.3637 26.1429 20.3474 26.2015C20.3311 26.2601 20.3032 26.3148 20.2653 26.3624L16.3503 31.2995C16.3078 31.3532 16.2537 31.3966 16.192 31.4264C16.1304 31.4563 16.0628 31.4718 15.9943 31.4718ZM12.555 25.9477L15.9943 30.2855L19.4332 25.9477L17.8045 13.3747H14.1896L12.555 25.9477Z" fill="#335C7C"/>
</svg>
