<svg width="25" height="25" viewBox="0 0 25 25" fill="none" xmlns="http://www.w3.org/2000/svg">
<path d="M25 24.9639H0V9.72949H25V24.9639Z" fill="#FFEBAE"/>
<path d="M12.5 9.72949H25V24.9639H12.5V9.72949Z" fill="#FFDB69"/>
<path d="M20.0684 22.0342H15.6738V9.72949H20.0684V22.0342Z" fill="#39C453"/>
<path d="M22.0215 24.9639H13.7207V22.7666C13.7207 21.5551 14.7064 20.5693 15.918 20.5693H19.8242C21.0358 20.5693 22.0215 21.5551 22.0215 22.7666V24.9639Z" fill="#0EA620"/>
<path d="M9.32617 22.0342H4.93164V9.72949H9.32617V22.0342Z" fill="#87E694"/>
<path d="M11.2793 24.9639H2.97852V22.7666C2.97852 21.5551 3.96423 20.5693 5.17578 20.5693H9.08203C10.2936 20.5693 11.2793 21.5551 11.2793 22.7666V24.9639Z" fill="#39C453"/>
<path d="M25 11.194H0V7.10583L12.5 0L25 7.10583V11.194Z" fill="#D2F5D7"/>
<path d="M25 7.10583L12.5 0V11.194H25V7.10583Z" fill="#87E694"/>
<path d="M12.5 8.26465C11.2885 8.26465 10.3027 7.27893 10.3027 6.06738C10.3027 4.85584 11.2885 3.87012 12.5 3.87012C13.7115 3.87012 14.6973 4.85584 14.6973 6.06738C14.6973 7.27893 13.7115 8.26465 12.5 8.26465Z" fill="#FFEBAE"/>
<path d="M14.6973 6.06738C14.6973 4.85584 13.7115 3.87012 12.5 3.87012V8.26465C13.7115 8.26465 14.6973 7.27893 14.6973 6.06738Z" fill="#FFDB69"/>
<path d="M25 24.9639H0V23.499H25V24.9639Z" fill="#D2F5D7"/>
<path d="M25 24.9639H12.5V23.499H25V24.9639Z" fill="#87E694"/>
</svg>
