<svg width="25" height="25" viewBox="0 0 25 25" fill="none" xmlns="http://www.w3.org/2000/svg">
<path d="M20.5566 13.2324H16.1621V5.12695C16.1621 3.91541 17.1478 2.92969 18.3594 2.92969C19.5709 2.92969 20.5566 3.91541 20.5566 5.12695V13.2324Z" fill="#FFBB85"/>
<path d="M17.627 13.2324H13.2324V3.66211C13.2324 2.45056 14.2181 1.46484 15.4297 1.46484C16.6412 1.46484 17.627 2.45056 17.627 3.66211V13.2324Z" fill="#F5A86C"/>
<path d="M14.6973 13.2324H10.3027V2.19727C10.3027 0.985718 11.2885 0 12.5 0C13.7115 0 14.6973 0.985718 14.6973 2.19727V13.2324Z" fill="#FDD1A3"/>
<path d="M14.6973 2.19727C14.6973 0.985718 13.7115 0 12.5 0V13.2324H14.6973V2.19727Z" fill="#FFBB85"/>
<path d="M17.3828 25H10.5469C8.79688 25 7.37305 23.5762 7.37305 21.8262V11.7676H20.5566V21.8262C20.5566 23.5762 19.1328 25 17.3828 25Z" fill="#FDD1A3"/>
<path d="M12.5 25H17.3828C19.1328 25 20.5566 23.5762 20.5566 21.8262V11.7676H12.5V25Z" fill="#FFBB85"/>
<path d="M11.7676 13.2324H7.37305V3.66211C7.37305 2.45056 8.35876 1.46484 9.57031 1.46484C10.7819 1.46484 11.7676 2.45056 11.7676 3.66211V13.2324Z" fill="#FFBB85"/>
<path d="M23.9746 15.0879H1.02539V4.3457H23.9746V15.0879Z" fill="#D2F5D7"/>
<path d="M12.5 4.3457H23.9746V15.0879H12.5V4.3457Z" fill="#87E694"/>
<path d="M21.0449 15.0879H3.95508V14.3555C3.95508 13.1439 2.96936 12.1582 1.75781 12.1582H1.02539V7.27539H1.75781C2.96936 7.27539 3.95508 6.28967 3.95508 5.07812V4.3457H21.0449V5.07812C21.0449 6.28967 22.0306 7.27539 23.2422 7.27539H23.9746V12.1582H23.2422C22.0306 12.1582 21.0449 13.1439 21.0449 14.3555V15.0879Z" fill="#87E694"/>
<path d="M21.0449 5.07812V4.3457H12.5V15.0879H21.0449V14.3555C21.0449 13.1439 22.0306 12.1582 23.2422 12.1582H23.9746V7.27539H23.2422C22.0306 7.27539 21.0449 6.28967 21.0449 5.07812Z" fill="#39C453"/>
<path d="M12.5488 12.1582C11.2026 12.1582 10.1074 11.063 10.1074 9.7168C10.1074 8.37059 11.2026 7.27539 12.5488 7.27539C13.895 7.27539 14.9902 8.37059 14.9902 9.7168C14.9902 11.063 13.895 12.1582 12.5488 12.1582Z" fill="#39C453"/>
<path d="M12.5488 7.27539C12.5324 7.27539 12.5164 7.27634 12.5 7.27654V12.1569C12.5164 12.1572 12.5324 12.1582 12.5488 12.1582C13.895 12.1582 14.9902 11.063 14.9902 9.7168C14.9902 8.37059 13.895 7.27539 12.5488 7.27539Z" fill="#0EA620"/>
<path d="M14.209 21.1425C14.209 18.0247 11.8595 15.4454 8.83789 15.0826V10.0402C8.83789 8.84447 7.87964 7.84559 6.70185 7.81335C6.10352 7.79695 5.53722 8.01744 5.10845 8.43477C4.67949 8.8521 4.44336 9.41133 4.44336 10.0097V18.5546C4.44336 20.3633 5.71117 21.8804 7.40433 22.2669C7.61967 23.809 8.94642 24.9999 10.5469 24.9999H14.209V21.1425Z" fill="#F5A86C"/>
</svg>
