<svg width="25" height="25" viewBox="0 0 25 25" fill="none" xmlns="http://www.w3.org/2000/svg">
<path d="M18.3594 25H6.64062C5.42908 25 4.44336 24.0143 4.44336 22.8027V2.19727C4.44336 0.985718 5.42908 0 6.64062 0H18.3594C19.5709 0 20.5566 0.985718 20.5566 2.19727V22.8027C20.5566 24.0143 19.5709 25 18.3594 25Z" fill="#AEECFF"/>
<path d="M18.3594 0H12.5V25H18.3594C19.5709 25 20.5566 24.0143 20.5566 22.8027V2.19727C20.5566 0.985718 19.5709 0 18.3594 0Z" fill="#69D5FF"/>
<path d="M12.5 2.92969H15.4297V4.39453H12.5V2.92969Z" fill="#008BBC"/>
<path d="M11.0352 3.66211C11.0352 4.06666 10.7073 4.39453 10.3027 4.39453C9.89819 4.39453 9.57031 4.06666 9.57031 3.66211C9.57031 3.25756 9.89819 2.92969 10.3027 2.92969C10.7073 2.92969 11.0352 3.25756 11.0352 3.66211Z" fill="#13B8FF"/>
<path d="M16.6504 22.0703H8.34961V16.2109H16.6504V22.0703Z" fill="#FFC814"/>
<path d="M14.5945 12.4563C14.035 11.8969 13.2912 11.5889 12.5 11.5889C11.7088 11.5889 10.965 11.8969 10.4055 12.4563L9.36984 11.4206C10.2058 10.5845 11.3174 10.124 12.5 10.124C13.6824 10.124 14.794 10.5845 15.6301 11.4206L14.5945 12.4563Z" fill="#FF8891"/>
<path d="M16.6696 10.3808C14.3705 8.08173 10.6295 8.08173 8.33034 10.3808L7.29465 9.34516C10.1648 6.47479 14.8352 6.47479 17.7053 9.34516L16.6696 10.3808Z" fill="#FF8891"/>
<path d="M12.5193 14.5316C12.5086 14.5211 12.4914 14.5211 12.4807 14.5316L11.445 13.4959C12.0268 12.9141 12.9732 12.9141 13.5549 13.4959L12.5193 14.5316Z" fill="#FF8891"/>
<path d="M16.6504 22.0703H12.5V16.2109H16.6504V22.0703Z" fill="#FFAB00"/>
<path d="M12.5193 14.5317L13.555 13.496C13.2641 13.2051 12.882 13.0596 12.5 13.0596V14.5237C12.5071 14.5238 12.5139 14.5263 12.5193 14.5317Z" fill="#FF515E"/>
<path d="M14.5945 12.4563L15.6301 11.4206C14.7942 10.5845 13.6826 10.124 12.5 10.124V11.5889C13.2912 11.5889 14.035 11.8969 14.5945 12.4563Z" fill="#FF515E"/>
<path d="M16.6697 10.3809L17.7053 9.34521C16.2703 7.90993 14.3852 7.19238 12.5 7.19238V8.65665C14.01 8.65665 15.5201 9.23134 16.6697 10.3809Z" fill="#FF515E"/>
</svg>
