<svg width="25" height="25" viewBox="0 0 25 25" fill="none" xmlns="http://www.w3.org/2000/svg">
<path d="M25 20.8008H0V4.19922H25V20.8008Z" fill="#69D5FF"/>
<path d="M12.5 4.19922H25V20.8008H12.5V4.19922Z" fill="#13B8FF"/>
<path d="M17.5987 16.2784L16.342 15.5259C16.8907 14.6095 17.1789 13.5568 17.1757 12.4814C17.1723 11.4061 16.877 10.3547 16.322 9.44151L17.5738 8.68066C18.2673 9.82183 18.6363 11.1347 18.6405 12.4769C18.6447 13.8187 18.2844 15.1332 17.5987 16.2784Z" fill="#008BBC"/>
<path d="M20.0483 17.5629L18.78 16.8297C20.3322 14.1449 20.3245 10.8139 18.7603 8.13656L20.0251 7.39746C21.8542 10.5282 21.8632 14.4234 20.0483 17.5629Z" fill="#008BBC"/>
<path d="M20.0483 17.5629L18.78 16.8297C20.3322 14.1449 20.3245 10.8139 18.7603 8.13656L20.0251 7.39746C21.8542 10.5282 21.8632 14.4234 20.0483 17.5629Z" fill="#008BBC"/>
<path d="M14.9818 14.927L13.7575 14.1228C14.4133 13.1244 14.4056 11.8388 13.7379 10.8477L14.9527 10.0293C15.9512 11.5113 15.9626 13.4337 14.9818 14.927Z" fill="#008BBC"/>
<path d="M3.41797 15.4297H5.37109V16.8945H3.41797V15.4297Z" fill="#AEECFF"/>
<path d="M6.83594 15.4297H8.78906V16.8945H6.83594V15.4297Z" fill="#AEECFF"/>
<path d="M10.2539 15.4297H12.207V16.8945H10.2539V15.4297Z" fill="#AEECFF"/>
<path d="M7.54662 13.0952H5.29518C4.47559 13.0952 3.80859 12.4282 3.80859 11.6085V9.48483C3.80859 8.66505 4.47559 7.99805 5.29518 7.99805H7.54662C8.3662 7.99805 9.0332 8.66505 9.0332 9.48483V11.6085C9.0332 12.4282 8.3662 13.0952 7.54662 13.0952Z" fill="#FEB158"/>
<path d="M7.71484 13.4766H5.12695C4.18453 13.4766 3.41797 12.71 3.41797 11.7676V9.32617C3.41797 8.38375 4.18453 7.61719 5.12695 7.61719H7.71484C8.65726 7.61719 9.42383 8.38375 9.42383 9.32617V11.7676C9.42383 12.71 8.65726 13.4766 7.71484 13.4766ZM5.12695 9.08203C4.99229 9.08203 4.88281 9.19151 4.88281 9.32617V11.7676C4.88281 11.9022 4.99229 12.0117 5.12695 12.0117H7.71484C7.8495 12.0117 7.95898 11.9022 7.95898 11.7676V9.32617C7.95898 9.19151 7.8495 9.08203 7.71484 9.08203H5.12695Z" fill="#FFDB69"/>
</svg>
