<svg width="40" height="40" viewBox="0 0 40 40" fill="none" xmlns="http://www.w3.org/2000/svg">
<g clip-path="url(#clip0)">
<path d="M34.8835 33.8299C34.7283 32.7019 34.4293 31.4164 33.9194 29.9701C31.5783 23.3346 23.9226 22.2491 23.9226 22.2491C23.35 22.5935 22.7274 22.8645 22.0694 23.0499C21.4113 23.2354 20.7177 23.3346 20 23.3346C19.2823 23.3346 18.5887 23.2354 17.9306 23.0499C17.2726 22.8645 16.65 22.5934 16.0774 22.2491C16.0774 22.2491 14.1637 22.5209 11.9573 23.6209C9.75 24.7226 7.25164 26.6524 6.08062 29.9702C5.5707 31.4165 5.27172 32.702 5.11648 33.83L20.0002 34.5558L34.8835 33.8299Z" fill="#F4594E"/>
<path d="M33.919 29.9703C31.5784 23.3343 23.9226 22.2495 23.9226 22.2495C22.7763 22.9381 21.4345 23.3343 20 23.3343C18.5655 23.3343 17.2237 22.938 16.0774 22.2495C14.9312 21.561 8.42156 23.3343 6.08101 29.9703C5.33726 32.0791 5.04234 33.8462 4.98742 35.2816H35.0127C34.9577 33.8462 34.6627 32.0791 33.919 29.9703Z" fill="#F4594E"/>
<path d="M5.1168 33.8301C5.04571 34.3469 5.00461 34.8307 4.98735 35.2817L20.1045 36.0075L35.0126 35.2817C34.9953 34.8307 34.9543 34.3469 34.8832 33.8301H5.1168Z" fill="#E84642"/>
<path d="M16.4034 22.4344C16.3961 22.5283 16.3913 22.6227 16.3913 22.7184C16.3913 24.7116 18.007 26.3273 20.0002 26.3273C21.9934 26.3273 23.6092 24.7116 23.6092 22.7184C23.6092 22.6227 23.6044 22.5282 23.597 22.4344H16.4034Z" fill="#EBBAA1"/>
<path d="M11.7718 31.3806V33.83L11.167 34.5558L10.5621 33.83V31.3806C10.5621 31.0467 10.8331 30.7758 11.167 30.7758C11.5016 30.7758 11.7718 31.0468 11.7718 31.3806Z" fill="#DB4040"/>
<path d="M29.4379 31.3806V33.83L28.833 34.5558L28.2282 33.83V31.3806C28.2282 31.0467 28.4991 30.7758 28.833 30.7758C29.167 30.7758 29.4379 31.0468 29.4379 31.3806Z" fill="#DB4040"/>
<path d="M11.7718 35.2816L11.167 36.0073L10.5621 35.2816V33.8301H11.7718V35.2816Z" fill="#C63C3C"/>
<path d="M29.4379 35.2816L28.833 36.0073L28.2282 35.2816V33.8301H29.4379V35.2816Z" fill="#C63C3C"/>
<path d="M29.3185 35.2816H20.105C20.1048 35.2816 20.1046 35.2816 20.1046 35.2816L22.6058 38.5484L24.9882 39.2742H30.9674C32.9337 39.2742 35.0127 37.2779 35.0127 35.2816H29.3185Z" fill="#EBBAA1"/>
<path d="M35.0127 35.2816C34.6459 37.1472 32.9336 38.5484 30.9673 38.5484H24.7832L24.2587 39.2543L25.0806 40H30.9673C33.1757 40 34.9791 38.2329 35.021 36.0248C35.0255 35.7883 35.0225 35.5397 35.0127 35.2816Z" fill="#E8A990"/>
<path d="M9.03265 39.2742H21.2722L24.7831 38.5484C24.0813 36.6343 22.2444 35.2816 20.1045 35.2816H10.6815H4.98742C4.98734 37.4433 7.0664 39.2742 9.03265 39.2742Z" fill="#FDD4BB"/>
<path d="M9.03266 38.5483C7.06641 38.5483 5.35414 37.1471 4.98734 35.2815C4.9775 35.5395 4.97437 35.7881 4.97891 36.0247C5.02086 38.2328 6.82422 39.9999 9.03266 39.9999H25.0806C25.0536 39.4912 24.9502 39.004 24.7831 38.5483H9.03266Z" fill="#F7C4A8"/>
<path d="M10.0678 13.0207C10.0678 13.0207 7.87641 10.0684 7.7825 5.79805C7.77727 5.55915 7.98899 5.37321 8.2257 5.40579C8.71524 5.47313 9.53266 5.53055 10.2859 5.32743C12.5879 4.70673 14.8528 0.139851 18.8432 0.006804C22.8337 -0.126243 23.6075 1.73602 23.6075 1.73602C23.6075 1.73602 25.0755 0.863367 27.2675 1.15962C30.5485 1.60298 33.4306 6.60149 30.5014 13.4683L10.0678 13.0207Z" fill="#E5907B"/>
<path d="M8.96437 14.3688C8.96437 15.8495 10.1679 16.7219 11.2269 16.7219L12.3702 15.7248C12.3702 15.7184 13.3676 14.3752 13.3676 14.3688L12.3698 13.0116C12.0306 12.8251 11.6412 12.7188 11.2268 12.7188C10.1679 12.7188 9.27117 13.4117 8.96437 14.3688Z" fill="#EBBAA1"/>
<path d="M11.2268 16.0187C10.1679 16.0187 9.27117 15.3257 8.96437 14.3687C8.89102 14.5975 8.85102 14.8412 8.85102 15.0944C8.85102 16.4065 9.91469 17.4702 11.2268 17.4702C11.6944 17.4702 12.13 17.3346 12.4976 17.1014L13.1205 16.2708L12.3702 15.7246C12.0309 15.9115 11.6416 16.0187 11.2268 16.0187Z" fill="#E8A990"/>
<path d="M31.0326 14.3688C31.0326 15.8495 29.8291 16.7219 28.7702 16.7219L27.6268 15.7248C27.6268 15.7184 26.6295 14.3752 26.6295 14.3688L27.6273 13.0116C27.9664 12.8251 28.3559 12.7188 28.7702 12.7188C29.8291 12.7188 30.7258 13.4117 31.0326 14.3688Z" fill="#EBBAA1"/>
<path d="M28.7702 16.0187C29.8291 16.0187 30.7258 15.3257 31.0326 14.3687C31.106 14.5975 31.146 14.8412 31.146 15.0944C31.146 16.4065 30.0823 17.4702 28.7702 17.4702C28.3027 17.4702 27.867 17.3346 27.4995 17.1014L26.8766 16.2708L27.6268 15.7246C27.9661 15.9115 28.3555 16.0187 28.7702 16.0187Z" fill="#E8A990"/>
<path d="M19.9985 22.5858C24.2117 22.5858 27.6273 19.6258 27.6273 14.254V12.0637C27.6273 11.3959 27.3554 10.7533 26.8646 10.3006C25.4402 8.98655 23.8545 6.7132 23.2175 5.76382C23.0712 5.54585 22.7609 5.52554 22.5837 5.71914C19.3704 9.22859 15.2081 10.3981 13.3457 10.7619C12.7783 10.8728 12.3699 11.3706 12.3699 11.9487V14.254C12.3698 19.3232 15.7852 22.5858 19.9985 22.5858Z" fill="#FDD4BB"/>
<path d="M19.9985 21.8828C15.7853 21.8828 12.3698 18.4674 12.3698 14.2542V15.7058C12.3698 19.919 15.7852 23.3345 19.9984 23.3345C24.2116 23.3345 27.6271 19.9189 27.6271 15.7058V14.2542C27.6272 18.4673 24.2117 21.8828 19.9985 21.8828Z" fill="#F7C4A8"/>
<path d="M18.267 19.5624C18.602 19.5624 18.8735 19.2908 18.8735 18.9558C18.8735 18.3346 19.3788 17.8293 20 17.8293C20.6212 17.8293 21.1265 18.3346 21.1265 18.9558C21.1265 19.2908 21.398 19.5624 21.733 19.5624C22.068 19.5624 22.3396 19.2908 22.3396 18.9558C22.3396 17.6657 21.2901 16.6162 20 16.6162C18.7099 16.6162 17.6603 17.6657 17.6603 18.9558C17.6603 19.2908 17.932 19.5624 18.267 19.5624Z" fill="#F4594E"/>
<path d="M15.232 15.025C15.3433 15.2229 15.5491 15.3342 15.7611 15.3342C15.8619 15.3342 15.9641 15.3091 16.058 15.2561L17.6214 14.3761C17.8158 14.2667 17.9345 14.0595 17.9303 13.8365C17.9262 13.6134 17.8002 13.4107 17.602 13.3084L16.0386 12.5018C15.7408 12.348 15.375 12.465 15.2214 12.7627C15.0678 13.0605 15.1846 13.4263 15.4823 13.5799L16.0459 13.8707L15.463 14.1989C15.1711 14.3632 15.0677 14.7331 15.232 15.025Z" fill="#565E75"/>
<path d="M22.3785 14.3761L23.942 15.2561C24.036 15.309 24.1381 15.3342 24.2389 15.3342C24.4509 15.3342 24.6567 15.2229 24.768 15.025C24.9323 14.7331 24.829 14.3632 24.5369 14.1989L23.954 13.8707L24.5176 13.5799C24.8152 13.4263 24.9321 13.0604 24.7785 12.7627C24.6249 12.465 24.2591 12.3481 23.9613 12.5018L22.3979 13.3084C22.1997 13.4107 22.0736 13.6134 22.0695 13.8364C22.0655 14.0594 22.1841 14.2667 22.3785 14.3761Z" fill="#565E75"/>
<path d="M14.8703 33.3878C15.1527 33.5589 15.5291 33.4699 15.7027 33.1803L16.6556 31.5948C16.9033 31.2103 16.5927 30.6614 16.1356 30.6757H15.5524L16.0427 29.8574C16.2148 29.5701 16.1215 29.1975 15.8341 29.0253C15.5468 28.8531 15.1741 28.9466 15.002 29.2339L13.9615 30.9706C13.7145 31.3551 14.0251 31.9031 14.4818 31.8889H15.0634L14.6628 32.5554C14.4902 32.8426 14.5831 33.2153 14.8703 33.3878Z" fill="#FFDE91"/>
<path d="M24.652 33.3878C24.9344 33.5589 25.3109 33.4699 25.4844 33.1803L26.4373 31.5948C26.685 31.2103 26.3744 30.6614 25.9173 30.6757H25.3341L25.8244 29.8574C25.9966 29.5701 25.9031 29.1975 25.6158 29.0253C25.3284 28.8531 24.9559 28.9466 24.7837 29.2339L23.7432 30.9706C23.4962 31.3551 23.8068 31.9031 24.2635 31.8889H24.8451L24.4445 32.5554C24.272 32.8426 24.3649 33.2153 24.652 33.3878Z" fill="#FFDE91"/>
<path d="M19.5619 32.6714C19.8443 32.8425 20.2207 32.7536 20.3943 32.4639L21.3471 30.8784C21.5948 30.4939 21.2842 29.9451 20.8272 29.9593H20.244L20.7342 29.1411C20.9064 28.8537 20.813 28.4811 20.5256 28.309C20.2381 28.1368 19.8657 28.2302 19.6935 28.5175L18.653 30.2542C18.406 30.6387 18.7166 31.1868 19.1734 31.1725H19.7549L19.3544 31.8389C19.1819 32.1262 19.2748 32.4989 19.5619 32.6714Z" fill="#FFDE91"/>
</g>
<defs>
<clipPath id="clip0">
<rect width="40" height="40" fill="white"/>
</clipPath>
</defs>
</svg>
