<svg width="40" height="40" viewBox="0 0 40 40" fill="none" xmlns="http://www.w3.org/2000/svg">
<g clip-path="url(#clip0)">
<path d="M0.764618 38.5483L3.76868 39.2514L6.75758 38.5483L8.30219 35.7328C8.49657 35.3784 9.03524 35.5164 9.03524 35.9206V38.5483L19.9999 39.2514L30.9647 38.5483V35.9206C30.9647 35.5165 31.5034 35.3784 31.6978 35.7328L33.2424 38.5483L36.4931 39.2514L39.2353 38.5483L34.1813 28.9531C32.6019 25.9546 29.7799 23.8059 26.4694 23.081L23.5729 22.4469H16.427L13.5305 23.081C10.22 23.8058 7.39797 25.9546 5.8186 28.953L0.764618 38.5483Z" fill="#FDD4BB"/>
<path d="M19.5134 32.5393C19.5134 35.0203 22.2539 36.3785 22.915 36.7354C23.0306 36.7978 23.1688 36.7978 23.2845 36.7354C23.9456 36.3784 26.686 34.9135 26.686 32.5393C26.1252 30.5593 23.5291 30.8437 23.0997 32.214C22.6703 30.8437 20.0742 30.5593 19.5134 32.5393Z" fill="#F4594E"/>
<path d="M10.0693 13.0207C10.0693 13.0207 7.84664 10.0263 7.78226 5.70696C7.77937 5.51446 7.95023 5.36462 8.14054 5.39329C8.6157 5.46501 9.48773 5.54298 10.2873 5.32743C12.5893 4.70673 14.8542 0.139851 18.8446 0.006804C22.8351 -0.126243 23.6089 1.73602 23.6089 1.73602C23.6089 1.73602 25.0769 0.863367 27.2689 1.15962C30.5499 1.60298 33.432 6.60157 30.5027 13.4683L10.0693 13.0207Z" fill="#565E75"/>
<path d="M8.96588 14.3688C8.96588 15.9195 10.1694 16.7219 11.2283 16.7219C11.2283 16.7219 12.3713 15.7057 12.3717 15.7248C12.3717 15.7184 12.3712 15.7121 12.3712 15.7058L13.0743 14.2541L12.3712 13.0116C12.0321 12.8251 11.6426 12.7188 11.2282 12.7188C10.1694 12.7188 9.27268 13.4117 8.96588 14.3688Z" fill="#EBBAA1"/>
<path d="M11.2284 16.0188C10.1695 16.0188 9.27276 15.3258 8.96596 14.3688C8.8926 14.5976 8.8526 14.8414 8.8526 15.0946C8.8526 16.4067 9.91627 17.4703 11.2284 17.4703C11.696 17.4703 12.1316 17.3347 12.4992 17.1015L13.1129 16.4724L12.3717 15.7247C12.0324 15.9117 11.6431 16.0188 11.2284 16.0188Z" fill="#E8A990"/>
<path d="M31.0342 14.3688C31.0342 15.9195 29.8306 16.7219 28.7717 16.7219C28.7717 16.7219 27.6288 15.7057 27.6284 15.7248C27.6284 15.7184 27.6288 15.7121 27.6288 15.7058L26.9257 14.2541L27.6288 13.0116C27.968 12.8251 28.3574 12.7188 28.7718 12.7188C29.8306 12.7188 30.7274 13.4117 31.0342 14.3688Z" fill="#EBBAA1"/>
<path d="M28.7717 16.0188C29.8306 16.0188 30.7273 15.3258 31.0341 14.3688C31.1075 14.5976 31.1475 14.8414 31.1475 15.0946C31.1475 16.4067 30.0838 17.4703 28.7717 17.4703C28.3041 17.4703 27.8685 17.3347 27.5009 17.1015L26.8871 16.4724L27.6283 15.7247C27.9676 15.9117 28.357 16.0188 28.7717 16.0188Z" fill="#E8A990"/>
<path d="M20 22.5858C24.2132 22.5858 27.6287 19.3257 27.6287 14.254V12.0637C27.6287 11.3959 27.3568 10.7533 26.866 10.3006C25.4416 8.98655 23.8559 6.7132 23.2189 5.76382C23.0727 5.54585 22.7624 5.52554 22.5851 5.71914C19.3718 9.22859 15.2096 10.3981 13.3471 10.7619C12.7797 10.8728 12.3713 11.3706 12.3713 11.9487V14.2548C12.3713 19.5865 15.787 22.5858 20 22.5858Z" fill="#FDD4BB"/>
<path d="M20 16.8601C18.7987 16.8601 17.798 17.7192 17.579 18.8566C17.5323 19.0993 17.7149 19.3257 17.9621 19.3257H22.0379C22.2851 19.3257 22.4677 19.0993 22.421 18.8566C22.2019 17.7192 21.2012 16.8601 20 16.8601Z" fill="#F4594E"/>
<path d="M20 21.8828C15.7868 21.8828 12.3713 18.4674 12.3713 14.2542V15.7058C12.3713 19.919 15.7867 23.3345 20 23.3345C24.2132 23.3345 27.6287 19.919 27.6287 15.7058V14.2542C27.6287 18.4673 24.2132 21.8828 20 21.8828Z" fill="#F7C4A8"/>
<path d="M26.6861 32.5393C26.1815 34.3524 23.9457 35.6754 23.2845 36.0323C23.1689 36.0947 23.0307 36.0947 22.915 36.0323C22.2539 35.6753 20.018 34.3524 19.5134 32.5393C19.4805 32.6553 19.4535 32.7778 19.4354 32.9096C19.113 35.2666 22.1264 37.0581 22.9142 37.4834C23.0303 37.5461 23.1692 37.5461 23.2853 37.4834C24.0731 37.0581 27.0864 35.2666 26.764 32.9096C26.7461 32.7778 26.7189 32.6553 26.6861 32.5393Z" fill="#E84642"/>
<path d="M0.76462 38.5484L0.301651 39.4273C0.16462 39.6875 0.353292 40 0.647276 40H5.72993C5.87251 40 6.00384 39.9222 6.07243 39.7972L6.75759 38.5483H0.76462V38.5484Z" fill="#F7C4A8"/>
<path d="M9.42593 40.0001H30.5741C30.7898 40.0001 30.9648 39.8252 30.9648 39.6095V38.5485H9.03531V39.6095C9.03531 39.8252 9.21015 40.0001 9.42593 40.0001Z" fill="#F7C4A8"/>
<path d="M33.2424 38.5485L33.9276 39.7974C33.9962 39.9224 34.1274 40.0001 34.2701 40.0001H39.3527C39.6467 40.0001 39.8354 39.6875 39.6984 39.4274L39.2354 38.5485H33.2424V38.5485Z" fill="#F7C4A8"/>
<path d="M15.2324 15.025C15.3437 15.2227 15.5492 15.3339 15.761 15.3339C15.8617 15.3339 15.9638 15.3087 16.0577 15.2558L17.6212 14.3758C17.8154 14.2665 17.9339 14.0595 17.9298 13.8368C17.9258 13.614 17.7998 13.4114 17.6017 13.3092L16.0383 12.5026C15.7409 12.349 15.3755 12.4658 15.2219 12.7633C15.0684 13.0607 15.1851 13.4262 15.4826 13.5797L16.0471 13.871L15.4632 14.1997C15.1716 14.3638 15.0682 14.7333 15.2324 15.025Z" fill="#565E75"/>
<path d="M22.3788 14.3755L23.9422 15.2555C24.0362 15.3084 24.1383 15.3335 24.239 15.3335C24.4507 15.3335 24.6564 15.2223 24.7676 15.0246C24.9318 14.733 24.8284 14.3635 24.5368 14.1993L23.9529 13.8706L24.5174 13.5792C24.8149 13.4258 24.9316 13.0603 24.7781 12.7628C24.6247 12.4654 24.259 12.3487 23.9617 12.5021L22.3983 13.3088C22.2002 13.411 22.0743 13.6135 22.0701 13.8364C22.0662 14.0592 22.1847 14.2662 22.3788 14.3755Z" fill="#565E75"/>
<path d="M29.1136 31.9298C29.2114 31.9885 29.319 32.0165 29.4253 32.0164C29.631 32.0164 29.8316 31.9117 29.9453 31.7225L30.8981 30.137C31.0105 29.9498 31.0136 29.7165 30.9061 29.5264C30.7986 29.3364 30.5971 29.2188 30.3786 29.2188H29.7944L30.2852 28.3996C30.4572 28.1124 30.364 27.7403 30.0768 27.5682C29.7899 27.3962 29.4175 27.4894 29.2454 27.7766L28.205 29.5132C28.0928 29.7004 28.0899 29.9335 28.1976 30.1235C28.3052 30.3134 28.5065 30.4307 28.7248 30.4307H29.3074L28.9063 31.0981C28.734 31.385 28.8268 31.7574 29.1136 31.9298Z" fill="#F4594E"/>
<path d="M16.5762 32.0164C16.7819 32.0164 16.9825 31.9117 17.0962 31.7225L18.049 30.137C18.1614 29.9498 18.1645 29.7165 18.0569 29.5264C17.9494 29.3364 17.748 29.2188 17.5295 29.2188H16.9453L17.4362 28.3996C17.6082 28.1124 17.5149 27.7403 17.2278 27.5682C16.9409 27.3962 16.5685 27.4894 16.3965 27.7766L15.356 29.5132C15.2438 29.7004 15.2409 29.9335 15.3486 30.1235C15.4562 30.3134 15.6576 30.4307 15.8758 30.4307H16.4584L16.0573 31.0981C15.8849 31.3849 15.9778 31.7573 16.2646 31.9297C16.3623 31.9885 16.4699 32.0164 16.5762 32.0164Z" fill="#F4594E"/>
<path d="M23.6237 24.8022C23.3368 24.6302 22.9644 24.7234 22.7924 25.0106L21.7519 26.7473C21.6398 26.9344 21.6369 27.1676 21.7445 27.3574C21.8522 27.5473 22.0535 27.6647 22.2718 27.6647H22.8544L22.4533 28.332C22.2808 28.6189 22.3737 28.9912 22.6605 29.1637C22.7583 29.2223 22.8658 29.2503 22.9722 29.2503C23.1779 29.2503 23.3785 29.1455 23.4922 28.9564L24.445 27.3708C24.5574 27.1837 24.5605 26.9504 24.453 26.7603C24.3455 26.5702 24.144 26.4526 23.9255 26.4526H23.3413L23.8322 25.6334C24.0041 25.3463 23.9108 24.9742 23.6237 24.8022Z" fill="#F4594E"/>
</g>
<defs>
<clipPath id="clip0">
<rect width="40" height="40" fill="white"/>
</clipPath>
</defs>
</svg>
