<svg width="40" height="40" viewBox="0 0 40 40" fill="none" xmlns="http://www.w3.org/2000/svg">
<g clip-path="url(#clip0)">
<path d="M31.884 38.5484L32.5872 36.3199V33.5575C32.5872 28.0894 28.7207 23.5248 23.5729 22.447C22.5069 23.0131 21.2911 23.3343 20 23.3343C18.7089 23.3343 17.493 23.0131 16.4271 22.447C11.2792 23.5247 7.41278 28.0894 7.41278 33.5575V36.3199L8.11591 38.5484L20.2732 39.2515L31.884 38.5484Z" fill="#B3E59F"/>
<path d="M10.0693 13.0207C10.0693 13.0207 7.87794 10.0684 7.78403 5.79805C7.7788 5.55915 7.99051 5.37321 8.22723 5.40579C8.71676 5.47313 9.53419 5.53055 10.2875 5.32743C12.5894 4.70673 14.8543 0.139851 18.8447 0.006804C22.8352 -0.126243 23.609 1.73602 23.609 1.73602C23.609 1.73602 25.077 0.863367 27.269 1.15962C30.55 1.60298 33.4321 6.60157 30.5029 13.4683L10.0693 13.0207Z" fill="#565E75"/>
<path d="M8.96582 14.3687C8.96582 15.8494 10.1693 16.7218 11.2283 16.7218L12.3717 15.7247C12.3717 15.7184 13.369 14.3751 13.369 14.3687L12.3712 13.0115C12.0321 12.825 11.6426 12.7188 11.2282 12.7188C10.1693 12.7187 9.27262 13.4116 8.96582 14.3687Z" fill="#EBBAA1"/>
<path d="M11.2283 16.0187C10.1694 16.0187 9.2727 15.3257 8.9659 14.3687C8.89254 14.5975 8.85254 14.8412 8.85254 15.0944C8.85254 16.4065 9.91621 17.4702 11.2283 17.4702C11.6959 17.4702 12.1315 17.3346 12.4991 17.1014L13.1219 16.2709L12.3717 15.7247C12.0324 15.9115 11.643 16.0187 11.2283 16.0187Z" fill="#E8A990"/>
<path d="M31.0341 14.3687C31.0341 15.8494 29.8306 16.7218 28.7716 16.7218L27.6283 15.7247C27.6283 15.7184 26.6309 14.3751 26.6309 14.3687L27.6287 13.0115C27.9679 12.825 28.3573 12.7188 28.7717 12.7188C29.8306 12.7187 30.7273 13.4116 31.0341 14.3687Z" fill="#EBBAA1"/>
<path d="M28.7717 16.0187C29.8306 16.0187 30.7274 15.3257 31.0342 14.3687C31.1075 14.5975 31.1475 14.8412 31.1475 15.0944C31.1475 16.4065 30.0839 17.4702 28.7718 17.4702C28.3042 17.4702 27.8686 17.3346 27.501 17.1014L26.8781 16.2709L27.6283 15.7247C27.9675 15.9115 28.3569 16.0187 28.7717 16.0187Z" fill="#E8A990"/>
<path d="M20 22.5858C24.2132 22.5858 27.6287 19.6258 27.6287 14.254V12.0637C27.6287 11.3959 27.3568 10.7534 26.8661 10.3006C25.4416 8.98655 23.8559 6.7132 23.2189 5.76382C23.0727 5.54585 22.7624 5.52554 22.5851 5.71914C19.3718 9.22859 15.2096 10.3981 13.3471 10.7619C12.7797 10.8728 12.3714 11.3706 12.3714 11.9487V14.254C12.3712 19.3232 15.7868 22.5858 20 22.5858Z" fill="#FDD4BB"/>
<path d="M13.8013 40H26.1985L26.8033 39.2742L26.1985 38.5483H13.8013L13.1965 39.2742L13.8013 40Z" fill="#95D6A4"/>
<path d="M16.4032 22.4344C16.3959 22.5283 16.391 22.6227 16.391 22.7184C16.391 24.7116 18.0068 26.3273 20 26.3273C21.9932 26.3273 23.609 24.7116 23.609 22.7184C23.609 22.6227 23.6041 22.5282 23.5968 22.4344H16.4032Z" fill="#EBBAA1"/>
<path d="M32.5872 38.5483L29.6953 39.2514L26.8034 38.5483V36.3198H32.5872V38.5483Z" fill="#FDD4BB"/>
<path d="M7.41278 38.5483L10.3047 39.2514L13.1965 38.5483V36.3198H7.41278V38.5483Z" fill="#FDD4BB"/>
<path d="M27.4082 40H32.1965C32.4122 40 32.5871 39.8251 32.5871 39.6094V38.5483H27.4082L26.8033 39.2741L27.4082 40Z" fill="#F7C4A8"/>
<path d="M7.80341 40H12.5917L13.1965 39.2742L12.5917 38.5485H7.41278V39.6094C7.41278 39.8251 7.58762 40 7.80341 40Z" fill="#F7C4A8"/>
<path d="M27.4082 38.5483V32.8614C27.4082 32.5274 27.1374 32.2566 26.8033 32.2566C26.4693 32.2566 26.1985 32.5274 26.1985 32.8614V38.5483L26.8033 39.2741L27.4082 38.5483Z" fill="#95D6A4"/>
<path d="M26.1985 38.5483H27.4082V40H26.1985V38.5483Z" fill="#78C2A4"/>
<path d="M13.8013 38.5483V32.8614C13.8013 32.5274 13.5305 32.2566 13.1965 32.2566C12.8624 32.2566 12.5916 32.5274 12.5916 32.8614V38.5483L13.1965 39.2741L13.8013 38.5483Z" fill="#95D6A4"/>
<path d="M12.5917 38.5483H13.8014V40H12.5917V38.5483Z" fill="#78C2A4"/>
<path d="M20 21.8828C15.7868 21.8828 12.3712 18.4674 12.3712 14.2542V15.7058C12.3712 19.919 15.7867 23.3345 19.9999 23.3345C24.2131 23.3345 27.6286 19.919 27.6286 15.7058V14.2542C27.6286 18.4673 24.2132 21.8828 20 21.8828Z" fill="#F7C4A8"/>
<path d="M15.2319 15.025C15.3433 15.2229 15.5491 15.3343 15.7611 15.3342C15.8619 15.3342 15.964 15.309 16.058 15.2561L17.6214 14.3762C17.8158 14.2668 17.9344 14.0596 17.9303 13.8366C17.9262 13.6136 17.8001 13.4108 17.6019 13.3086L16.0386 12.5019C15.7408 12.3484 15.375 12.4652 15.2214 12.7629C15.0678 13.0605 15.1846 13.4264 15.4823 13.58L16.0459 13.8708L15.463 14.199C15.1711 14.3632 15.0676 14.7332 15.2319 15.025Z" fill="#565E75"/>
<path d="M22.3785 14.3762L23.9419 15.2561C24.036 15.309 24.1381 15.3342 24.2389 15.3342C24.4508 15.3342 24.6567 15.2229 24.768 15.0251C24.9323 14.7331 24.8289 14.3633 24.5369 14.1989L23.9539 13.8708L24.5175 13.58C24.8152 13.4264 24.932 13.0605 24.7784 12.7628C24.6248 12.4651 24.259 12.3483 23.9612 12.5018L22.3978 13.3085C22.1996 13.4108 22.0735 13.6135 22.0694 13.8365C22.0654 14.0596 22.1841 14.2668 22.3785 14.3762Z" fill="#565E75"/>
<path d="M16.8621 17.7609C16.6524 18.0221 16.6927 18.4059 16.954 18.6155C17.2153 18.8251 17.5955 18.7853 17.8052 18.5239C17.8867 18.4259 18.1105 18.2268 18.2988 18.2143C18.3451 18.2419 18.4383 18.3302 18.5016 18.3903C18.7876 18.6612 19.2197 19.0706 20.0003 19.0706C20.7808 19.0706 21.2129 18.6611 21.499 18.3903C21.5623 18.3303 21.6555 18.2419 21.7018 18.2143C21.8898 18.2268 22.113 18.4251 22.1949 18.5234C22.4051 18.7817 22.7848 18.8224 23.045 18.6136C23.3062 18.404 23.3481 18.0222 23.1384 17.7609C23.076 17.683 22.5046 17.0005 21.6833 17.0005C21.2018 17.0005 20.8912 17.2947 20.6645 17.5096C20.4233 17.7381 20.2841 17.8574 20.0002 17.8574C19.7163 17.8574 19.5772 17.7381 19.3359 17.5096C19.1092 17.2947 18.7987 17.0005 18.3171 17.0005C17.4958 17.0005 16.9245 17.683 16.8621 17.7609Z" fill="#F4594E"/>
<path d="M7.10733 25.3861L7.05733 25.1882C6.98865 24.916 7.13272 24.7308 7.19795 24.6636C7.26311 24.5967 7.44397 24.4472 7.71818 24.5081C8.04514 24.581 8.3692 24.3747 8.44194 24.0476C8.51467 23.7206 8.30842 23.3966 7.98147 23.3238C7.37748 23.1897 6.75928 23.3742 6.32795 23.8181C5.8967 24.2619 5.72959 24.8851 5.88115 25.4852L5.93115 25.6832C5.96943 25.8347 5.94381 25.9904 5.85912 26.1216C5.77444 26.2528 5.64311 26.3403 5.48951 26.3678L5.2535 26.41C4.64475 26.519 4.14584 26.9276 3.91889 27.5029C3.69194 28.0782 3.77756 28.7173 4.14803 29.2126C4.25178 29.3512 4.28498 29.5267 4.23904 29.6936C4.19311 29.8607 4.07498 29.9945 3.9149 30.0607L3.80897 30.1045C3.2785 30.324 2.89764 30.77 2.76404 31.3282C2.63045 31.8863 2.76803 32.4564 3.14154 32.8922L3.46889 33.2741C3.57483 33.3977 3.62045 33.5545 3.59733 33.7156C3.5742 33.8768 3.48639 34.0144 3.34998 34.1032L2.99725 34.3329C2.54717 34.6261 2.25756 35.1006 2.20256 35.6348C2.14748 36.169 2.33436 36.6926 2.71506 37.0711L3.05717 37.4114C3.22053 37.5738 3.22842 37.7633 3.21858 37.8616C3.20873 37.96 3.1635 38.144 2.97123 38.2711C2.6917 38.4557 2.61467 38.8319 2.79928 39.1115C2.91592 39.2882 3.10904 39.384 3.306 39.384C3.42076 39.384 3.53678 39.3514 3.63967 39.2835C4.08608 38.9887 4.37256 38.5144 4.42576 37.9822C4.47889 37.45 4.29194 36.9284 3.91272 36.5512L3.57061 36.2109C3.45084 36.0918 3.39209 35.9272 3.40936 35.759C3.4267 35.5909 3.51787 35.4416 3.65936 35.3494L4.01209 35.1197C4.43928 34.8415 4.72584 34.3924 4.79819 33.8878C4.87061 33.3831 4.72178 32.8716 4.38998 32.4845L4.06264 32.1025C3.94514 31.9654 3.90186 31.7861 3.94381 31.6105C3.98584 31.4349 4.10569 31.2946 4.27256 31.2256L4.3785 31.1818C4.88725 30.9713 5.26272 30.5461 5.40865 30.0152C5.55451 29.4843 5.44912 28.9269 5.11936 28.486C4.95139 28.2614 5.01295 28.035 5.04725 27.948C5.08154 27.8611 5.19108 27.6536 5.46701 27.6042L5.70303 27.562C6.18459 27.4758 6.61295 27.1905 6.87826 26.7794C7.14365 26.3684 7.22709 25.8606 7.10733 25.3861Z" fill="#ADF0FF"/>
<path d="M37.0287 38.2711C36.8363 38.1441 36.7912 37.9601 36.7813 37.8617C36.7715 37.7632 36.7794 37.5739 36.9427 37.4114L37.2848 37.0713C37.6656 36.6925 37.8524 36.169 37.7974 35.6348C37.7424 35.1006 37.4527 34.626 37.0026 34.3328L36.65 34.1032C36.5136 34.0144 36.4258 33.8767 36.4026 33.7156C36.3795 33.5545 36.4251 33.3977 36.5311 33.2741L36.8585 32.8921C37.2319 32.4563 37.3696 31.8863 37.236 31.3281C37.1023 30.7699 36.7215 30.3239 36.1912 30.1046L36.0853 30.0607C35.9252 29.9946 35.8071 29.8607 35.7612 29.6937C35.7153 29.5267 35.7484 29.3513 35.8522 29.2126C36.2226 28.7173 36.3083 28.0781 36.0813 27.5029C35.8544 26.9276 35.3555 26.5191 34.7465 26.41L34.5108 26.3678C34.3571 26.3403 34.2258 26.2528 34.1411 26.1217C34.0564 25.9904 34.0308 25.8347 34.069 25.6833L34.119 25.4851C34.2705 24.8851 34.1035 24.2619 33.6722 23.8181C33.2408 23.3742 32.6226 23.1897 32.0187 23.3238C31.6916 23.3965 31.4855 23.7205 31.5581 24.0476C31.6309 24.3745 31.9546 24.5808 32.2819 24.5081C32.5561 24.4473 32.7369 24.5965 32.8021 24.6636C32.8673 24.7306 33.0114 24.916 32.9427 25.1881L32.8926 25.3862C32.7729 25.8606 32.8563 26.3684 33.1216 26.7795C33.3869 27.1905 33.8153 27.4758 34.297 27.562L34.5327 27.6042C34.8088 27.6537 34.9183 27.8612 34.9526 27.9481C34.9869 28.035 35.0485 28.2613 34.8805 28.486C34.5508 28.927 34.4453 29.4844 34.5912 30.0153C34.7371 30.5461 35.1126 30.9713 35.6213 31.1818L35.7272 31.2256C35.8941 31.2947 36.0139 31.4349 36.056 31.6106C36.098 31.7861 36.0547 31.9655 35.9372 32.1026L35.6099 32.4846C35.2781 32.8717 35.1293 33.3831 35.2017 33.8878C35.2741 34.3924 35.5606 34.8415 35.9879 35.1198L36.3405 35.3494C36.4821 35.4417 36.5733 35.5909 36.5906 35.7591C36.6079 35.9271 36.5491 36.0918 36.4294 36.211L36.0873 36.5513C35.708 36.9284 35.521 37.45 35.5742 37.9823C35.6273 38.5146 35.9139 38.9889 36.3603 39.2835C36.4632 39.3515 36.5792 39.384 36.694 39.384C36.8909 39.384 37.0841 39.2882 37.2007 39.1115C37.3852 38.832 37.3082 38.4557 37.0287 38.2711Z" fill="#ADF0FF"/>
<path d="M5.16437 16.3821L5.40695 16.5201C5.56836 16.612 5.62867 16.8135 5.5443 16.979L5.45125 17.1615C5.22406 17.6069 5.22484 18.1384 5.45336 18.583C5.68187 19.0279 6.11351 19.338 6.60922 19.4127L6.62601 19.4152C6.76539 19.4362 6.83906 19.5262 6.87054 19.578C6.98476 19.7656 7.18453 19.8692 7.38929 19.8692C7.49671 19.8692 7.60562 19.8406 7.70414 19.7807C7.99031 19.6065 8.08101 19.2333 7.90687 18.9471C7.66593 18.5514 7.26515 18.2848 6.80593 18.2155L6.78914 18.213C6.63648 18.1899 6.56281 18.0876 6.5325 18.0287C6.50218 17.9698 6.46187 17.8502 6.53211 17.7126L6.62515 17.5301C7.00476 16.7858 6.73336 15.879 6.00711 15.4657L5.76453 15.3276C5.6193 15.245 5.59429 15.1069 5.59023 15.0514C5.58617 14.9958 5.59109 14.8557 5.72289 14.753C6.13297 14.4333 6.35617 13.9326 6.32008 13.4136C6.29679 13.0794 6.00695 12.8273 5.67281 12.8506C5.33867 12.8738 5.08656 13.1637 5.10984 13.4978C5.11367 13.5534 5.10851 13.6937 4.97719 13.7961C4.5657 14.1167 4.34258 14.6188 4.38031 15.139C4.41773 15.6594 4.71094 16.124 5.16437 16.3821Z" fill="#ADF0FF"/>
<path d="M33.2123 18.2129L33.193 18.2158C32.7351 18.2849 32.3343 18.5515 32.0933 18.9472C31.9191 19.2334 32.0099 19.6066 32.2961 19.7808C32.3946 19.8408 32.5034 19.8693 32.6109 19.8693C32.8156 19.8693 33.0154 19.7658 33.1297 19.5782C33.1612 19.5264 33.2348 19.4364 33.373 19.4155L33.3922 19.4127C33.8867 19.3381 34.3183 19.028 34.5469 18.5833C34.7754 18.1385 34.7762 17.607 34.549 17.1616L34.4558 16.979C34.3715 16.8136 34.4318 16.6122 34.5931 16.5203L34.8358 16.3822C35.2892 16.1242 35.5824 15.6596 35.6201 15.1393C35.6579 14.619 35.4347 14.1168 35.0232 13.7961C34.8918 13.6938 34.8866 13.5535 34.8905 13.4979C34.9138 13.1637 34.6617 12.8739 34.3276 12.8507C33.9944 12.8268 33.7036 13.0794 33.6803 13.4136C33.6442 13.9327 33.8674 14.4334 34.2775 14.753C34.4093 14.8557 34.4141 14.996 34.4101 15.0515C34.4062 15.1071 34.3811 15.2451 34.2359 15.3277L33.9931 15.4658C33.2669 15.879 32.9955 16.7859 33.3752 17.5302L33.4683 17.7127C33.5385 17.8503 33.4982 17.9697 33.4679 18.0287C33.4373 18.0877 33.3637 18.1901 33.2123 18.2129Z" fill="#ADF0FF"/>
</g>
<defs>
<clipPath id="clip0">
<rect width="40" height="40" fill="white"/>
</clipPath>
</defs>
</svg>
