<svg width="40" height="40" viewBox="0 0 40 40" fill="none" xmlns="http://www.w3.org/2000/svg">
<g clip-path="url(#clip0)">
<path d="M3.7764 14.4602C4.5827 14.4602 5.23633 13.8066 5.23633 13.0003C5.23633 12.194 4.5827 11.5404 3.7764 11.5404C2.97011 11.5404 2.31648 12.194 2.31648 13.0003C2.31648 13.8066 2.97011 14.4602 3.7764 14.4602Z" fill="#FFDE91"/>
<path d="M36.3685 12.6931C37.1708 12.6133 37.7564 11.8982 37.6766 11.0959C37.5968 10.2937 36.8817 9.70802 36.0794 9.78784C35.2772 9.86766 34.6915 10.5827 34.7713 11.385C34.8512 12.1873 35.5662 12.7729 36.3685 12.6931Z" fill="#FFDE91"/>
<path d="M31.8841 38.5484L32.5872 36.3199V33.5575C32.5872 28.0894 28.7208 23.5248 23.5729 22.447C22.507 23.0131 21.2911 23.3343 20 23.3343C18.7089 23.3343 17.493 23.0131 16.4271 22.447C11.2792 23.5247 7.41281 28.0894 7.41281 33.5575V36.3199L8.11594 38.5484L20.2732 39.2515L31.8841 38.5484Z" fill="#ADF0FF"/>
<path d="M10.0694 13.0207C10.0694 13.0207 7.87797 10.0684 7.78406 5.79805C7.77883 5.55915 7.99055 5.37321 8.22726 5.40579C8.71679 5.47313 9.53422 5.53055 10.2875 5.32743C12.5894 4.70673 14.8544 0.139851 18.8448 0.006804C22.8352 -0.126243 23.6091 1.73602 23.6091 1.73602C23.6091 1.73602 25.077 0.863367 27.2691 1.15962C30.5501 1.60298 33.4321 6.60157 30.503 13.4683L10.0694 13.0207Z" fill="#565E75"/>
<path d="M8.96586 14.3687C8.96586 15.8494 10.1694 16.7218 11.2284 16.7218L12.3717 15.7247C12.3717 15.7184 13.3691 14.3751 13.3691 14.3687L12.3712 13.0115C12.0321 12.825 11.6427 12.7188 11.2283 12.7188C10.1694 12.7187 9.27266 13.4116 8.96586 14.3687Z" fill="#EBBAA1"/>
<path d="M11.2284 16.0187C10.1695 16.0187 9.27273 15.3257 8.96594 14.3687C8.89258 14.5975 8.85258 14.8412 8.85258 15.0944C8.85258 16.4065 9.91625 17.4702 11.2284 17.4702C11.6959 17.4702 12.1316 17.3346 12.4991 17.1014L13.122 16.2709L12.3718 15.7247C12.0324 15.9115 11.643 16.0187 11.2284 16.0187Z" fill="#E8A990"/>
<path d="M31.0341 14.3687C31.0341 15.8494 29.8306 16.7218 28.7716 16.7218L27.6283 15.7247C27.6283 15.7184 26.6309 14.3751 26.6309 14.3687L27.6287 13.0115C27.9679 12.825 28.3573 12.7188 28.7717 12.7188C29.8306 12.7187 30.7273 13.4116 31.0341 14.3687Z" fill="#EBBAA1"/>
<path d="M28.7717 16.0187C29.8306 16.0187 30.7274 15.3257 31.0342 14.3687C31.1076 14.5975 31.1476 14.8412 31.1476 15.0944C31.1476 16.4065 30.0839 17.4702 28.7718 17.4702C28.3042 17.4702 27.8686 17.3346 27.501 17.1014L26.8781 16.2709L27.6284 15.7247C27.9676 15.9115 28.357 16.0187 28.7717 16.0187Z" fill="#E8A990"/>
<path d="M20 22.5858C24.2132 22.5858 27.6287 19.6258 27.6287 14.254V12.0637C27.6287 11.3959 27.3569 10.7534 26.8661 10.3006C25.4416 8.98655 23.8559 6.7132 23.219 5.76382C23.0727 5.54585 22.7624 5.52554 22.5852 5.71914C19.3719 9.22859 15.2096 10.3981 13.3472 10.7619C12.7798 10.8728 12.3714 11.3706 12.3714 11.9487V14.254C12.3712 19.3232 15.7868 22.5858 20 22.5858Z" fill="#FDD4BB"/>
<path d="M13.8013 40H26.1985L26.8034 39.2742L26.1985 38.5483H13.8013L13.1966 39.2742L13.8013 40Z" fill="#8DEAF5"/>
<path d="M16.4032 22.4344C16.3959 22.5283 16.391 22.6227 16.391 22.7184C16.391 24.7116 18.0068 26.3273 20 26.3273C21.9932 26.3273 23.609 24.7116 23.609 22.7184C23.609 22.6227 23.6041 22.5282 23.5968 22.4344H16.4032Z" fill="#EBBAA1"/>
<path d="M32.5872 38.5484L29.6953 39.2515L26.8034 38.5484V36.3199H32.5872V38.5484Z" fill="#FDD4BB"/>
<path d="M7.41281 38.5484L10.3047 39.2515L13.1966 38.5484V36.3199H7.41281V38.5484Z" fill="#FDD4BB"/>
<path d="M27.4082 40H32.1966C32.4123 40 32.5872 39.8251 32.5872 39.6094V38.5483H27.4082L26.8034 39.2741L27.4082 40Z" fill="#F7C4A8"/>
<path d="M7.80344 40H12.5917L13.1966 39.2742L12.5917 38.5485H7.41281V39.6094C7.41281 39.8251 7.58766 40 7.80344 40Z" fill="#F7C4A8"/>
<path d="M27.4082 38.5483V32.8614C27.4082 32.5274 27.1374 32.2566 26.8034 32.2566C26.4693 32.2566 26.1985 32.5274 26.1985 32.8614V38.5483L26.8034 39.2741L27.4082 38.5483Z" fill="#85E1E5"/>
<path d="M26.1985 38.5483H27.4082V40H26.1985V38.5483Z" fill="#6ED6D6"/>
<path d="M13.8013 38.5483V32.8614C13.8013 32.5274 13.5305 32.2566 13.1965 32.2566C12.8624 32.2566 12.5916 32.5274 12.5916 32.8614V38.5483L13.1965 39.2741L13.8013 38.5483Z" fill="#85E1E5"/>
<path d="M12.5917 38.5483H13.8014V40H12.5917V38.5483Z" fill="#6ED6D6"/>
<path d="M20 21.8828C15.7868 21.8828 12.3712 18.4674 12.3712 14.2542V15.7058C12.3712 19.919 15.7867 23.3345 19.9999 23.3345C24.2131 23.3345 27.6286 19.919 27.6286 15.7058V14.2542C27.6287 18.4673 24.2132 21.8828 20 21.8828Z" fill="#F7C4A8"/>
<path d="M16.862 17.7607C16.6523 18.0221 16.6926 18.4058 16.954 18.6154C17.2152 18.825 17.5955 18.7852 17.8051 18.5238C17.8866 18.4258 18.1103 18.2267 18.2988 18.2142C18.345 18.2418 18.4382 18.3301 18.5016 18.3902C18.7875 18.661 19.2197 19.0705 20.0002 19.0705C20.7808 19.0705 21.2129 18.661 21.4988 18.3902C21.5623 18.3302 21.6554 18.2418 21.7017 18.2142C21.8897 18.2267 22.113 18.4252 22.1948 18.5234C22.4049 18.7817 22.7846 18.8223 23.0448 18.6135C23.306 18.4039 23.348 18.0221 23.1383 17.7609C23.0759 17.6831 22.5045 17.0005 21.6833 17.0005C21.2017 17.0005 20.8912 17.2947 20.6644 17.5095C20.4232 17.7381 20.284 17.8574 20.0002 17.8574C19.7163 17.8574 19.5771 17.7381 19.3359 17.5095C19.1091 17.2947 18.7986 17.0005 18.317 17.0005C17.4959 17.0005 16.9245 17.683 16.862 17.7607Z" fill="#F4594E"/>
<path d="M15.1234 15.023C15.2419 15.1413 15.3972 15.2006 15.5524 15.2006C15.7076 15.2006 15.8629 15.1414 15.9813 15.023L16.3018 14.7025L16.6223 15.023C16.7407 15.1413 16.896 15.2006 17.0512 15.2006C17.2065 15.2006 17.3617 15.1414 17.4802 15.023C17.7171 14.786 17.7171 14.402 17.4802 14.1651L17.1598 13.8446L17.4802 13.5241C17.7171 13.2872 17.7171 12.9032 17.4802 12.6662C17.2433 12.4294 16.8593 12.4294 16.6223 12.6662L16.3019 12.9867L15.9814 12.6662C15.7445 12.4294 15.3605 12.4294 15.1235 12.6662C14.8866 12.9032 14.8866 13.2872 15.1235 13.5241L15.444 13.8446L15.1235 14.1651C14.8866 14.402 14.8866 14.786 15.1234 15.023Z" fill="#565E75"/>
<path d="M22.5205 15.0227C22.6388 15.1411 22.7941 15.2004 22.9494 15.2004C23.1046 15.2004 23.2598 15.1412 23.3783 15.0227L23.6988 14.7022L24.0193 15.0227C24.1377 15.1411 24.293 15.2004 24.4483 15.2004C24.6035 15.2004 24.7587 15.1412 24.8772 15.0227C25.1141 14.7859 25.1141 14.4018 24.8772 14.1649L24.5567 13.8444L24.8772 13.5238C25.1141 13.287 25.1141 12.9029 24.8772 12.666C24.6404 12.4292 24.2563 12.4291 24.0194 12.6661L23.6989 12.9866L23.3784 12.6661C23.1416 12.4292 22.7575 12.4291 22.5206 12.666C22.2837 12.9029 22.2837 13.287 22.5205 13.5238L22.8411 13.8444L22.5205 14.1649C22.2835 14.4018 22.2835 14.7859 22.5205 15.0227Z" fill="#565E75"/>
<path d="M10.6767 9.96526C10.643 9.96526 10.6087 9.96244 10.5741 9.95651C4.45585 8.91151 3.17155 7.30229 3.17155 6.13635C3.17155 4.62447 5.20023 3.42729 9.20116 2.57791C9.5278 2.50846 9.84905 2.71713 9.91843 3.04401C9.98773 3.37072 9.77913 3.6919 9.45233 3.76127C7.80335 4.11127 6.45609 4.5451 5.55624 5.01596C4.82046 5.40096 4.38116 5.81979 4.38116 6.13643C4.38116 6.66744 5.71804 7.90002 10.7777 8.76424C11.107 8.82049 11.3283 9.13299 11.2721 9.46221C11.2219 9.75697 10.9661 9.96526 10.6767 9.96526Z" fill="#F4594E"/>
<path d="M29.5177 9.9316C29.2298 9.9316 28.9744 9.72511 28.9228 9.43167C28.8648 9.10261 29.0845 8.78902 29.4134 8.73105C34.3218 7.86613 35.6187 6.65566 35.6187 6.13636C35.6187 5.75402 34.938 5.07589 33.02 4.42339C32.7038 4.31574 32.5346 3.97222 32.6422 3.65589C32.7499 3.33972 33.0936 3.17058 33.4096 3.27808C35.678 4.04995 36.8283 5.0116 36.8283 6.13636C36.8283 7.28433 35.5783 8.873 29.6233 9.9223C29.5879 9.92863 29.5525 9.9316 29.5177 9.9316Z" fill="#F4594E"/>
</g>
<defs>
<clipPath id="clip0">
<rect width="40" height="40" fill="white"/>
</clipPath>
</defs>
</svg>
