<svg width="40" height="40" viewBox="0 0 40 40" fill="none" xmlns="http://www.w3.org/2000/svg">
<g clip-path="url(#clip0)">
<path d="M36.504 38.5483L37.2071 36.3199V33.5575C37.2071 28.0894 33.3407 23.5248 28.1928 22.447C27.1269 23.0131 25.911 23.3344 24.6199 23.3344C23.3288 23.3344 22.1129 23.0132 21.047 22.447C15.899 23.5248 12.0327 28.0894 12.0327 33.5575V38.5484L24.6389 39.2516L36.504 38.5483Z" fill="#ADF0FF"/>
<path d="M14.6892 13.0207C14.6892 13.0207 12.4978 10.0684 12.4038 5.79805C12.3986 5.55915 12.6103 5.37321 12.847 5.40579C13.3365 5.47313 14.154 5.53055 14.9072 5.32743C17.2092 4.70673 19.4741 0.139851 23.4645 0.006804C27.4549 -0.126243 28.2288 1.73602 28.2288 1.73602C28.2288 1.73602 29.6968 0.863367 31.8888 1.15962C35.1698 1.60298 38.0519 6.60157 35.1227 13.4683L14.6892 13.0207Z" fill="#565E75"/>
<path d="M13.5857 14.3688C13.5857 15.9195 14.7893 16.7219 15.8482 16.7219C15.8482 16.7219 16.9912 15.7057 16.9916 15.7248C16.9916 15.7184 16.9911 15.7121 16.9911 15.7058L17.6943 14.2541L16.9911 13.0116C16.652 12.8251 16.2625 12.7188 15.8482 12.7188C14.7893 12.7188 13.8925 13.4117 13.5857 14.3688Z" fill="#EBBAA1"/>
<path d="M15.8482 16.0188C14.7893 16.0188 13.8926 15.3258 13.5858 14.3688C13.5124 14.5976 13.4724 14.8414 13.4724 15.0946C13.4724 16.4067 14.5361 17.4703 15.8482 17.4703C16.3158 17.4703 16.7514 17.3347 17.119 17.1015L17.7327 16.4724L16.9916 15.7247C16.6523 15.9117 16.263 16.0188 15.8482 16.0188Z" fill="#E8A990"/>
<path d="M35.6539 14.3688C35.6539 15.9195 34.4504 16.7219 33.3915 16.7219C33.3915 16.7219 32.2486 15.7057 32.2482 15.7248C32.2482 15.7184 32.2486 15.7121 32.2486 15.7058L31.5455 14.2541L32.2486 13.0116C32.5878 12.8251 32.9772 12.7188 33.3916 12.7188C34.4504 12.7188 35.3471 13.4117 35.6539 14.3688Z" fill="#EBBAA1"/>
<path d="M33.3916 16.0188C34.4505 16.0188 35.3472 15.3258 35.6541 14.3688C35.7274 14.5976 35.7674 14.8414 35.7674 15.0946C35.7674 16.4067 34.7038 17.4703 33.3917 17.4703C32.9241 17.4703 32.4885 17.3347 32.1209 17.1015L31.5071 16.4724L32.2483 15.7247C32.5874 15.9117 32.9768 16.0188 33.3916 16.0188Z" fill="#E8A990"/>
<path d="M24.6198 22.5858C28.833 22.5858 32.2486 19.7537 32.2486 14.254V12.0637C32.2486 11.3959 31.9767 10.7533 31.4859 10.3006C30.0615 8.98655 28.4758 6.7132 27.8388 5.76382C27.6925 5.54585 27.3822 5.52554 27.205 5.71914C23.9917 9.22859 19.8295 10.3981 17.967 10.7619C17.3996 10.8728 16.9912 11.3706 16.9912 11.9487V14.254C16.9911 20 20.4066 22.5858 24.6198 22.5858Z" fill="#FDD4BB"/>
<path d="M21.023 22.4344C21.0156 22.5283 21.0108 22.6227 21.0108 22.7184C21.0108 24.7116 22.6266 26.3273 24.6198 26.3273C26.613 26.3273 28.2287 24.7116 28.2287 22.7184C28.2287 22.6227 28.2239 22.5282 28.2166 22.4344C28.2166 22.4344 21.0157 22.5283 21.023 22.4344Z" fill="#EBBAA1"/>
<path d="M17.674 40H30.8184L31.4232 39.2742L30.8184 38.5483H18.971L16.9365 39.2515L17.674 40Z" fill="#8DEAF5"/>
<path d="M37.2071 38.5483V36.3198H31.4233V38.5483L34.3152 39.2514L37.2071 38.5483Z" fill="#FDD4BB"/>
<path d="M32.0281 40H36.8165C37.0322 40 37.2071 39.8251 37.2071 39.6094V38.5483H32.0281L31.4233 39.2741L32.0281 40Z" fill="#F7C4A8"/>
<path d="M19.7683 34.3963C18.0123 32.8967 15.1091 30.7736 12.7471 30.7736C10.3851 30.7736 7.48196 32.8967 5.72594 34.3963L12.7471 35.0994L19.7683 34.3963Z" fill="#EBF2F8"/>
<path d="M19.7683 34.3961H5.72591C4.76731 35.2147 4.15021 35.8478 4.15021 35.8478L12.7472 36.5509L21.3441 35.8478C21.344 35.8478 20.7269 35.2148 19.7683 34.3961Z" fill="#D6E3ED"/>
<path d="M5.81489 38.4148C6.00521 38.4277 6.18497 38.4752 6.35036 38.5485L12.7472 39.2517L18.9712 38.5485C19.1365 38.4752 19.3163 38.4277 19.5066 38.4148C20.8012 38.3267 21.9302 37.5509 22.4878 36.4126C22.6153 36.1523 22.4273 35.8479 22.1374 35.8479H3.18411C2.89419 35.8479 2.70614 36.1522 2.83372 36.4126C3.3913 37.5508 4.52036 38.3267 5.81489 38.4148Z" fill="#565E75"/>
<path d="M6.35027 38.5483C6.81777 38.7556 7.16441 39.1797 7.26566 39.6901C7.3016 39.8711 7.46269 40 7.6473 40H17.6739C17.8585 40 18.0196 39.8711 18.0556 39.6901C18.1569 39.1798 18.5035 38.7557 18.9711 38.5483H6.35027Z" fill="#4B5165"/>
<path d="M24.6199 21.8828C20.4067 21.8828 16.9911 18.4674 16.9911 14.2542V15.7058C16.9911 19.919 20.4066 23.3345 24.6198 23.3345C28.833 23.3345 32.2485 19.919 32.2485 15.7058V14.2542C32.2485 18.4673 28.8331 21.8828 24.6199 21.8828Z" fill="#F7C4A8"/>
<path d="M22.9057 19.5617C23.2404 19.5617 23.5117 19.2904 23.5117 18.9557C23.5117 18.3342 24.0173 17.8286 24.6388 17.8286C25.2603 17.8286 25.7659 18.3342 25.7659 18.9557C25.7659 19.2904 26.0372 19.5617 26.3719 19.5617C26.7066 19.5617 26.9779 19.2904 26.9779 18.9557C26.9779 17.666 25.9287 16.6166 24.6388 16.6166C23.349 16.6166 22.2997 17.6659 22.2997 18.9557C22.2997 19.2904 22.571 19.5617 22.9057 19.5617Z" fill="#F4594E"/>
<path d="M20.1581 14.6707C20.1989 14.6658 21.1669 14.5458 22.019 14.1752C22.3259 14.0416 22.4665 13.6846 22.333 13.3777C22.1995 13.0708 21.8425 12.93 21.5355 13.0637C20.8492 13.3622 20.0204 13.4666 20.0121 13.4676C19.6802 13.508 19.4437 13.8098 19.4838 14.1418C19.5209 14.4495 19.7823 14.6752 20.0846 14.6752C20.1089 14.6752 20.1334 14.6737 20.1581 14.6707Z" fill="#565E75"/>
<path d="M27.2408 14.1752C28.093 14.5458 29.061 14.6658 29.1018 14.6707C29.1265 14.6737 29.1509 14.6752 29.1752 14.6752C29.4774 14.6752 29.739 14.4493 29.7761 14.1417C29.8162 13.8095 29.5794 13.5075 29.2471 13.4674C29.2389 13.4664 28.4158 13.3645 27.7242 13.0637C27.4172 12.9301 27.0602 13.0707 26.9268 13.3777C26.7933 13.6846 26.934 14.0416 27.2408 14.1752Z" fill="#565E75"/>
<path d="M7.29956 25.7241C9.50488 25.7241 11.299 23.93 11.299 21.7247C11.299 19.5194 9.50488 17.7252 7.29956 17.7252C5.09425 17.7252 3.30011 19.5194 3.30011 21.7247C3.30011 23.93 5.09433 25.7241 7.29956 25.7241ZM7.29956 24.5121C6.75003 24.5121 6.23761 24.3516 5.80534 24.0759L9.65081 20.2305C9.92652 20.6626 10.087 21.1751 10.087 21.7247C10.087 23.2617 8.83659 24.5121 7.29956 24.5121ZM7.29956 18.9373C7.84909 18.9373 8.36152 19.0979 8.79378 19.3735L4.94831 23.219C4.67269 22.7867 4.51214 22.2743 4.51214 21.7248C4.51222 20.1877 5.76261 18.9373 7.29956 18.9373Z" fill="#F4594E"/>
<path d="M32.0281 38.5483V32.8614C32.0281 32.5274 31.7573 32.2566 31.4232 32.2566C31.0892 32.2566 30.8184 32.5274 30.8184 32.8614V38.5483L31.4232 39.2741L32.0281 38.5483Z" fill="#85E1E5"/>
<path d="M30.8184 38.5483H32.0281V40H30.8184V38.5483Z" fill="#6ED6D6"/>
</g>
<defs>
<clipPath id="clip0">
<rect width="40" height="40" fill="white"/>
</clipPath>
</defs>
</svg>
