<svg width="40" height="40" viewBox="0 0 40 40" fill="none" xmlns="http://www.w3.org/2000/svg">
<g clip-path="url(#clip0)">
<path d="M36.5949 38.5484L37.298 36.3199V33.5574C37.298 28.0893 33.4316 23.5247 28.2837 22.447C27.2177 23.0131 26.0019 23.3343 24.7108 23.3343C23.4197 23.3343 22.2038 23.0131 21.1379 22.447C15.99 23.5247 12.1236 28.0894 12.1236 33.5574V36.3199L12.8267 38.5484L24.7108 39.2515L36.5949 38.5484Z" fill="#F4594E"/>
<path d="M14.7801 13.0207C14.7801 13.0207 12.5886 10.0684 12.4947 5.79805C12.4894 5.55915 12.7011 5.37321 12.9379 5.40579C13.4274 5.47313 14.2448 5.53055 14.9981 5.32743C17.3001 4.70665 19.565 0.139851 23.5554 0.006804C27.5459 -0.126243 28.3197 1.73602 28.3197 1.73602C28.3197 1.73602 29.7877 0.863367 31.9797 1.15962C35.2607 1.60298 38.1428 6.60149 35.2136 13.4683L14.7801 13.0207Z" fill="#E5907B"/>
<path d="M13.6852 14.3687C13.6852 15.8494 14.8887 16.7218 15.9477 16.7218L17.0911 15.7247C17.0911 15.7183 18.0884 14.3751 18.0884 14.3687L17.0906 13.0115C16.7515 12.825 16.362 12.7188 15.9476 12.7188C14.8887 12.7187 13.992 13.4116 13.6852 14.3687Z" fill="#EBBAA1"/>
<path d="M15.9476 16.0187C14.8887 16.0187 13.9919 15.3257 13.6851 14.3687C13.6118 14.5975 13.5718 14.8412 13.5718 15.0944C13.5718 16.4065 14.6354 17.4702 15.9476 17.4702C16.4151 17.4702 16.8508 17.3346 17.2183 17.1014L17.8412 16.2708L17.091 15.7246C16.7518 15.9115 16.3624 16.0187 15.9476 16.0187Z" fill="#E8A990"/>
<path d="M35.7535 14.3687C35.7535 15.8494 34.55 16.7218 33.491 16.7218L32.3476 15.7247C32.3476 15.7183 31.3503 14.3751 31.3503 14.3687L32.3481 13.0115C32.6873 12.825 33.0767 12.7188 33.4911 12.7188C34.5499 12.7187 35.4466 13.4116 35.7535 14.3687Z" fill="#EBBAA1"/>
<path d="M33.491 16.0187C34.5499 16.0187 35.4467 15.3257 35.7535 14.3687C35.8269 14.5975 35.8669 14.8412 35.8669 15.0944C35.8669 16.4065 34.8032 17.4702 33.4911 17.4702C33.0235 17.4702 32.5879 17.3346 32.2203 17.1014L31.5974 16.2708L32.3477 15.7246C32.6869 15.9115 33.0763 16.0187 33.491 16.0187Z" fill="#E8A990"/>
<path d="M24.7107 22.5858C28.9239 22.5858 32.3395 19.3378 32.3395 14.254V12.0637C32.3395 11.3959 32.0676 10.7533 31.5768 10.3006C30.1523 8.98655 28.5666 6.7132 27.9297 5.76382C27.7834 5.54585 27.4731 5.52554 27.2959 5.71914C24.0826 9.22859 19.9203 10.3981 18.0579 10.762C17.4905 10.8729 17.0821 11.3707 17.0821 11.9488V14.2541C17.082 19.2796 20.4975 22.5858 24.7107 22.5858Z" fill="#FDD4BB"/>
<path d="M18.5208 40H30.9179L31.5227 39.2742L30.9179 38.5483H18.5208L17.9159 39.2742L18.5208 40Z" fill="#E84642"/>
<path d="M37.298 38.5483L34.4061 39.2514L31.5141 38.5483V36.3198H37.298V38.5483Z" fill="#FDD4BB"/>
<path d="M12.1235 38.5483L15.0155 39.2514L17.9073 38.5483V36.3198H12.1235V38.5483Z" fill="#FDD4BB"/>
<path d="M37.298 38.5483H32.1276L31.5227 39.2741L32.1276 39.9999H36.9073C37.123 39.9999 37.298 39.825 37.298 39.6093V38.5483Z" fill="#F7C4A8"/>
<path d="M12.1235 38.5483H17.311L17.9158 39.2741L17.311 39.9999H12.5141C12.2984 39.9999 12.1235 39.825 12.1235 39.6093V38.5483Z" fill="#F7C4A8"/>
<path d="M21.1139 22.4344C21.1066 22.5283 21.1017 22.6227 21.1017 22.7184C21.1017 24.7116 22.7175 26.3273 24.7107 26.3273C26.7039 26.3273 28.3197 24.7116 28.3197 22.7184C28.3197 22.6227 28.3148 22.5282 28.3075 22.4344H21.1139Z" fill="#EBBAA1"/>
<path d="M24.7108 21.8828C20.4976 21.8828 17.082 18.4674 17.082 14.2542V15.7058C17.082 19.919 20.4975 23.3345 24.7107 23.3345C28.9239 23.3345 32.3394 19.919 32.3394 15.7058V14.2542C32.3394 18.4673 28.924 21.8828 24.7108 21.8828Z" fill="#F7C4A8"/>
<path d="M32.1276 38.5483V32.8614C32.1276 32.5274 31.8568 32.2566 31.5227 32.2566C31.1887 32.2566 30.9179 32.5274 30.9179 32.8614V38.5483L31.5227 39.2741L32.1276 38.5483Z" fill="#DB4040"/>
<path d="M30.9179 38.5483H32.1276V40H30.9179V38.5483Z" fill="#C63C3C"/>
<path d="M18.5208 38.5483V32.8614C18.5208 32.5274 18.25 32.2566 17.9159 32.2566C17.5819 32.2566 17.3111 32.5274 17.3111 32.8614V38.5483L17.9159 39.2741L18.5208 38.5483Z" fill="#DB4040"/>
<path d="M17.3111 38.5483H18.5208V40H17.3111V38.5483Z" fill="#C63C3C"/>
<path d="M11.799 20.3287C11.1844 19.3947 10.4695 18.124 10.115 16.8315C9.79045 15.6482 9.74178 14.0465 9.79319 12.5958C9.86366 10.6048 8.27874 8.94873 6.28655 8.94873H6.26014C4.46249 8.94873 2.94788 10.3061 2.76937 12.0948C2.75046 12.284 2.73515 12.4785 2.72366 12.677C2.93163 16.0808 3.83397 21.0021 11.799 20.3287Z" fill="#ADF0FF"/>
<path d="M2.72367 12.6764C2.51172 16.3558 3.73219 21.478 12.0602 21.7927C12.386 21.8051 12.581 21.4331 12.3872 21.1709C12.2166 20.9402 12.0141 20.6548 11.7993 20.3284C4.74157 19.9694 2.93149 16.0804 2.72367 12.6764Z" fill="#8DEAF5"/>
<path d="M19.8426 15.0225C19.961 15.1409 20.1163 15.2002 20.2715 15.2002C20.4267 15.2002 20.582 15.141 20.7005 15.0225L21.021 14.702L21.3414 15.0225C21.4599 15.1409 21.6152 15.2002 21.7704 15.2002C21.9257 15.2002 22.0809 15.141 22.1994 15.0225C22.4363 14.7856 22.4363 14.4016 22.1994 14.1646L21.8789 13.8442L22.1994 13.5238C22.4363 13.2868 22.4363 12.9028 22.1994 12.6659C21.9624 12.4291 21.5785 12.4291 21.3415 12.6659L21.021 12.9863L20.7006 12.6659C20.4636 12.4291 20.0796 12.4291 19.8427 12.6659C19.6058 12.9028 19.6058 13.2868 19.8427 13.5238L20.1631 13.8442L19.8427 14.1646C19.6057 14.4016 19.6057 14.7856 19.8426 15.0225Z" fill="#565E75"/>
<path d="M27.2395 15.0225C27.358 15.1409 27.5132 15.2002 27.6684 15.2002C27.8237 15.2002 27.9789 15.141 28.0974 15.0225L28.4179 14.702L28.7384 15.0225C28.8569 15.1409 29.0121 15.2002 29.1674 15.2002C29.3226 15.2002 29.4778 15.141 29.5963 15.0225C29.8332 14.7856 29.8332 14.4016 29.5963 14.1646L29.2759 13.8442L29.5963 13.5238C29.8332 13.2868 29.8332 12.9028 29.5963 12.6659C29.3594 12.4291 28.9754 12.4291 28.7384 12.6659L28.418 12.9863L28.0975 12.6659C27.8606 12.4291 27.4766 12.4291 27.2396 12.6659C27.0027 12.9028 27.0027 13.2868 27.2396 13.5238L27.5601 13.8442L27.2396 14.1646C27.0026 14.4016 27.0026 14.7856 27.2395 15.0225Z" fill="#565E75"/>
<path d="M23.2187 18.6958H26.22C26.5551 18.6958 26.8266 18.4242 26.8266 18.0892C26.8266 17.7542 26.555 17.4827 26.22 17.4827H23.2187C22.8837 17.4827 22.6122 17.7542 22.6122 18.0892C22.6121 18.4242 22.8837 18.6958 23.2187 18.6958Z" fill="#F4594E"/>
<path d="M4.99508 12.1785C4.66008 12.1785 4.38852 12.45 4.38852 12.785V13.4046C4.38852 13.7396 4.66008 14.0112 4.99508 14.0112C5.33008 14.0112 5.60164 13.7396 5.60164 13.4046V12.785C5.60164 12.45 5.33008 12.1785 4.99508 12.1785Z" fill="#565E75"/>
<path d="M7.41531 12.1785C7.08031 12.1785 6.80875 12.45 6.80875 12.785V13.4046C6.80875 13.7396 7.08031 14.0112 7.41531 14.0112C7.75039 14.0112 8.02187 13.7396 8.02187 13.4046V12.785C8.02187 12.45 7.75039 12.1785 7.41531 12.1785Z" fill="#565E75"/>
</g>
<defs>
<clipPath id="clip0">
<rect width="40" height="40" fill="white"/>
</clipPath>
</defs>
</svg>
