<svg width="40" height="40" viewBox="0 0 40 40" fill="none" xmlns="http://www.w3.org/2000/svg">
<g clip-path="url(#clip0)">
<path d="M23.5772 22.447C22.5113 23.0131 21.2954 23.3343 20.0043 23.3343C18.7132 23.3343 17.4974 23.0131 16.4314 22.447C11.2834 23.5248 7.41711 28.0894 7.41711 33.5575V36.3199L8.12024 38.5484L20.0043 39.2515L31.8884 38.5484L32.5915 36.3199V33.5575C32.5915 28.0893 28.7252 23.5247 23.5772 22.447Z" fill="#ADF0FF"/>
<path d="M10.065 13.0207C10.065 13.0207 7.87357 10.0684 7.77967 5.79805C7.77443 5.55915 7.98615 5.37321 8.22287 5.40579C8.7124 5.47313 9.5299 5.53055 10.2831 5.32743C12.5851 4.70673 14.85 0.139851 18.8404 0.006804C22.8309 -0.126243 23.6047 1.73602 23.6047 1.73602C23.6047 1.73602 25.0727 0.863367 27.2647 1.15962C30.5458 1.60298 33.4278 6.60157 30.4986 13.4683L10.065 13.0207Z" fill="#565E75"/>
<path d="M8.97015 14.3688C8.97015 15.8495 10.1737 16.7219 11.2327 16.7219L12.376 15.7248C12.376 15.7184 13.3734 14.3752 13.3734 14.3688L12.3755 13.0116C12.0364 12.8251 11.647 12.7188 11.2326 12.7188C10.1737 12.7188 9.27695 13.4117 8.97015 14.3688Z" fill="#EBBAA1"/>
<path d="M11.2326 16.0187C10.1737 16.0187 9.27688 15.3257 8.97008 14.3687C8.89672 14.5975 8.85672 14.8412 8.85672 15.0944C8.85672 16.4065 9.92039 17.4702 11.2325 17.4702C11.7001 17.4702 12.1357 17.3346 12.5033 17.1014L13.1262 16.2709L12.3759 15.7247C12.0367 15.9115 11.6473 16.0187 11.2326 16.0187Z" fill="#E8A990"/>
<path d="M31.0384 14.3688C31.0384 15.8495 29.8349 16.7219 28.7759 16.7219L27.6326 15.7248C27.6326 15.7184 26.6352 14.3752 26.6352 14.3688L27.633 13.0116C27.9722 12.8251 28.3616 12.7188 28.776 12.7188C29.8349 12.7188 30.7316 13.4117 31.0384 14.3688Z" fill="#EBBAA1"/>
<path d="M28.7759 16.0187C29.8348 16.0187 30.7316 15.3257 31.0384 14.3687C31.1118 14.5975 31.1518 14.8412 31.1518 15.0944C31.1518 16.4065 30.0881 17.4702 28.776 17.4702C28.3084 17.4702 27.8728 17.3346 27.5052 17.1014L26.8823 16.2709L27.6326 15.7247C27.9719 15.9115 28.3612 16.0187 28.7759 16.0187Z" fill="#E8A990"/>
<path d="M19.9957 22.5858C24.2089 22.5858 27.6244 19.3378 27.6244 14.254V12.0637C27.6244 11.3959 27.3526 10.7534 26.8618 10.3006C25.4373 8.98655 23.8516 6.7132 23.2147 5.76382C23.0684 5.54585 22.7581 5.52554 22.5808 5.71914C19.3676 9.22859 15.2053 10.3981 13.3429 10.762C12.7755 10.8729 12.3671 11.3707 12.3671 11.9488V14.2541C12.3669 19.2796 15.7824 22.5858 19.9957 22.5858Z" fill="#FDD4BB"/>
<path d="M13.8057 40H26.2029L26.8077 39.2742L26.2029 38.5483H13.8057L13.2009 39.2742L13.8057 40Z" fill="#8DEAF5"/>
<path d="M32.5829 38.5484L29.691 39.2515L26.7991 38.5484V36.3199H32.5829V38.5484Z" fill="#FDD4BB"/>
<path d="M7.40851 38.5484L10.3004 39.2515L13.1923 38.5484V36.3199H7.40851V38.5484Z" fill="#FDD4BB"/>
<path d="M32.5829 38.5483H27.4125L26.8076 39.2741L27.4125 39.9999H32.1923C32.408 39.9999 32.5829 39.825 32.5829 39.6093V38.5483Z" fill="#F7C4A8"/>
<path d="M7.40851 38.5483H12.596L13.2009 39.2741L12.596 39.9999H7.79913C7.58343 39.9999 7.40851 39.825 7.40851 39.6093V38.5483Z" fill="#F7C4A8"/>
<path d="M19.9957 23.3344C18.695 23.3344 17.4705 23.0085 16.3989 22.4344C16.3916 22.5283 16.3867 22.6227 16.3867 22.7184C16.3867 24.7116 18.0025 26.3273 19.9957 26.3273C21.9889 26.3273 23.6047 24.7116 23.6047 22.7184C23.6047 22.6227 23.5998 22.5282 23.5925 22.4344C22.5209 23.0085 21.2964 23.3344 19.9957 23.3344Z" fill="#EBBAA1"/>
<path d="M19.9957 21.8828C15.7824 21.8828 12.3669 18.4674 12.3669 14.2542V15.7058C12.3669 19.919 15.7824 23.3345 19.9956 23.3345C24.2088 23.3345 27.6243 19.919 27.6243 15.7058V14.2542C27.6244 18.4673 24.2089 21.8828 19.9957 21.8828Z" fill="#F7C4A8"/>
<path d="M27.4125 38.5483V32.8614C27.4125 32.5274 27.1417 32.2566 26.8077 32.2566C26.4736 32.2566 26.2028 32.5274 26.2028 32.8614V38.5483L26.8077 39.2741L27.4125 38.5483Z" fill="#85E1E5"/>
<path d="M26.2029 38.5483H27.4126V40H26.2029V38.5483Z" fill="#6ED6D6"/>
<path d="M13.8057 38.5483V32.8614C13.8057 32.5274 13.5349 32.2566 13.2009 32.2566C12.8668 32.2566 12.596 32.5274 12.596 32.8614V38.5483L13.2009 39.2741L13.8057 38.5483Z" fill="#85E1E5"/>
<path d="M12.596 38.5483H13.8057V40H12.596V38.5483Z" fill="#6ED6D6"/>
<path d="M21.355 35.8974C21.8385 35.8974 22.5029 35.3353 22.5029 34.5609C22.2619 34.1806 21.8385 33.9274 21.355 33.9274C20.8715 33.9274 20.448 34.1806 20.2071 34.5609C20.207 35.3352 20.8715 35.8974 21.355 35.8974Z" fill="#B3E59F"/>
<path d="M21.355 35.1943C20.8715 35.1943 20.448 34.9411 20.2071 34.5608C20.0739 34.7709 19.9957 35.0194 19.9957 35.2866C19.9957 36.0373 20.6043 36.6459 21.355 36.6459C22.1057 36.6459 22.7143 36.0373 22.7143 35.2866C22.7143 35.0194 22.6361 34.7709 22.5029 34.5608C22.2619 34.9411 21.8385 35.1943 21.355 35.1943Z" fill="#95D6A4"/>
<path d="M19.9954 17.2601C18.4938 17.2601 17.2766 18.4774 17.2766 19.9789V19.9997L19.9954 20.7029L22.7142 19.9997V19.9789C22.7143 18.4774 21.497 17.2601 19.9954 17.2601Z" fill="#F4594E"/>
<path d="M17.2766 19.9999V29.757C17.2766 31.1625 17.8852 31.8196 18.6361 31.8196C19.3869 31.8196 19.9956 31.2188 19.9956 29.757V28.3191V26.8674C19.9956 28.3191 20.6042 28.9299 21.3549 28.9299C22.1056 28.9299 22.7142 28.3191 22.7142 26.8674V19.9999H17.2766Z" fill="#B3E59F"/>
<path d="M18.6362 31.1165C17.8853 31.1165 17.2766 30.5078 17.2766 29.757V31.2086C17.2766 31.9595 17.8853 32.5681 18.6362 32.5681C19.387 32.5681 19.9957 31.9595 19.9957 31.2086V29.757C19.9957 30.5078 19.387 31.1165 18.6362 31.1165Z" fill="#95D6A4"/>
<path d="M21.355 28.2267C20.6043 28.2267 19.9957 27.6181 19.9957 26.8674V28.3191C19.9957 29.0698 20.6043 29.6784 21.355 29.6784C22.1057 29.6784 22.7143 29.0698 22.7143 28.3191V26.8674C22.7143 27.6181 22.1057 28.2267 21.355 28.2267Z" fill="#95D6A4"/>
<path d="M15.1192 15.0221C15.3559 15.2588 15.7395 15.2587 15.9763 15.0221L16.2972 14.7012L16.618 15.0221C16.8548 15.2588 17.2384 15.2587 17.4752 15.0221C17.7118 14.7855 17.7118 14.4017 17.4752 14.1651L17.1543 13.8441L17.4752 13.5232C17.7118 13.2865 17.7118 12.9028 17.4752 12.6662C17.2384 12.4295 16.8548 12.4295 16.618 12.6662L16.2972 12.987L15.9763 12.6662C15.7397 12.4295 15.356 12.4294 15.1192 12.6662C14.8826 12.9028 14.8826 13.2865 15.1192 13.5232L15.4401 13.8441L15.1192 14.1651C14.8826 14.4017 14.8826 14.7855 15.1192 15.0221Z" fill="#565E75"/>
<path d="M22.5163 15.0221C22.7531 15.2588 23.1366 15.2587 23.3734 15.0221L23.6942 14.7012L24.0151 15.0221C24.2518 15.2588 24.6355 15.2587 24.8722 15.0221C25.1088 14.7855 25.1088 14.4017 24.8722 14.1651L24.5513 13.8441L24.8722 13.5232C25.1088 13.2865 25.1088 12.9028 24.8722 12.6662C24.6355 12.4295 24.2518 12.4295 24.0151 12.6662L23.6942 12.987L23.3734 12.6662C23.1367 12.4295 22.7531 12.4294 22.5163 12.6662C22.2796 12.9028 22.2796 13.2865 22.5163 13.5232L22.8371 13.8441L22.5163 14.1651C22.2796 14.4017 22.2796 14.7855 22.5163 15.0221Z" fill="#565E75"/>
<path d="M19.9957 26.312C20.3305 26.312 20.6017 26.0406 20.6017 25.706V22.2784C20.6017 21.9437 20.3304 21.6724 19.9957 21.6724C19.6609 21.6724 19.3897 21.9437 19.3897 22.2784V25.706C19.3897 26.0406 19.6609 26.312 19.9957 26.312Z" fill="#FFDE91"/>
</g>
<defs>
<clipPath id="clip0">
<rect width="40" height="40" fill="white"/>
</clipPath>
</defs>
</svg>
