<svg width="40" height="40" viewBox="0 0 40 40" fill="none" xmlns="http://www.w3.org/2000/svg">
<g clip-path="url(#clip0)">
<path d="M31.8841 38.5484L32.5872 36.3199V33.5575C32.5872 28.0894 28.7208 23.5248 23.5729 22.447C22.507 23.0131 21.2911 23.3343 20 23.3343C18.7089 23.3343 17.493 23.0131 16.4271 22.447C11.2792 23.5247 7.41281 28.0894 7.41281 33.5575V36.3199L8.11594 38.5484L20.2732 39.2515L31.8841 38.5484Z" fill="#ADF0FF"/>
<path d="M10.0694 13.0207C10.0694 13.0207 7.87797 10.0684 7.78406 5.79805C7.77883 5.55915 7.99055 5.37321 8.22726 5.40579C8.7168 5.47313 9.53422 5.53055 10.2875 5.32743C12.5895 4.70673 14.8544 0.139851 18.8448 0.006804C22.8352 -0.126243 23.6091 1.73602 23.6091 1.73602C23.6091 1.73602 25.077 0.863367 27.2691 1.15962C30.5501 1.60298 33.4321 6.60157 30.503 13.4683L10.0694 13.0207Z" fill="#565E75"/>
<path d="M8.96585 14.3687C8.96585 15.8494 10.1694 16.7218 11.2284 16.7218L12.3717 15.7247C12.3717 15.7184 13.3691 14.3751 13.3691 14.3687L12.3712 13.0115C12.0321 12.825 11.6426 12.7188 11.2283 12.7188C10.1694 12.7187 9.27265 13.4116 8.96585 14.3687Z" fill="#EBBAA1"/>
<path d="M11.2284 16.0187C10.1694 16.0187 9.27273 15.3257 8.96593 14.3687C8.89257 14.5975 8.85257 14.8412 8.85257 15.0944C8.85257 16.4065 9.91624 17.4702 11.2284 17.4702C11.6959 17.4702 12.1316 17.3346 12.4991 17.1014L13.122 16.2709L12.3718 15.7247C12.0324 15.9115 11.643 16.0187 11.2284 16.0187Z" fill="#E8A990"/>
<path d="M31.0341 14.3687C31.0341 15.8494 29.8306 16.7218 28.7716 16.7218L27.6283 15.7247C27.6283 15.7184 26.6309 14.3751 26.6309 14.3687L27.6287 13.0115C27.9679 12.825 28.3573 12.7188 28.7717 12.7188C29.8306 12.7187 30.7273 13.4116 31.0341 14.3687Z" fill="#EBBAA1"/>
<path d="M28.7717 16.0187C29.8306 16.0187 30.7274 15.3257 31.0342 14.3687C31.1076 14.5975 31.1476 14.8412 31.1476 15.0944C31.1476 16.4065 30.0839 17.4702 28.7718 17.4702C28.3042 17.4702 27.8686 17.3346 27.501 17.1014L26.8781 16.2709L27.6283 15.7247C27.9676 15.9115 28.3569 16.0187 28.7717 16.0187Z" fill="#E8A990"/>
<path d="M20 22.5858C24.2132 22.5858 27.6287 19.6258 27.6287 14.254V12.0637C27.6287 11.3959 27.3569 10.7534 26.8661 10.3006C25.4416 8.98655 23.8559 6.7132 23.219 5.76382C23.0727 5.54585 22.7624 5.52554 22.5851 5.71914C19.3719 9.22859 15.2096 10.3981 13.3472 10.7619C12.7798 10.8728 12.3714 11.3706 12.3714 11.9487V14.254C12.3712 19.3232 15.7868 22.5858 20 22.5858Z" fill="#FDD4BB"/>
<path d="M13.8013 40H26.1985L26.8034 39.2742L26.1985 38.5483H13.8013L13.1966 39.2742L13.8013 40Z" fill="#8DEAF5"/>
<path d="M16.4032 22.4344C16.3959 22.5283 16.391 22.6227 16.391 22.7184C16.391 24.7116 18.0068 26.3273 20 26.3273C21.9932 26.3273 23.609 24.7116 23.609 22.7184C23.609 22.6227 23.6041 22.5282 23.5968 22.4344H16.4032Z" fill="#EBBAA1"/>
<path d="M32.5872 38.5483L29.6953 39.2514L26.8034 38.5483V36.3198H32.5872V38.5483Z" fill="#FDD4BB"/>
<path d="M7.41281 38.5483L10.3047 39.2514L13.1966 38.5483V36.3198H7.41281V38.5483Z" fill="#FDD4BB"/>
<path d="M27.4082 40H32.1965C32.4123 40 32.5872 39.8251 32.5872 39.6094V38.5483H27.4082L26.8033 39.2741L27.4082 40Z" fill="#F7C4A8"/>
<path d="M7.80344 40H12.5917L13.1966 39.2742L12.5917 38.5485H7.41281V39.6094C7.41281 39.8251 7.58766 40 7.80344 40Z" fill="#F7C4A8"/>
<path d="M27.4082 38.5483V32.8614C27.4082 32.5274 27.1374 32.2566 26.8034 32.2566C26.4693 32.2566 26.1985 32.5274 26.1985 32.8614V38.5483L26.8034 39.2741L27.4082 38.5483Z" fill="#85E1E5"/>
<path d="M26.1985 38.5483H27.4082V40H26.1985V38.5483Z" fill="#6ED6D6"/>
<path d="M13.8013 38.5483V32.8614C13.8013 32.5274 13.5305 32.2566 13.1965 32.2566C12.8624 32.2566 12.5916 32.5274 12.5916 32.8614V38.5483L13.1965 39.2741L13.8013 38.5483Z" fill="#85E1E5"/>
<path d="M12.5917 38.5483H13.8014V40H12.5917V38.5483Z" fill="#6ED6D6"/>
<path d="M20 21.8828C15.7868 21.8828 12.3712 18.4674 12.3712 14.2542V15.7058C12.3712 19.919 15.7867 23.3345 19.9999 23.3345C24.2131 23.3345 27.6286 19.919 27.6286 15.7058V14.2542C27.6287 18.4673 24.2132 21.8828 20 21.8828Z" fill="#F7C4A8"/>
<path d="M20 16.8601C18.7987 16.8601 17.798 17.7192 17.579 18.8566C17.5323 19.0993 17.7149 19.3257 17.9621 19.3257H22.0379C22.2851 19.3257 22.4677 19.0993 22.421 18.8566C22.2019 17.7192 21.2012 16.8601 20 16.8601Z" fill="#F4594E"/>
<path d="M15.8178 9.86361C16.6354 9.86361 17.6101 9.27032 17.6101 7.92908C17.2942 6.97189 16.4706 6.22595 16.059 5.89986C15.9175 5.78775 15.7174 5.7883 15.5759 5.90033C15.1641 6.22666 14.3412 6.97236 14.0255 7.92915C14.0255 9.38087 15.0002 9.86361 15.8178 9.86361Z" fill="#ADF0FF"/>
<path d="M15.6153 14.4296C15.6292 14.4258 15.7448 14.3934 15.9239 14.3229V14.4075C15.9239 14.7426 16.1955 15.014 16.5305 15.014C16.8655 15.014 17.137 14.7425 17.137 14.4075V13.6383C17.2829 13.527 17.4296 13.402 17.5725 13.2616C17.8115 13.0268 17.8149 12.6428 17.5801 12.4038C17.3453 12.1647 16.9614 12.1615 16.7223 12.3961C16.0767 13.0302 15.3109 13.2549 15.2934 13.2599C14.9716 13.349 14.7823 13.6818 14.8703 14.0041C14.9439 14.2738 15.1883 14.4511 15.4551 14.4511C15.5081 14.4511 15.5618 14.4442 15.6153 14.4296Z" fill="#565E75"/>
<path d="M22.4198 12.4037C22.185 12.6427 22.1884 13.0268 22.4274 13.2615C22.5703 13.4019 22.717 13.5269 22.8628 13.6383V14.4074C22.8628 14.7425 23.1344 15.014 23.4694 15.014C23.8044 15.014 24.0759 14.7424 24.0759 14.4074V14.3229C24.2551 14.3933 24.3706 14.4258 24.3845 14.4295C24.438 14.444 24.4916 14.4511 24.5443 14.4511C24.8098 14.4511 25.0527 14.2748 25.1273 14.0063C25.2166 13.6845 25.0278 13.3507 24.7065 13.2598C24.6987 13.2576 23.9272 13.0343 23.2774 12.396C23.0386 12.1615 22.6548 12.1648 22.4198 12.4037Z" fill="#565E75"/>
<path d="M24.3375 11.6198C24.6726 11.6198 24.944 11.3482 24.944 11.0132V10.4269C24.944 10.0919 24.6725 9.82031 24.3375 9.82031C24.0024 9.82031 23.7309 10.0919 23.7309 10.4269V11.0132C23.7308 11.3483 24.0024 11.6198 24.3375 11.6198Z" fill="#B3E59F"/>
<path d="M22.5641 9.97377C22.8991 9.97377 23.1706 9.70221 23.1706 9.36721V8.78088C23.1706 8.4458 22.8991 8.17432 22.5641 8.17432C22.229 8.17432 21.9575 8.44588 21.9575 8.78088V9.36721C21.9575 9.70221 22.2291 9.97377 22.5641 9.97377Z" fill="#B3E59F"/>
<path d="M20.583 11.3268C20.9181 11.3268 21.1896 11.0552 21.1896 10.7202V10.1339C21.1896 9.79883 20.918 9.52734 20.583 9.52734C20.248 9.52734 19.9765 9.79891 19.9765 10.1339V10.7202C19.9765 11.0552 20.248 11.3268 20.583 11.3268Z" fill="#B3E59F"/>
<path d="M10.58 22.6572C10.8583 22.4707 10.9326 22.0939 10.746 21.8156C10.5594 21.5373 10.1826 21.463 9.90437 21.6496C8.35539 22.6881 6.91797 24.1962 5.7475 26.0107C5.56594 26.2922 5.64695 26.6677 5.92844 26.8492C6.03008 26.9148 6.14406 26.9462 6.25672 26.9462C6.45594 26.9462 6.65101 26.8481 6.76703 26.6683C7.84867 24.9915 9.16718 23.6045 10.58 22.6572Z" fill="#FFDE91"/>
<path d="M34.2524 26.0107C33.0818 24.1961 31.6445 22.6881 30.0955 21.6496C29.8173 21.4632 29.4405 21.5374 29.2539 21.8157C29.0673 22.0939 29.1416 22.4707 29.4199 22.6573C30.8327 23.6045 32.1512 24.9914 33.2329 26.6683C33.3489 26.8481 33.544 26.9462 33.7432 26.9462C33.8559 26.9462 33.9698 26.9149 34.0715 26.8492C34.353 26.6676 34.434 26.2922 34.2524 26.0107Z" fill="#FFDE91"/>
<path d="M15.8178 9.16049C15 9.16049 14.302 8.64886 14.0253 7.92847C13.9454 8.17058 13.8978 8.4262 13.8978 8.69206C13.8978 9.75245 14.7574 10.6121 15.8178 10.6121C16.8782 10.6121 17.7378 9.75245 17.7378 8.69206C17.7378 8.4262 17.6903 8.17058 17.6103 7.92847C17.3336 8.64886 16.6356 9.16049 15.8178 9.16049Z" fill="#8DEAF5"/>
</g>
<defs>
<clipPath id="clip0">
<rect width="40" height="40" fill="white"/>
</clipPath>
</defs>
</svg>
