<svg width="40" height="40" viewBox="0 0 40 40" fill="none" xmlns="http://www.w3.org/2000/svg">
<path d="M24.6875 22.0938V28.2813L20 32.9688L15.3125 28.2813V22.0938L16.9999 22.914C18.8516 23.8046 21.1484 23.8046 23.0001 22.914L24.6875 22.0938Z" fill="#FFBFAB"/>
<path d="M24.6875 28.2813V22.0938L23.0001 22.914C22.0742 23.3593 21.0371 23.5819 20 23.5819V32.9688L24.6875 28.2813Z" fill="#F89580"/>
<path d="M25.8594 25.9375H24.6875L20 30.625L15.3125 25.9375H14.1406C8.3282 25.9375 3.59375 30.6718 3.59375 36.4844V40H36.4062V36.4844C36.4062 30.6718 31.6718 25.9375 25.8594 25.9375Z" fill="#E6F2F2"/>
<path d="M36.4062 40V36.4844C36.4062 30.6718 31.6718 25.9375 25.8594 25.9375H24.6875L20 30.625V40H36.4062Z" fill="#CFE6E6"/>
<path d="M20 25.9375C18.5706 25.9375 17.2145 25.6297 15.9705 25.022C12.7273 23.4839 10.625 20.1605 10.625 16.5625V11.875C10.625 10.5805 11.6743 9.45312 12.9688 9.45312H27.0312C28.3257 9.45312 29.375 10.5805 29.375 11.875V16.5625C29.375 20.1605 27.2727 23.4839 24.018 25.0277C22.7855 25.6297 21.4294 25.9375 20 25.9375Z" fill="#FFE1BA"/>
<path d="M29.375 16.5625V11.875C29.375 10.5805 28.3257 9.45312 27.0312 9.45312H20V25.9375C21.4294 25.9375 22.7855 25.6297 24.018 25.0277C27.2727 23.4839 29.375 20.1605 29.375 16.5625Z" fill="#FFBFAB"/>
<path d="M15.3125 14.2188H17.6562V16.5625H15.3125V14.2188Z" fill="#407580"/>
<path d="M22.3438 14.2188H24.6875V16.5625H22.3438V14.2188Z" fill="#335E73"/>
<path d="M28.2031 26.2188V40H25.8594V25.9375C26.6563 25.9375 27.4531 26.0312 28.2031 26.2188Z" fill="#335E73"/>
<path d="M11.7969 34.1406H14.1406V25.9375C13.3437 25.9375 12.5469 26.0312 11.7969 26.2188V34.1406Z" fill="#407580"/>
<path d="M17.6562 40H15.3125V37.6562C15.3125 36.3642 14.2608 35.3125 12.9688 35.3125C11.6767 35.3125 10.625 36.3642 10.625 37.6562V40H8.28125V37.6562C8.28125 35.071 10.3835 32.9688 12.9688 32.9688C15.554 32.9688 17.6562 35.071 17.6562 37.6562V40Z" fill="#3DCCC0"/>
<path d="M29.375 11.875H10.625V0H29.375V11.875Z" fill="#E6F2F2"/>
<path d="M20 0H29.375V11.875H20V0Z" fill="#CFE6E6"/>
<path d="M23.5156 4.76562H21.1719V2.42188H18.8281V4.76562H16.4844V7.10938H18.8281V9.45312H21.1719V7.10938H23.5156V4.76562Z" fill="#FF7366"/>
<path d="M20 2.42188V9.45312H21.1719V7.10938H23.5156V4.76562H21.1719V2.42188H20Z" fill="#E6455A"/>
</svg>
