<svg width="40" height="40" viewBox="0 0 40 40" fill="none" xmlns="http://www.w3.org/2000/svg">
<path d="M40 12.0195V16.707H37.5781L35.2344 17.8789H13.5235L10.9218 16.707L0 8.24609L2.88273 4.54297L12.5157 12.0195H40Z" fill="#5CE6CF"/>
<path d="M40 12.0195V16.707H37.5781L35.2344 17.8789H24.6875V12.0195H40Z" fill="#3DCCC0"/>
<path d="M4.6875 21.3945H7.03125V30.7695H4.6875V21.3945Z" fill="#407580"/>
<path d="M32.8906 21.3945H35.2344V30.7695H32.8906V21.3945Z" fill="#335E73"/>
<path d="M37.5781 19.0508V23.7383H2.34375V17.8789H35.7734L37.5781 19.0508Z" fill="#678D98"/>
<path d="M37.5781 19.0508V23.7383H24.6875V17.8789H35.7734L37.5781 19.0508Z" fill="#407580"/>
<path d="M5.85938 35.457C3.92078 35.457 2.34375 33.88 2.34375 31.9414C2.34375 30.0028 3.92078 28.4258 5.85938 28.4258C7.79797 28.4258 9.375 30.0028 9.375 31.9414C9.375 33.88 7.79797 35.457 5.85938 35.457Z" fill="#678D98"/>
<path d="M5.85938 33.1133C6.50658 33.1133 7.03125 32.5886 7.03125 31.9414C7.03125 31.2942 6.50658 30.7695 5.85938 30.7695C5.21217 30.7695 4.6875 31.2942 4.6875 31.9414C4.6875 32.5886 5.21217 33.1133 5.85938 33.1133Z" fill="#E6F2F2"/>
<path d="M34.0625 35.457C32.1239 35.457 30.5469 33.88 30.5469 31.9414C30.5469 30.0028 32.1239 28.4258 34.0625 28.4258C36.0011 28.4258 37.5781 30.0028 37.5781 31.9414C37.5781 33.88 36.0011 35.457 34.0625 35.457Z" fill="#407580"/>
<path d="M34.0625 33.1133C34.7097 33.1133 35.2344 32.5886 35.2344 31.9414C35.2344 31.2942 34.7097 30.7695 34.0625 30.7695C33.4153 30.7695 32.8906 31.2942 32.8906 31.9414C32.8906 32.5886 33.4153 33.1133 34.0625 33.1133Z" fill="#CFE6E6"/>
<path d="M32.8906 10.8477V17.8789H30.5469V10.8477C30.5469 10.1913 30.0313 9.67578 29.375 9.67578H20C19.3437 9.67578 18.8281 10.1913 18.8281 10.8477V17.8789H16.4844V10.8477C16.4844 8.90227 18.0546 7.33203 20 7.33203H29.375C31.3204 7.33203 32.8906 8.90234 32.8906 10.8477Z" fill="#E6F2F2"/>
<path d="M32.8906 10.8477V17.8789H30.5469V10.8477C30.5469 10.1913 30.0313 9.67578 29.375 9.67578H24.6875V7.33203H29.375C31.3204 7.33203 32.8906 8.90234 32.8906 10.8477Z" fill="#CFE6E6"/>
<path d="M0 16.707H37.5781V19.0508H0V16.707Z" fill="#E6F2F2"/>
<path d="M24.6875 16.707H37.5781V19.0508H24.6875V16.707Z" fill="#CFE6E6"/>
</svg>
