<svg width="40" height="40" viewBox="0 0 40 40" fill="none" xmlns="http://www.w3.org/2000/svg">
<path d="M17.6562 29.8868H10.625C6.74773 29.8868 3.59375 26.7328 3.59375 22.8555C3.59375 21.2087 4.17398 19.61 5.2268 18.3522L12.9688 8.91943V18.168C12.9688 20.8654 14.5458 23.3579 16.9868 24.5161L17.6562 24.8331V29.8868Z" fill="#407580"/>
<path d="M29.375 29.8868H22.3438V24.833L23.0132 24.516C25.4542 23.3579 27.0312 20.8654 27.0312 18.168V8.91943L34.7743 18.3546C35.826 19.61 36.4062 21.2087 36.4062 22.8555C36.4062 26.7328 33.2523 29.8868 29.375 29.8868Z" fill="#335E73"/>
<path d="M24.6875 22.0938V28.2813L20 32.9688L15.3125 28.2813V22.0938L16.9999 22.914C18.8516 23.8046 21.1484 23.8046 23.0001 22.914L24.6875 22.0938Z" fill="#FFBFAB"/>
<path d="M24.6875 28.2813V22.0938L23.0001 22.914C22.0742 23.3593 21.0371 23.5819 20 23.5819V32.9688L24.6875 28.2813Z" fill="#F89580"/>
<path d="M20 25.9375C18.5706 25.9375 17.2145 25.6297 15.9705 25.022C12.7273 23.4839 10.625 20.1605 10.625 16.5625V11.875C10.625 10.5805 11.6743 9.375 12.9688 9.375H27.0312C28.3257 9.375 29.375 10.5805 29.375 11.875V16.5625C29.375 20.1605 27.2727 23.4839 24.018 25.0277C22.7855 25.6297 21.4294 25.9375 20 25.9375Z" fill="#FFE1BA"/>
<path d="M29.375 16.5625V11.875C29.375 10.5805 28.3257 9.375 27.0312 9.375H20V25.9375C21.4294 25.9375 22.7855 25.6297 24.018 25.0277C27.2727 23.4839 29.375 20.1605 29.375 16.5625Z" fill="#FFBFAB"/>
<path d="M15.3125 14.2188H17.6562V16.5625H15.3125V14.2188Z" fill="#407580"/>
<path d="M22.3438 14.2188H24.6875V16.5625H22.3438V14.2188Z" fill="#335E73"/>
<path d="M29.375 11.875H10.625V0H29.375V11.875Z" fill="#E6F2F2"/>
<path d="M20 0H29.375V11.875H20V0Z" fill="#CFE6E6"/>
<path d="M23.5156 4.6875H21.1719V2.34375H18.8281V4.6875H16.4844V7.03125H18.8281V9.375H21.1719V7.03125H23.5156V4.6875Z" fill="#FF7366"/>
<path d="M20 2.34375V9.375H21.1719V7.03125H23.5156V4.6875H21.1719V2.34375H20Z" fill="#E6455A"/>
<path d="M25.8594 25.9375H24.6875L20 30.625L15.3125 25.9375H14.1406C8.3282 25.9375 3.59375 30.6718 3.59375 36.4844V40H36.4062V36.4844C36.4062 30.6718 31.6718 25.9375 25.8594 25.9375Z" fill="#E6F2F2"/>
<path d="M36.4062 40V36.4844C36.4062 30.6718 31.6718 25.9375 25.8594 25.9375H24.6875L20 30.625V40H36.4062Z" fill="#CFE6E6"/>
<path d="M24.6875 32.9688H29.375V35.3125H24.6875V32.9688Z" fill="#335E73"/>
</svg>
