<svg width="40" height="40" viewBox="0 0 40 40" fill="none" xmlns="http://www.w3.org/2000/svg">
<path d="M24.6875 21.9375V28.125L20 32.8125L15.3125 28.125V21.9375L16.9999 22.7577C18.8516 23.6484 21.1484 23.6484 23.0001 22.7577L24.6875 21.9375Z" fill="#FFBFAB"/>
<path d="M24.6875 28.125V21.9375L23.0001 22.7577C22.0742 23.203 21.0371 23.4256 20 23.4256V32.8125L24.6875 28.125Z" fill="#F89580"/>
<path d="M23.5156 4.6875C21.9219 4.6875 20.4688 5.29688 19.3906 6.39836C18.0079 7.75781 15.8048 9.375 12.9922 9.375L10.625 11.7188V16.4062C10.625 20.0155 12.7345 23.3203 15.9688 24.8672C17.2109 25.4766 18.5703 25.7812 20 25.7812C21.4297 25.7812 22.7891 25.4766 24.0079 24.8672C27.2655 23.3203 29.375 20.0155 29.375 16.4062V12.8906C29.375 9.65625 26.75 4.6875 23.5156 4.6875Z" fill="#FFE1BA"/>
<path d="M23.5156 4.6875C22.1993 4.6875 20.9925 5.12352 20 5.88883V25.7812C21.4297 25.7812 22.7891 25.4766 24.0079 24.8672C27.2655 23.3203 29.375 20.0155 29.375 16.4062V12.8906C29.375 9.65625 26.75 4.6875 23.5156 4.6875Z" fill="#FFBFAB"/>
<path d="M15.3125 14.0625H17.6562V16.4062H15.3125V14.0625Z" fill="#384949"/>
<path d="M22.3438 14.0625H24.6875V16.4062H22.3438V14.0625Z" fill="#384949"/>
<path d="M36.4062 36.3281V40H20V30.4688L24.6875 25.7812H25.8594C31.6718 25.7812 36.4062 30.5155 36.4062 36.3281Z" fill="#3DCCC0"/>
<path d="M20 30.4688V40H3.59375V36.3281C3.59375 30.5155 8.3282 25.7812 14.1406 25.7812H15.3125L20 30.4688Z" fill="#5CE6CF"/>
<path d="M29.375 9.375V12.8906C29.375 9.65625 26.75 7.03125 23.5156 7.03125C22.2055 7.03125 20.9898 7.44297 20 8.20234C19.7859 8.36641 19.582 8.54609 19.3906 8.74219C18.0078 10.1016 15.8047 11.7188 12.9922 11.7188H10.625V9.375C10.625 4.19531 14.8203 0 20 0C25.1797 0 29.375 4.19531 29.375 9.375Z" fill="#407580"/>
<path d="M29.375 9.375V12.8906C29.375 9.65625 26.75 7.03125 23.5156 7.03125C22.2055 7.03125 20.9898 7.44297 20 8.20234V0C25.1797 0 29.375 4.19531 29.375 9.375Z" fill="#335E73"/>
</svg>
