<svg width="40" height="40" viewBox="0 0 40 40" fill="none" xmlns="http://www.w3.org/2000/svg">
<g clip-path="url(#clip0)">
<path d="M32.8294 5.48859L32.5627 4.6875H31.3165C26.9746 4.6875 23.348 3.34852 20.828 0.828516L19.9995 0L19.1709 0.828516C16.6509 3.34852 13.0242 4.6875 8.68235 4.6875H7.4361L7.16946 5.48859C7.07102 5.78273 4.76508 12.8612 4.76618 20.2186C4.79938 25.3135 6.76657 34.7071 19.5645 39.8261L19.9994 40.0001L20.4342 39.8261C33.2323 34.7071 35.1995 25.3135 35.2338 20C35.2338 12.8612 32.9278 5.78273 32.8294 5.48859Z" fill="#E6F2F2"/>
<path d="M35.2338 20C35.2338 12.8612 32.9278 5.78273 32.8295 5.48859L32.5628 4.6875H31.3165C26.9746 4.6875 23.348 3.34852 20.828 0.828516L19.9995 0V40L20.4343 39.826C33.2323 34.7071 35.1995 25.3135 35.2338 20Z" fill="#CFE6E6"/>
<path d="M30.8507 7.02637C26.5202 6.93941 22.7998 5.63816 19.9995 3.25098C17.1991 5.63824 13.4786 6.94059 9.14821 7.02637C8.55876 9.03254 7.10883 14.5958 7.10883 19.9997C7.13977 24.6495 8.86438 32.8311 19.9995 37.4718C31.1345 32.83 32.8603 24.6518 32.8889 20.2023C32.8901 14.6347 31.4401 9.03824 30.8507 7.02637Z" fill="#FF7366"/>
<path d="M32.8889 20.2022C32.8901 14.6346 31.4401 9.03824 30.8507 7.02637C26.5202 6.93941 22.7998 5.63816 19.9995 3.25098V37.4717C31.1345 32.83 32.8603 24.6517 32.8889 20.2022Z" fill="#E6455A"/>
<path d="M22.3432 17.6562V10.625H19.9995H17.6557V17.6562H10.6245V22.3438H17.6557V29.375H19.9995H22.3432V22.3438H29.3745V17.6562H22.3432Z" fill="#E6F2F2"/>
<path d="M22.3432 22.3438H29.3745V17.6562H22.3432V10.625H19.9995V29.375H22.3432V22.3438Z" fill="#CFE6E6"/>
</g>
<defs>
<clipPath id="clip0">
<rect width="40" height="40" fill="white"/>
</clipPath>
</defs>
</svg>
