<svg width="40" height="40" viewBox="0 0 40 40" fill="none" xmlns="http://www.w3.org/2000/svg">
<path d="M14.2033 8.54758L13.3747 7.71906C12.4867 6.83102 10.9509 6.83102 10.0628 7.71906L9.23428 8.54758L4.28006 3.59117C4.71623 3.27297 6.96522 0 11.7187 0C16.4279 0 18.7438 3.28937 19.1574 3.59117L14.2033 8.54758Z" fill="#E6F2F2"/>
<path d="M13.3747 7.71906L14.2032 8.54758L19.1573 3.59117C18.7438 3.28937 16.428 0 11.7187 0C11.6818 0 11.6455 0.00078125 11.6088 0.00117187C11.585 1.72023 11.5777 4.21922 11.5805 7.05727C12.2316 7.02094 12.8969 7.24125 13.3747 7.71906Z" fill="#CFE6E6"/>
<path d="M21.0906 22.0273C21.0484 20.5758 20.6273 19.2164 19.9219 18.0461C18.4867 15.6609 15.8711 14.0625 12.8906 14.0625H10.5469C6.02422 14.0625 2.34375 17.743 2.34375 22.2656V23.5156H21.0938V22.2656C21.0938 22.1945 21.093 22.1148 21.0906 22.0273Z" fill="#E6F2F2"/>
<path d="M11.6617 23.5156H21.0938V22.2656C21.0938 22.1945 21.093 22.1148 21.0906 22.0273C21.0484 20.5758 20.6274 19.2164 19.9219 18.0461C18.4867 15.6609 15.8711 14.0625 12.8906 14.0625H11.6025C11.6186 17.4027 11.6409 20.7379 11.6617 23.5156Z" fill="#CFE6E6"/>
<path d="M30.5469 17.5781H32.8906V22.2656H30.5469V17.5781Z" fill="#407580"/>
<path d="M31.7188 17.5781H32.8906V22.2656H31.7188V17.5781Z" fill="#335E73"/>
<path d="M11.7188 14.0624C9.13352 14.0624 7.03125 11.9601 7.03125 9.37486C7.03125 8.12518 7.51875 6.9476 8.4057 6.06182C10.1773 4.28799 13.2603 4.28799 15.0318 6.06182C15.9187 6.9476 16.4062 8.12518 16.4062 9.37486C16.4062 11.9601 14.304 14.0624 11.7188 14.0624Z" fill="#FFE1BA"/>
<path d="M16.4063 9.37507C16.4063 8.12538 15.9188 6.9478 15.0318 6.06202C14.1124 5.14148 12.8399 4.69984 11.5806 4.73484C11.577 7.49804 11.5867 10.7808 11.6025 14.0597C11.6413 14.0606 11.6798 14.0626 11.7188 14.0626C14.304 14.0626 16.4063 11.9603 16.4063 9.37507Z" fill="#FFBFAB"/>
<path d="M40 18.75H23.4375V7.03125H40V18.75Z" fill="#407580"/>
<path d="M31.7188 7.03125H40V18.75H31.7188V7.03125Z" fill="#335E73"/>
<path d="M40 40H0V21.0938H40V40Z" fill="#5CE6CF"/>
<path d="M19.9219 21.0938H40V40H19.9219V21.0938Z" fill="#3DCCC0"/>
<path d="M23.4375 29.375H21.0938V27.0312H18.75V29.375H16.4062V31.7188H18.75V34.0625H21.0938V31.7188H23.4375V29.375Z" fill="#FF7366"/>
<path d="M19.9219 27.0312V34.0625H21.0938V31.7188H23.4375V29.375H21.0938V27.0312H19.9219Z" fill="#E6455A"/>
</svg>
