<svg width="60" height="60" viewBox="0 0 60 60" fill="none" xmlns="http://www.w3.org/2000/svg">
<g clip-path="url(#clip0)">
<path d="M36.3247 53.6029H51.7633C52.279 53.6029 52.697 53.1849 52.697 52.6692V50.3953H35.391V52.6692C35.391 53.1849 35.8091 53.6029 36.3247 53.6029Z" fill="#90CAF9"/>
<path d="M52.8661 24.9404H35.2219C35.0548 24.9404 34.9193 25.0759 34.9193 25.243V29.208H53.1688V25.243C53.1687 25.0759 53.0332 24.9404 52.8661 24.9404Z" fill="#FFE082"/>
<path d="M34.9193 29.2083V35.0578C35.2327 36.4616 35.391 37.903 35.391 39.35V50.3954H52.697V39.35C52.697 37.9031 52.8554 36.4616 53.1687 35.0578V29.2083H34.9193Z" fill="#FFCA28"/>
<path d="M48.4812 29.2083V32.714C48.1678 34.1178 48.0095 35.5592 48.0095 37.0063V43.4558C48.0095 45.9941 45.9518 48.0517 43.4136 48.0517H35.391V50.3954H52.697V39.35C52.697 37.9031 52.8554 36.4616 53.1687 35.0578V29.2083H48.4812Z" fill="#FFA000"/>
<path d="M52.697 47.7337V43.7855H55.3005C55.9066 43.7855 56.3979 43.2941 56.3979 42.688V33.7986C56.3979 33.1923 55.9066 32.701 55.3003 32.701H53.1613V28.7529H55.6629C58.0582 28.7529 60.0001 30.6947 60.0001 33.0902V43.3966C60.0001 45.7919 58.0583 47.7338 55.6629 47.7338H52.697V47.7337Z" fill="#90CAF9"/>
<path d="M52.1903 24.7574C52.1903 23.0507 50.9617 21.6627 49.4379 21.6503C49.4242 21.6501 49.4104 21.6501 49.3964 21.6501C47.9994 21.6501 47.9994 22.2172 46.6025 22.2172C45.2056 22.2172 45.2056 21.6501 43.8086 21.6501C42.4116 21.6501 42.4116 22.2172 41.0146 22.2172C39.6175 22.2172 39.6175 21.6501 38.2202 21.6501C38.2061 21.6501 38.1921 21.6503 38.1783 21.6503C36.6546 21.6629 35.4259 23.0507 35.4259 24.7574V24.9407H52.1902V24.7574H52.1903Z" fill="#FFECB3"/>
<path d="M41.7393 50.3954H46.3488V37.3626C46.3488 36.0897 45.317 35.0579 44.0441 35.0579C42.7712 35.0579 41.7394 36.0897 41.7394 37.3626V50.3954H41.7393Z" fill="#FFE082"/>
<path d="M39.0571 37.6393V50.3952H35.391V39.3498C35.391 37.9029 35.2326 36.4614 34.9193 35.0576H36.7524C38.0251 35.0576 39.0571 36.2134 39.0571 37.6393Z" fill="#FFE082"/>
<path d="M51.3356 35.0576H53.1687C52.8553 36.4614 52.697 37.9028 52.697 39.3498V50.3952H49.0309V37.6393C49.0309 36.2134 50.0627 35.0576 51.3356 35.0576Z" fill="#FFCA28"/>
<path d="M31.3319 53.6031H19.5983C18.15 53.6031 16.9716 52.4248 16.9716 50.9765V29.5746C16.9716 27.3635 18.1521 25.2847 20.0525 24.1492C20.5172 23.8717 20.8118 23.3859 20.8407 22.8496L21.495 10.7276C20.9384 10.2703 20.601 9.57979 20.601 8.83916C20.601 7.49256 21.6966 6.39697 23.0432 6.39697H27.8871C29.2337 6.39697 30.3293 7.49256 30.3293 8.83916C30.3293 9.57979 29.992 10.2703 29.4353 10.7276L30.0895 22.8496C30.1185 23.3859 30.4131 23.8717 30.8777 24.1492C32.778 25.2845 33.9587 27.3635 33.9587 29.5746V50.9765C33.9586 52.4248 32.7803 53.6031 31.3319 53.6031Z" fill="#8D6E63"/>
<path d="M30.8777 24.1492C30.4131 23.8717 30.1184 23.3859 30.0895 22.8496L29.4352 10.7276C30.0954 10.1852 30.447 9.31518 30.2935 8.42221C30.0902 7.23943 29.0268 6.39697 27.8267 6.39697H24.6408L24.6405 6.39709L25.402 20.506C25.4309 21.0422 25.7256 21.5281 26.1902 21.8056C28.0905 22.9409 29.2712 25.0198 29.2712 27.2309V44.7282C29.2712 48.3353 26.347 51.2595 22.7399 51.2595H16.9871C17.1287 52.5753 18.2456 53.6033 19.5984 53.6033H31.332C32.7827 53.6033 33.9587 52.4273 33.9587 50.9766V29.5747C33.9586 27.3635 32.778 25.2847 30.8777 24.1492Z" fill="#5D4037"/>
<path d="M25.4651 37.9578C27.3987 37.9578 28.9662 36.3903 28.9662 34.4567C28.9662 32.5231 27.3987 30.9556 25.4651 30.9556C23.5315 30.9556 21.964 32.5231 21.964 34.4567C21.964 36.3903 23.5315 37.9578 25.4651 37.9578Z" fill="#FFCA28"/>
<path d="M28.9662 34.4565C28.9662 36.3901 27.3987 37.9576 25.4651 37.9576C23.5315 37.9576 21.964 36.3901 21.964 34.4565H16.9716V44.8076H33.9586V34.4565H28.9662Z" fill="#EF5350"/>
<path d="M29.2711 34.4565V39.1417C29.2711 40.9765 27.7836 42.464 25.9488 42.464H16.9716V44.8077H33.9586V34.4567H29.2711V34.4565Z" fill="#D32F2F"/>
<path d="M28.7004 42.2617H22.2299C21.7445 42.2617 21.351 41.8683 21.351 41.3828C21.351 40.8973 21.7445 40.5039 22.2299 40.5039H28.7004C29.1858 40.5039 29.5793 40.8973 29.5793 41.3828C29.5793 41.8683 29.1858 42.2617 28.7004 42.2617Z" fill="white"/>
<path d="M14.3604 53.6031H2.62676C1.17832 53.6031 0 52.4248 0 50.9765V29.5746C0 27.3635 1.18055 25.2847 3.08098 24.1492C3.54562 23.8717 3.84023 23.3859 3.86918 22.8496L4.52344 10.7276C3.9668 10.2703 3.62941 9.57979 3.62941 8.83916C3.62941 7.49256 4.725 6.39697 6.0716 6.39697H10.9155C12.2621 6.39697 13.3577 7.49256 13.3577 8.83916C13.3577 9.57979 13.0205 10.2703 12.4637 10.7276L13.118 22.8496C13.1469 23.3859 13.4415 23.8717 13.9062 24.1492C15.8065 25.2845 16.9871 27.3635 16.9871 29.5746V50.9765C16.987 52.4248 15.8087 53.6031 14.3604 53.6031Z" fill="#8D6E63"/>
<path d="M13.9061 24.1492C13.4415 23.8717 13.1469 23.3859 13.1179 22.8496L12.4637 10.7276C13.1238 10.1852 13.4755 9.31518 13.322 8.42221C13.1186 7.23943 12.0553 6.39697 10.8552 6.39697H7.66919L7.66896 6.39709L8.43044 20.506C8.45939 21.0422 8.754 21.5281 9.21865 21.8056C11.119 22.9409 12.2996 25.0198 12.2996 27.2309V44.7282C12.2996 48.3353 9.37544 51.2595 5.76829 51.2595H0.0154419C0.157004 52.5753 1.27392 53.6033 2.62673 53.6033H14.3604C15.811 53.6033 16.987 52.4273 16.987 50.9766V29.5747C16.987 27.3635 15.8065 25.2847 13.9061 24.1492Z" fill="#5D4037"/>
<path d="M8.49352 37.9578C10.4271 37.9578 11.9946 36.3903 11.9946 34.4567C11.9946 32.5231 10.4271 30.9556 8.49352 30.9556C6.55992 30.9556 4.99243 32.5231 4.99243 34.4567C4.99243 36.3903 6.55992 37.9578 8.49352 37.9578Z" fill="#FFCA28"/>
<path d="M11.9946 34.4565C11.9946 36.3901 10.4271 37.9576 8.49352 37.9576C6.55992 37.9576 4.99242 36.3901 4.99242 34.4565H0V44.8076H16.987V34.4565H11.9946Z" fill="#EF5350"/>
<path d="M12.2995 34.4565V39.1417C12.2995 40.9765 10.8121 42.464 8.97727 42.464H0V44.8077H16.987V34.4567H12.2995V34.4565Z" fill="#D32F2F"/>
<path d="M11.7287 42.2617H5.2583C4.77291 42.2617 4.37939 41.8683 4.37939 41.3828C4.37939 40.8973 4.77291 40.5039 5.2583 40.5039H11.7288C12.2142 40.5039 12.6077 40.8973 12.6077 41.3828C12.6077 41.8683 12.2142 42.2617 11.7287 42.2617Z" fill="white"/>
<path d="M43.4136 48.0516H41.7393V50.3953H46.3488V46.9919C45.5525 47.6535 44.5297 48.0516 43.4136 48.0516Z" fill="#FFCA28"/>
<path d="M39.0571 48.0515H35.391V50.3953H39.0571V48.0515Z" fill="#FFCA28"/>
</g>
<defs>
<clipPath id="clip0">
<rect width="60" height="60" fill="white"/>
</clipPath>
</defs>
</svg>
