<svg width="57" height="60" viewBox="0 0 57 60" fill="none" xmlns="http://www.w3.org/2000/svg">
<path d="M43.7812 4.71855H34.9788C33.952 4.71855 33.1195 3.88609 33.1195 2.85922C33.1195 1.83246 33.9519 1 34.9787 1H43.781C44.8079 1 45.6404 1.83246 45.6404 2.85933C45.6404 3.8862 44.808 4.71855 43.7812 4.71855Z" fill="#90CAF9"/>
<path d="M44.3877 1.10327C44.4535 1.29354 44.4909 1.49703 44.4909 1.70971C44.4909 2.73658 43.6585 3.56905 42.6316 3.56905H33.8293C33.6166 3.56905 33.4131 3.53157 33.2228 3.46581C33.4745 4.19446 34.1648 4.7187 34.9789 4.7187H43.7813C44.8081 4.7187 45.6406 3.88624 45.6406 2.85937C45.6405 2.04518 45.1164 1.35493 44.3877 1.10327Z" fill="#42A5F5"/>
<path d="M35.1701 4.71899V28.0604C35.1701 28.2225 35.0387 28.354 34.8765 28.354C33.6702 28.354 32.6922 29.332 32.6922 30.5384C32.6922 31.7447 33.6702 32.7227 34.8765 32.7227C35.0386 32.7227 35.1701 32.8541 35.1701 33.0163V33.646C35.1701 35.0681 34.3483 36.3502 33.0737 36.9813C28.3758 39.3075 25.1175 44.1418 25.0785 49.706C25.0586 52.5437 25.8658 55.1912 27.2725 57.4228C27.8902 58.4027 28.9644 59.0006 30.1227 59.0006H48.6367C49.7878 59.0006 50.8608 58.413 51.476 57.4402C52.8726 55.2317 53.6814 52.6146 53.6814 49.8083C53.6814 44.179 50.429 39.3097 45.701 36.9762C44.4176 36.3429 43.5895 35.0532 43.5895 33.6221V33.0163C43.5895 32.8542 43.7209 32.7227 43.8831 32.7227H43.8937C45.1 32.7227 46.0781 31.7447 46.0781 30.5384C46.0781 29.332 45.1 28.354 43.8937 28.354H43.8831C43.721 28.354 43.5895 28.2226 43.5895 28.0604V4.71899H35.1701Z" fill="#90CAF9"/>
<path d="M38.9911 31.3225C38.9911 32.7536 39.8192 34.0433 41.1025 34.6767C45.8306 37.0101 49.083 41.8795 49.083 47.5087C49.083 50.315 48.2742 52.9321 46.8777 55.1406C46.2625 56.1134 45.1894 56.701 44.0384 56.701H26.849C26.9839 56.9457 27.1242 57.1869 27.2728 57.4226C27.8905 58.4024 28.9647 59.0003 30.123 59.0003H48.637C49.788 59.0003 50.8611 58.4127 51.4763 57.4399C52.8729 55.2314 53.6816 52.6144 53.6816 49.8081C53.6816 44.1788 50.4292 39.3094 45.7011 36.976C44.4178 36.3426 43.5897 35.0529 43.5897 33.6219V33.0161C43.5897 32.854 43.7211 32.7225 43.8833 32.7225H43.8939C45.1002 32.7225 46.0782 31.7445 46.0782 30.5381C46.0782 29.3318 45.1003 28.3538 43.8939 28.3538H43.8833C43.7212 28.3538 43.5897 28.2224 43.5897 28.0602V4.71899H38.9911V31.3225Z" fill="#42A5F5"/>
<path d="M18.8748 37.7247L19.9451 38.7951C20.6041 39.454 21.4847 39.7563 22.3469 39.7019C22.6819 39.6808 23.0087 39.812 23.2461 40.0494L33.8362 50.6396C34.0757 50.8791 34.464 50.8791 34.7035 50.6396L36.1983 49.1448C36.4378 48.9053 36.4378 48.517 36.1983 48.2775L25.6082 37.6874C25.3708 37.45 25.2395 37.1232 25.2606 36.7882C25.315 35.9259 25.0128 35.0453 24.3538 34.3862L23.2834 33.3159L18.8748 37.7247Z" fill="#90CAF9"/>
<path d="M48.8644 43.4124C48.5105 42.8881 47.8805 42.6282 47.2547 42.7191C46.6386 42.8086 45.9398 42.8608 45.1256 42.8608C39.3802 42.8608 39.3802 40.2661 33.6347 40.2661H33.6293C33.2883 40.2661 32.9539 40.3699 32.6783 40.5708C31.8783 41.1534 31.1572 41.8395 30.5293 42.6088L36.1983 48.2778C36.4378 48.5173 36.4378 48.9057 36.1983 49.1451L34.7036 50.6399C34.4641 50.8794 34.0757 50.8794 33.8363 50.6399L28.7724 45.576C28.2435 46.8907 27.9627 48.2959 27.9527 49.7258C27.9374 51.9167 28.5431 54.0482 29.7041 55.8899C29.7974 56.0379 29.954 56.1263 30.123 56.1263H48.6371C48.8032 56.1263 48.9604 56.0411 49.0471 55.9037C50.1988 54.0827 50.8076 51.9749 50.8076 49.8081C50.8076 47.4689 50.1112 45.2596 48.8644 43.4124Z" fill="#FFE082"/>
<path d="M40.6431 53.8265H28.6813C28.9507 54.5437 29.2916 55.2352 29.7041 55.8895C29.7974 56.0374 29.954 56.1258 30.123 56.1258H48.6371C48.8032 56.1258 48.9604 56.0406 49.0471 55.9033C50.1988 54.0822 50.8076 51.9744 50.8076 49.8077C50.8076 47.4753 50.1152 45.2718 48.875 43.4278C48.5204 42.9007 47.889 42.6265 47.2604 42.7181C46.6699 42.8042 46.0022 42.8554 45.2308 42.8598C45.8654 44.2923 46.2089 45.8682 46.2089 47.5084C46.2089 48.0277 46.174 48.5435 46.1049 49.0529C45.7345 51.7866 43.4017 53.8265 40.6431 53.8265Z" fill="#FFCA28"/>
<path d="M39.38 32.5499C40.5501 32.5499 41.4987 31.6013 41.4987 30.4312C41.4987 29.2611 40.5501 28.3125 39.38 28.3125C38.2099 28.3125 37.2613 29.2611 37.2613 30.4312C37.2613 31.6013 38.2099 32.5499 39.38 32.5499Z" fill="#E0E0E0"/>
<path d="M40.1885 28.4731C40.2915 28.7224 40.349 28.9952 40.349 29.2816C40.349 30.4517 39.4004 31.4003 38.2302 31.4003C37.9439 31.4003 37.6711 31.3428 37.4218 31.2397C37.7396 32.0086 38.4963 32.5499 39.3799 32.5499C40.55 32.5499 41.4986 31.6013 41.4986 30.4312C41.4987 29.5476 40.9574 28.7909 40.1885 28.4731Z" fill="#BDBDBD"/>
<path d="M23.3745 33.2249L18.7836 37.8158C18.1748 38.4245 17.188 38.4245 16.5792 37.8158C15.9705 37.207 15.9705 36.2202 16.5792 35.6114L21.1701 31.0205C21.7789 30.4118 22.7658 30.4118 23.3745 31.0205C23.9832 31.6293 23.9832 32.6161 23.3745 33.2249Z" fill="#42A5F5"/>
<path d="M17.4553 16.5876C17.4553 14.3384 19.2786 12.5152 21.5277 12.5152H18.6544C17.1688 12.5152 15.9644 11.3108 15.9644 9.82524C15.9644 8.33966 17.1688 7.13529 18.6544 7.13529H8.15344C7.18164 7.13529 6.35389 6.37962 6.3194 5.40839C6.28318 4.38876 7.09898 3.55078 8.11044 3.55078H24.0583C25.0301 3.55078 25.8579 4.30645 25.8924 5.27768C25.9286 6.2973 25.1128 7.13529 24.1013 7.13529H29.2589C30.7246 7.13529 31.9636 8.28448 32.0037 9.7496C32.0453 11.2698 30.8255 12.5151 29.3148 12.5151H25.8245C27.1167 12.5151 28.1603 13.5804 28.1245 14.8807C28.0901 16.134 27.0304 17.117 25.7766 17.117H21.6852C21.1387 17.117 20.6957 17.5601 20.6957 18.1065V31.4949L17.4553 34.7354V16.5876Z" fill="#FFE082"/>
<path d="M45.1006 47.6861C45.578 47.6861 45.9649 47.2992 45.9649 46.8218C45.9649 46.3445 45.578 45.9575 45.1006 45.9575C44.6233 45.9575 44.2363 46.3445 44.2363 46.8218C44.2363 47.2992 44.6233 47.6861 45.1006 47.6861Z" fill="#FFCA28"/>
<path d="M42.7685 51.7757C43.2459 51.7757 43.6328 51.3888 43.6328 50.9114C43.6328 50.4341 43.2459 50.0471 42.7685 50.0471C42.2912 50.0471 41.9042 50.4341 41.9042 50.9114C41.9042 51.3888 42.2912 51.7757 42.7685 51.7757Z" fill="#FFCA28"/>
<path d="M47.6463 50.8397C48.1236 50.8397 48.5106 50.4527 48.5106 49.9754C48.5106 49.498 48.1236 49.1111 47.6463 49.1111C47.1689 49.1111 46.782 49.498 46.782 49.9754C46.782 50.4527 47.1689 50.8397 47.6463 50.8397Z" fill="#FFA000"/>
<path d="M26.6009 43.4043L33.8361 50.6396C34.0756 50.8791 34.4639 50.8791 34.7034 50.6396L36.1982 49.1449C36.4377 48.9054 36.4377 48.517 36.1982 48.2776L28.4865 40.5659C27.7513 41.4305 27.1166 42.3827 26.6009 43.4043Z" fill="#42A5F5"/>
</svg>
