<svg width="60" height="60" viewBox="0 0 60 60" fill="none" xmlns="http://www.w3.org/2000/svg">
<path d="M56.5732 51.1704H32.2903C30.4007 51.1704 28.8634 49.6331 28.8634 47.7436V12.256C28.8634 10.3664 30.4007 8.8291 32.2903 8.8291H56.5731C58.4626 8.8291 59.9999 10.3664 59.9999 12.256V47.7436C60 49.6331 58.4627 51.1704 56.5732 51.1704Z" fill="#E0E0E0"/>
<path d="M56.5731 8.8291H55.1361C55.2499 9.16977 55.3126 9.53375 55.3126 9.91227V43.432C55.3126 46.4114 52.8974 48.8266 49.918 48.8266H29.0399C29.4943 50.1868 30.7792 51.1704 32.2903 51.1704H56.5731C58.4657 51.1704 59.9999 49.6361 59.9999 47.7436V12.256C60 10.3633 58.4657 8.8291 56.5731 8.8291Z" fill="#BDBDBD"/>
<path d="M54.0529 12.1448C52.6018 12.1448 51.4214 13.3252 51.4214 14.7762V17.7224C51.4214 18.2079 51.8149 18.6013 52.3003 18.6013C52.7857 18.6013 53.1792 18.2079 53.1792 17.7224V17.0477H54.9265V17.7224C54.9265 18.2079 55.32 18.6013 55.8054 18.6013C56.2908 18.6013 56.6843 18.2079 56.6843 17.7224V14.7762C56.6844 13.3252 55.5039 12.1448 54.0529 12.1448ZM53.1792 15.2899V14.7762C53.1792 14.2946 53.5711 13.9026 54.0529 13.9026C54.5346 13.9026 54.9265 14.2946 54.9265 14.7762V15.2899H53.1792Z" fill="#EF5350"/>
<path d="M36.5631 41.3982C36.0777 41.3982 35.6842 41.7916 35.6842 42.2771V42.9519H33.9369V42.2771C33.9369 41.7916 33.5434 41.3982 33.058 41.3982C32.5726 41.3982 32.1791 41.7916 32.1791 42.2771V45.2233C32.1791 46.6743 33.3595 47.8548 34.8106 47.8548C36.2616 47.8548 37.442 46.6743 37.442 45.2233V42.2771C37.442 41.7916 37.0485 41.3982 36.5631 41.3982ZM34.8106 46.0968C34.3288 46.0968 33.9369 45.7048 33.9369 45.2232V44.7096H35.6842V45.2232C35.6842 45.705 35.2923 46.0968 34.8106 46.0968Z" fill="#EF5350"/>
<path d="M46.9615 51.1704H22.6786C20.7889 51.1704 19.2517 49.6331 19.2517 47.7436V12.256C19.2517 10.3664 20.7889 8.8291 22.6786 8.8291H46.9614C48.8509 8.8291 50.3882 10.3664 50.3882 12.256V47.7436C50.3883 49.6331 48.851 51.1704 46.9615 51.1704Z" fill="#E0E0E0"/>
<path d="M46.9614 8.8291H45.5244C45.6382 9.16977 45.7009 9.53375 45.7009 9.91227V43.432C45.7009 46.4114 43.2857 48.8266 40.3063 48.8266H19.4282C19.8826 50.1868 21.1675 51.1704 22.6786 51.1704H46.9614C48.854 51.1704 50.3882 49.6361 50.3882 47.7436V12.256C50.3883 10.3633 48.854 8.8291 46.9614 8.8291Z" fill="#BDBDBD"/>
<path d="M44.4411 12.1448C42.9901 12.1448 41.8097 13.3252 41.8097 14.7762V17.7224C41.8097 18.2079 42.2032 18.6013 42.6886 18.6013C43.174 18.6013 43.5675 18.2079 43.5675 17.7224V17.0477H45.3148V17.7224C45.3148 18.2079 45.7083 18.6013 46.1937 18.6013C46.6791 18.6013 47.0726 18.2079 47.0726 17.7224V14.7762C47.0726 13.3252 45.8922 12.1448 44.4411 12.1448ZM43.5675 15.2899V14.7762C43.5675 14.2946 43.9594 13.9026 44.4411 13.9026C44.9229 13.9026 45.3148 14.2946 45.3148 14.7762V15.2899H43.5675Z" fill="#424242"/>
<path d="M26.9514 41.3982C26.466 41.3982 26.0725 41.7916 26.0725 42.2771V42.9519H24.3252V42.2771C24.3252 41.7916 23.9317 41.3982 23.4463 41.3982C22.9609 41.3982 22.5674 41.7916 22.5674 42.2771V45.2233C22.5674 46.6743 23.7478 47.8548 25.1988 47.8548C26.6498 47.8548 27.8303 46.6743 27.8303 45.2233V42.2771C27.8303 41.7916 27.4368 41.3982 26.9514 41.3982ZM25.1988 46.0968C24.7171 46.0968 24.3252 45.7048 24.3252 45.2232V44.7096H26.0725V45.2232C26.0725 45.705 25.6806 46.0968 25.1988 46.0968Z" fill="#424242"/>
<path d="M37.3356 51.1704H13.0528C11.1632 51.1704 9.62589 49.6331 9.62589 47.7436V12.256C9.62589 10.3664 11.1632 8.8291 13.0528 8.8291H37.3356C39.2251 8.8291 40.7624 10.3664 40.7624 12.256V47.7436C40.7624 49.6331 39.2251 51.1704 37.3356 51.1704Z" fill="#E0E0E0"/>
<path d="M37.3355 8.8291H35.8985C36.0123 9.16977 36.075 9.53375 36.075 9.91227V43.432C36.075 46.4114 33.6598 48.8266 30.6804 48.8266H9.80228C10.2567 50.1868 11.5416 51.1704 13.0527 51.1704H37.3355C39.2281 51.1704 40.7623 49.6361 40.7623 47.7436V12.256C40.7624 10.3633 39.2281 8.8291 37.3355 8.8291Z" fill="#BDBDBD"/>
<path d="M34.8154 12.1448C33.3644 12.1448 32.1839 13.3252 32.1839 14.7762V17.7224C32.1839 18.2079 32.5774 18.6013 33.0628 18.6013C33.5482 18.6013 33.9417 18.2079 33.9417 17.7224V17.0477H35.689V17.7224C35.689 18.2079 36.0825 18.6013 36.5679 18.6013C37.0533 18.6013 37.4468 18.2079 37.4468 17.7224V14.7762C37.4468 13.3252 36.2663 12.1448 34.8154 12.1448ZM33.9416 15.2899V14.7762C33.9416 14.2946 34.3335 13.9026 34.8153 13.9026C35.297 13.9026 35.6889 14.2946 35.6889 14.7762V15.2899H33.9416Z" fill="#EF5350"/>
<path d="M17.3255 41.3982C16.8401 41.3982 16.4466 41.7916 16.4466 42.2771V42.9519H14.6993V42.2771C14.6993 41.7916 14.3058 41.3982 13.8204 41.3982C13.335 41.3982 12.9415 41.7916 12.9415 42.2771V45.2233C12.9415 46.6743 14.1219 47.8548 15.5729 47.8548C17.024 47.8548 18.2044 46.6743 18.2044 45.2233V42.2771C18.2044 41.7916 17.811 41.3982 17.3255 41.3982ZM15.5729 46.0968C15.0912 46.0968 14.6993 45.7048 14.6993 45.2232V44.7096H16.4466V45.2232C16.4466 45.705 16.0547 46.0968 15.5729 46.0968Z" fill="#EF5350"/>
<path d="M48.0758 51.1701C54.6614 51.1701 60 45.8315 60 39.246C60 32.6604 54.6614 27.3218 48.0758 27.3218C41.4903 27.3218 36.1516 32.6604 36.1516 39.246C36.1516 45.8315 41.4903 51.1701 48.0758 51.1701Z" fill="#EF5350"/>
<path d="M27.7097 51.1704H3.42691C1.53727 51.1704 0 49.6331 0 47.7436V12.256C0 10.3664 1.53727 8.8291 3.42691 8.8291H27.7097C29.5992 8.8291 31.1365 10.3664 31.1365 12.256V47.7436C31.1365 49.6331 29.5992 51.1704 27.7097 51.1704Z" fill="#E0E0E0"/>
<path d="M27.7096 8.8291H26.2726C26.3864 9.16977 26.4491 9.53375 26.4491 9.91227V43.432C26.4491 46.4114 24.0339 48.8266 21.0545 48.8266H0.176361C0.630814 50.1868 1.91566 51.1704 3.42679 51.1704H27.7096C29.6021 51.1704 31.1364 49.6361 31.1364 47.7436V12.256C31.1365 10.3633 29.6023 8.8291 27.7096 8.8291Z" fill="#BDBDBD"/>
<path d="M25.1895 12.1448C23.7384 12.1448 22.558 13.3252 22.558 14.7762V17.7224C22.558 18.2079 22.9515 18.6013 23.4369 18.6013C23.9223 18.6013 24.3158 18.2079 24.3158 17.7224V17.0477H26.0631V17.7224C26.0631 18.2079 26.4566 18.6013 26.942 18.6013C27.4274 18.6013 27.8209 18.2079 27.8209 17.7224V14.7762C27.8209 13.3252 26.6405 12.1448 25.1895 12.1448ZM24.3158 15.2899V14.7762C24.3158 14.2946 24.7077 13.9026 25.1895 13.9026C25.6712 13.9026 26.0631 14.2946 26.0631 14.7762V15.2899H24.3158Z" fill="#424242"/>
<path d="M7.69969 41.3982C7.2143 41.3982 6.82078 41.7916 6.82078 42.2771V42.9519H5.07352V42.2771C5.07352 41.7916 4.68 41.3982 4.19461 41.3982C3.70922 41.3982 3.3157 41.7916 3.3157 42.2771V45.2233C3.3157 46.6743 4.49613 47.8548 5.94715 47.8548C7.39817 47.8548 8.5786 46.6743 8.5786 45.2233V42.2771C8.5786 41.7916 8.18508 41.3982 7.69969 41.3982ZM5.94715 46.0968C5.46539 46.0968 5.07352 45.7048 5.07352 45.2232V44.7096H6.82078V45.2232C6.82078 45.705 6.42879 46.0968 5.94715 46.0968Z" fill="#424242"/>
<path d="M19.3491 26.9319C19.6061 26.3548 19.7352 25.7081 19.6992 25.0278C19.5899 22.9582 17.9251 21.2651 15.8575 21.1246C13.442 20.9604 11.4314 22.8712 11.4314 25.2516C11.4314 25.8499 11.5588 26.4183 11.7874 26.9318C11.8452 27.0614 11.7611 27.2072 11.62 27.222C9.54668 27.4392 7.92902 29.187 7.91929 31.3157C7.9091 33.5577 9.73371 35.4282 11.9754 35.4709C12.6753 35.4843 13.3365 35.3234 13.9187 35.0291C14.0572 34.9592 14.2209 35.0556 14.2209 35.2108V35.9191C14.2209 36.5016 14.0464 37.069 13.7224 37.5494C13.6753 37.6192 13.7249 37.713 13.8091 37.713H17.3275C17.4117 37.713 17.4613 37.6192 17.4142 37.5494C17.0902 37.069 16.9157 36.5015 16.9157 35.9191V35.2108C16.9157 35.0556 17.0794 34.9591 17.2179 35.0291C17.8001 35.3234 18.4612 35.4843 19.1612 35.4709C21.4029 35.4282 23.2275 33.5577 23.2173 31.3157C23.2076 29.1871 21.5899 27.4392 19.5166 27.222C19.3754 27.2072 19.2913 27.0615 19.3491 26.9319Z" fill="#424242"/>
<path d="M48.0758 46.0524C51.8347 46.0524 54.8819 43.0052 54.8819 39.2463C54.8819 35.4874 51.8347 32.4402 48.0758 32.4402C44.3169 32.4402 41.2697 35.4874 41.2697 39.2463C41.2697 43.0052 44.3169 46.0524 48.0758 46.0524Z" fill="white"/>
<path d="M53.9693 35.8437L58.4038 33.2833C57.3568 31.4738 55.8481 29.9652 54.0387 28.9182L51.4784 33.3527C52.5111 33.9504 53.3718 34.8109 53.9693 35.8437Z" fill="#FFCA28"/>
<path d="M54.882 39.2461C54.882 40.4861 54.5487 41.6475 53.9694 42.6487L58.4039 45.2091C59.4189 43.4549 60 41.4185 60 39.2461H54.882Z" fill="#FFCA28"/>
<path d="M48.0758 32.4398V27.3218C45.9035 27.3218 43.867 27.9029 42.1129 28.9179L44.6732 33.3524C45.6744 32.7731 46.8359 32.4398 48.0758 32.4398Z" fill="#FFCA28"/>
<path d="M37.7477 33.2834C36.7328 35.0376 36.1516 37.074 36.1516 39.2464H41.2697C41.2697 38.0065 41.603 36.845 42.1822 35.8438L37.7477 33.2834Z" fill="#FFCA28"/>
<path d="M42.1822 42.6487L37.7477 45.209C38.7947 47.0185 40.3035 48.5272 42.1129 49.5741L44.6732 45.1396C43.6404 44.542 42.7798 43.6815 42.1822 42.6487Z" fill="#FFCA28"/>
<path d="M48.0758 46.0522V51.1702C50.2481 51.1702 52.2846 50.589 54.0388 49.5741L51.4785 45.1396C50.4772 45.7189 49.3158 46.0522 48.0758 46.0522Z" fill="#FFCA28"/>
<path d="M50.4756 40.7337C50.4756 39.4104 49.399 38.3338 48.0757 38.3338C47.7587 38.3338 47.5009 38.076 47.5009 37.7591C47.5009 37.4421 47.7587 37.1843 48.0757 37.1843C48.2803 37.1843 48.4713 37.2947 48.5741 37.4723C48.8265 37.9087 49.3848 38.0574 49.821 37.8053C50.2573 37.5527 50.4062 36.9945 50.1539 36.5584C49.8851 36.0937 49.4708 35.7399 48.9882 35.5408V35.204C48.9882 34.7 48.5797 34.2915 48.0757 34.2915C47.5717 34.2915 47.1632 34.7 47.1632 35.204V35.5405C46.2914 35.9005 45.6758 36.7589 45.6758 37.7591C45.6758 39.0824 46.7524 40.1588 48.0757 40.1588C48.3927 40.1588 48.6505 40.4167 48.6505 40.7337C48.6505 41.0505 48.3927 41.3083 48.0757 41.3083C47.8711 41.3083 47.6801 41.1979 47.5773 41.0204C47.3249 40.584 46.7664 40.4353 46.3304 40.6875C45.8941 40.94 45.7452 41.4982 45.9975 41.9344C46.2663 42.3989 46.6806 42.7528 47.163 42.9518V43.2887C47.163 43.7927 47.5716 44.2012 48.0756 44.2012C48.5796 44.2012 48.9881 43.7927 48.9881 43.2887V42.9521C49.8601 42.5922 50.4756 41.7338 50.4756 40.7337Z" fill="#424242"/>
</svg>
