<svg width="60" height="60" viewBox="0 0 60 60" fill="none" xmlns="http://www.w3.org/2000/svg">
<path d="M57.3804 18.8685C57.3804 20.6704 55.9197 22.1309 54.118 22.1309C52.3163 22.1309 50.8556 20.6702 50.8556 18.8685C50.8556 17.0668 53.7075 13.0935 54.118 13.0935C54.5285 13.0935 57.3804 17.0667 57.3804 18.8685Z" fill="#FFCA28"/>
<path d="M54.118 13.0935C54.0141 13.0935 53.7534 13.3488 53.4224 13.7584C54.2867 15.0534 55.193 16.759 55.193 17.7748C55.193 19.5766 53.7322 21.0372 51.9305 21.0372C51.8433 21.0372 51.7573 21.0327 51.6718 21.026C52.2697 21.7033 53.1437 22.1309 54.118 22.1309C55.9199 22.1309 57.3805 20.6704 57.3805 18.8685C57.3806 17.0667 54.5285 13.0935 54.118 13.0935Z" fill="#FFA000"/>
<path d="M44.5 21.9611L38.405 15.8661C37.6978 15.1589 36.5511 15.1589 35.8438 15.8661L14.942 36.7679L23.5982 45.4241L44.5 24.5223C45.2072 23.8151 45.2072 22.6684 44.5 21.9611Z" fill="#90CAF9"/>
<path d="M44.4999 21.9611L38.4049 15.8661C37.6977 15.1589 36.551 15.1589 35.8437 15.8661L34.9368 16.773L36.8779 18.7142C39.3784 21.2146 39.3784 25.2687 36.8779 27.7692L21.4105 43.2367L23.5979 45.4241L44.4998 24.5223C45.2071 23.8151 45.2071 22.6684 44.4999 21.9611Z" fill="#42A5F5"/>
<path d="M11.2408 54.5939C11.0233 54.5939 10.8147 54.5075 10.6607 54.3536L6.01207 49.705C5.69172 49.3846 5.69172 48.8652 6.01207 48.545L14.041 40.5159C14.3615 40.1955 14.8808 40.1955 15.2011 40.5159L19.8499 45.1645C20.0036 45.3183 20.0901 45.527 20.0901 45.7445C20.0901 45.9621 20.0036 46.1708 19.8499 46.3245L11.8208 54.3536C11.667 54.5075 11.4584 54.5939 11.2408 54.5939Z" fill="#42A5F5"/>
<path d="M10.6153 57.9995C9.99817 57.9995 9.41804 57.7592 8.98164 57.3228L3.04246 51.3836C2.14187 50.4828 2.14187 49.0172 3.04246 48.1164L3.25968 47.8992C4.1605 46.9985 5.62634 46.9985 6.52693 47.8992L12.4662 53.8384C12.9025 54.2747 13.1429 54.8549 13.1429 55.4721C13.1429 56.0893 12.9026 56.6694 12.4661 57.1058L12.249 57.323C11.8127 57.7591 11.2325 57.9995 10.6153 57.9995Z" fill="#90CAF9"/>
<path d="M8.91648 52.2696C8.70659 52.2696 8.49659 52.1895 8.33635 52.0293C8.01599 51.7089 8.01599 51.1895 8.33635 50.8692L16.3653 42.8401C16.6858 42.5198 17.2051 42.5198 17.5255 42.8401C17.8458 43.1605 17.8458 43.6799 17.5255 44.0002L9.49649 52.0293C9.33637 52.1895 9.12648 52.2696 8.91648 52.2696Z" fill="#90CAF9"/>
<path d="M45.4001 16.6761L43.6898 14.9658L56.5605 2.09507C56.6873 1.96831 56.8929 1.96831 57.0196 2.09507C57.8374 2.91286 57.8374 4.2387 57.0196 5.05649L45.4001 16.6761Z" fill="#E0E0E0"/>
<path d="M45.4848 16.7607L43.6051 14.8809C43.373 14.6487 42.9966 14.6487 42.7645 14.8809L40.0922 17.5533L42.8126 20.2737L45.4848 17.6014C45.717 17.3692 45.717 16.9929 45.4848 16.7607Z" fill="#90CAF9"/>
<path d="M37.6734 28.6421C37.3529 28.3218 36.8336 28.3218 36.5133 28.6421C36.1929 28.9625 36.1929 29.4819 36.5133 29.8022L37.8668 31.1557L39.0269 29.9955L37.6734 28.6421Z" fill="#90CAF9"/>
<path d="M34.4836 31.8323C34.1632 31.512 33.6439 31.512 33.3235 31.8323C33.0031 32.1527 33.0031 32.6721 33.3235 32.9923L34.677 34.3459L35.8372 33.1857L34.4836 31.8323Z" fill="#90CAF9"/>
<path d="M40.8631 25.4527C40.5426 25.1323 40.0233 25.1323 39.703 25.4527C39.3826 25.773 39.3826 26.2925 39.703 26.6127L41.0565 27.9662L42.2166 26.8061L40.8631 25.4527Z" fill="#90CAF9"/>
<path d="M14.9418 36.7685L23.598 45.4247L34.235 34.7877C26.9779 34.6997 26.3973 32.2496 19.7724 31.938L14.9418 36.7685Z" fill="#FFCA28"/>
<path d="M23.598 45.4239L34.235 34.7869C32.6109 34.7672 31.3217 34.6289 30.2238 34.4231L21.4105 43.2364L23.598 45.4239Z" fill="#FFA000"/>
<path d="M23.0922 49.9928C22.6188 49.9928 22.1738 49.8084 21.8389 49.4736L10.8922 38.527C10.5574 38.1922 10.3731 37.7472 10.3731 37.2738C10.3731 36.8003 10.5575 36.3553 10.8922 36.0205L11.87 35.0427C12.5611 34.3516 13.6855 34.3517 14.3766 35.0425L25.3233 45.9893C26.0142 46.6804 26.0142 47.8048 25.3233 48.4958L24.3456 49.4736C24.0107 49.8084 23.5656 49.9928 23.0922 49.9928Z" fill="#90CAF9"/>
</svg>
