<svg width="40" height="40" viewBox="0 0 40 40" fill="none" xmlns="http://www.w3.org/2000/svg">
<g clip-path="url(#clip0)">
<path d="M14.0879 36.6927C13.4407 36.6927 12.916 36.168 12.916 35.5208C12.916 33.3511 14.6812 31.5859 16.8509 31.5859H21.0599C21.7071 31.5859 22.2318 32.1106 22.2318 32.7578C22.2318 33.405 21.7071 33.9297 21.0599 33.9297H16.8509C15.9735 33.9297 15.2598 34.6434 15.2598 35.5208C15.2598 36.168 14.7351 36.6927 14.0879 36.6927Z" fill="#006EB8"/>
<path d="M34.5256 10.6787H10.1689C10.1689 15.5831 13.0682 19.8098 17.2463 21.7396C18.9127 22.5094 19.9985 24.1561 19.9985 25.9918V38.8283H24.6961V25.9918C24.6961 24.1561 25.7818 22.5094 27.4483 21.7396C31.6264 19.8098 34.5256 15.5831 34.5256 10.6787Z" fill="#335C7C"/>
<path d="M34.5258 10.6787H22.3474V38.8283H24.6962V25.9918C24.6962 24.1561 25.7819 22.5094 27.4484 21.7396C31.6264 19.8098 34.5257 15.5831 34.5258 10.6787Z" fill="#00335B"/>
<path d="M26.8596 40.001H17.835C17.1878 40.001 16.6631 39.4763 16.6631 38.8291C16.6631 38.1819 17.1878 37.6572 17.835 37.6572H26.8596C27.5068 37.6572 28.0315 38.1819 28.0315 38.8291C28.0315 39.4763 27.5068 40.001 26.8596 40.001Z" fill="#0D8EBC"/>
<path d="M26.8596 37.6572H22.3473V40.001H26.8596C27.5068 40.001 28.0315 39.4763 28.0315 38.8291C28.0315 38.1818 27.5068 37.6572 26.8596 37.6572Z" fill="#0A617D"/>
<path d="M34.5257 11.8506H10.1689C9.52176 11.8506 8.99707 11.3259 8.99707 10.6787C8.99707 10.0315 9.52176 9.50684 10.1689 9.50684H34.5257C35.1729 9.50684 35.6976 10.0315 35.6976 10.6787C35.6976 11.3259 35.1729 11.8506 34.5257 11.8506Z" fill="#0D8EBC"/>
<path d="M34.5257 9.50684H22.3474V11.8506H34.5257C35.1729 11.8506 35.6976 11.3259 35.6976 10.6787C35.6976 10.0315 35.1729 9.50684 34.5257 9.50684Z" fill="#0A617D"/>
<path d="M28.0216 33.93H24.6911V31.5862H28.0216C28.8989 31.5862 29.6127 30.8725 29.6127 29.9951C29.6127 29.1178 28.8989 28.404 28.0216 28.404H22.34C17.522 28.404 12.9923 26.5278 9.58545 23.1209C6.17856 19.7139 4.30231 15.1843 4.30231 10.3662C4.30231 5.56025 8.21224 1.65039 13.0181 1.65039H17.7678C18.415 1.65039 18.9397 2.17508 18.9397 2.82227C18.9397 3.46946 18.415 3.99415 17.7678 3.99415H13.0181C9.50452 3.99415 6.64607 6.85268 6.64607 10.3662C6.64607 14.5583 8.27857 18.4994 11.2427 21.4635C14.2069 24.4277 18.148 26.0602 22.34 26.0602H28.0216C30.1913 26.0602 31.9565 27.8253 31.9565 29.995C31.9565 32.1648 30.1913 33.93 28.0216 33.93Z" fill="#0079C8"/>
<path d="M28.0216 26.0605H22.3473V28.4043H28.0216C28.8989 28.4043 29.6127 29.118 29.6127 29.9954C29.6127 30.8727 28.8989 31.5865 28.0216 31.5865H24.691V33.9302H28.0216C30.1913 33.9302 31.9564 32.1651 31.9564 29.9954C31.9564 27.8258 30.1913 26.0605 28.0216 26.0605Z" fill="#005994"/>
<path d="M24.8399 5.64414H19.8547C18.2961 5.64414 17.0326 4.38063 17.0326 2.82203C17.0326 1.26352 18.2961 0 19.8547 0H24.8399C26.3985 0 27.662 1.26352 27.662 2.82211C27.662 4.3807 26.3985 5.64414 24.8399 5.64414Z" fill="#0097FA"/>
<path d="M24.8399 0H22.3474V5.64414H24.8399C26.3985 5.64414 27.662 4.38063 27.662 2.82203C27.662 1.26352 26.3985 0 24.8399 0V0Z" fill="#0079C8"/>
</g>
<defs>
<clipPath id="clip0">
<rect width="40" height="40" fill="white"/>
</clipPath>
</defs>
</svg>
